<svg width="109" height="108" viewBox="0 0 109 108" fill="none" xmlns="http://www.w3.org/2000/svg">
<g filter="url(#filter0_d_2_610)">
<rect x="4.66016" y="4" width="100" height="100" rx="50" fill="white" shape-rendering="crispEdges"/>
<path d="M36.6602 84V80L26.1042 67.685C25.1722 66.5974 24.66 65.2123 24.6602 63.78V45.5C24.6602 44.5717 25.0289 43.6815 25.6853 43.0251C26.3417 42.3687 27.2319 42 28.1602 42C29.0884 42 29.9787 42.3687 30.635 43.0251C31.2914 43.6815 31.6602 44.5717 31.6602 45.5V57.13" stroke="#029967" stroke-width="2" stroke-miterlimit="10"/>
<path d="M48.6598 84V70.485C48.6597 68.894 48.0277 67.3681 46.9028 66.243L37.1598 56.5C36.8315 56.1716 36.4418 55.9111 36.0128 55.7334C35.5839 55.5557 35.1241 55.4642 34.6598 55.4642C34.1955 55.4642 33.7357 55.5557 33.3067 55.7334C32.8778 55.9111 32.488 56.1716 32.1598 56.5C31.8314 56.8283 31.5709 57.218 31.3932 57.647C31.2155 58.0759 31.124 58.5357 31.124 59C31.124 59.4643 31.2155 59.9241 31.3932 60.353C31.5709 60.782 31.8314 61.1717 32.1598 61.5L39.6598 69" stroke="#029967" stroke-width="2" stroke-miterlimit="10"/>
<path d="M72.6602 84V80L83.2162 67.685C84.1482 66.5974 84.6603 65.2123 84.6602 63.78V45.5C84.6602 44.5717 84.2914 43.6815 83.635 43.0251C82.9787 42.3687 82.0884 42 81.1602 42C80.2319 42 79.3417 42.3687 78.6853 43.0251C78.0289 43.6815 77.6602 44.5717 77.6602 45.5V57.13" stroke="#029967" stroke-width="2" stroke-miterlimit="10"/>
<path d="M60.6602 84V70.485C60.6602 68.894 61.2922 67.3681 62.4172 66.243L72.1602 56.5C72.4884 56.1716 72.8782 55.9111 73.3071 55.7334C73.7361 55.5557 74.1958 55.4642 74.6602 55.4642C75.1245 55.4642 75.5842 55.5557 76.0132 55.7334C76.4421 55.9111 76.8319 56.1716 77.1602 56.5C77.4885 56.8283 77.749 57.218 77.9267 57.647C78.1044 58.0759 78.1959 58.5357 78.1959 59C78.1959 59.4643 78.1044 59.9241 77.9267 60.353C77.749 60.782 77.4885 61.1717 77.1602 61.5L69.6602 69" stroke="#029967" stroke-width="2" stroke-miterlimit="10"/>
<path d="M68.6606 32.5C68.6582 30.8491 68.1112 29.2451 67.1044 27.9367C66.0976 26.6283 64.6872 25.6887 63.0919 25.2636C61.4967 24.8385 59.8057 24.9515 58.2813 25.5853C56.7569 26.2191 55.4842 27.3382 54.6606 28.769C54.1211 27.8256 53.3829 27.0107 52.4972 26.381C51.6114 25.7512 50.5993 25.3216 49.531 25.122C48.4627 24.9223 47.3637 24.9574 46.3103 25.2248C45.2569 25.4921 44.2743 25.9854 43.4305 26.6703C42.5867 27.3553 41.902 28.2156 41.4238 29.1915C40.9455 30.1674 40.6853 31.2357 40.661 32.3222C40.6368 33.4087 40.8491 34.4875 41.2833 35.4838C41.7175 36.4801 42.3632 37.3701 43.1756 38.092L54.6606 49.607L66.1456 38.092C66.9366 37.3909 67.5697 36.5299 68.0033 35.5659C68.4368 34.602 68.6609 33.557 68.6606 32.5Z" stroke="#029967" stroke-width="2" stroke-miterlimit="10" stroke-linecap="square"/>
</g>
<defs>
<filter id="filter0_d_2_610" x="0.660156" y="0" width="108" height="108" filterUnits="userSpaceOnUse" color-interpolation-filters="sRGB">
<feFlood flood-opacity="0" result="BackgroundImageFix"/>
<feColorMatrix in="SourceAlpha" type="matrix" values="0 0 0 0 0 0 0 0 0 0 0 0 0 0 0 0 0 0 127 0" result="hardAlpha"/>
<feOffset/>
<feGaussianBlur stdDeviation="2"/>
<feComposite in2="hardAlpha" operator="out"/>
<feColorMatrix type="matrix" values="0 0 0 0 0.00784314 0 0 0 0 0.6 0 0 0 0 0.403922 0 0 0 1 0"/>
<feBlend mode="normal" in2="BackgroundImageFix" result="effect1_dropShadow_2_610"/>
<feBlend mode="normal" in="SourceGraphic" in2="effect1_dropShadow_2_610" result="shape"/>
</filter>
</defs>
</svg>
