<svg width="109" height="108" viewBox="0 0 109 108" fill="none" xmlns="http://www.w3.org/2000/svg">
<g filter="url(#filter0_d_2_573)">
<rect x="4.25977" y="4" width="100" height="100" rx="50" fill="white" shape-rendering="crispEdges"/>
<path d="M47.5502 48.731C47.1243 48.111 46.5316 47.6244 45.8407 47.3274C45.1497 47.0303 44.3888 46.935 43.6459 47.0525C42.903 47.17 42.2086 47.4955 41.6431 47.9913C41.0775 48.4871 40.6639 49.1329 40.4502 49.854" stroke="#029967" stroke-width="2" stroke-miterlimit="10" stroke-linecap="square"/>
<path d="M60.9697 48.731C61.3956 48.1111 61.9883 47.6244 62.6792 47.3274C63.3702 47.0303 64.1312 46.9351 64.874 47.0526C65.6169 47.1701 66.3113 47.4955 66.8768 47.9913C67.4424 48.4871 67.856 49.1329 68.0697 49.854" stroke="#029967" stroke-width="2" stroke-miterlimit="10" stroke-linecap="square"/>
<path d="M54.2598 69C56.6467 69 58.9359 68.0518 60.6237 66.364C62.3116 64.6761 63.2598 62.3869 63.2598 60H45.2598C45.2598 62.3869 46.208 64.6761 47.8958 66.364C49.5836 68.0518 51.8728 69 54.2598 69Z" stroke="#029967" stroke-width="2" stroke-miterlimit="10" stroke-linecap="square"/>
<path d="M78.2598 46C77.8098 46.003 77.3616 46.057 76.9238 46.161C75.298 41.4434 72.2406 37.3506 68.1779 34.4535C64.1152 31.5564 59.2496 29.9992 54.2597 29.9992C49.2698 29.9992 44.4043 31.5564 40.3416 34.4535C36.2789 37.3506 33.2215 41.4434 31.5957 46.161C30.7701 45.9659 29.9124 45.9481 29.0794 46.1088C28.2463 46.2695 27.4568 46.605 26.763 47.0932C26.0692 47.5815 25.4867 48.2113 25.0542 48.9411C24.6216 49.671 24.3488 50.4843 24.2537 51.3273C24.1585 52.1704 24.2433 53.024 24.5023 53.8319C24.7613 54.6398 25.1887 55.3836 25.7563 56.0142C26.3239 56.6448 27.0187 57.1478 27.795 57.4901C28.5713 57.8324 29.4114 58.0062 30.2597 58C30.3807 58 30.4947 57.971 30.6137 57.964C31.5452 63.5626 34.4328 68.649 38.7628 72.3182C43.0928 75.9873 48.5842 78.0011 54.2597 78.0011C59.9353 78.0011 65.4267 75.9873 69.7567 72.3182C74.0867 68.649 76.9743 63.5626 77.9058 57.964C78.0248 57.971 78.1388 58 78.2598 58C79.851 58 81.3772 57.3679 82.5024 56.2426C83.6276 55.1174 84.2598 53.5913 84.2598 52C84.2598 50.4087 83.6276 48.8826 82.5024 47.7574C81.3772 46.6321 79.851 46 78.2598 46Z" stroke="#029967" stroke-width="2" stroke-miterlimit="10" stroke-linecap="square"/>
<path d="M54.2598 30C53.4376 30.0002 52.6282 30.2031 51.9031 30.5907C51.1781 30.9784 50.5598 31.5389 50.1031 32.2226C49.6464 32.9063 49.3653 33.692 49.2848 34.5102C49.2043 35.3285 49.3267 36.1539 49.6414 36.9135C49.9561 37.6731 50.4532 38.3434 51.0887 38.865C51.7243 39.3866 52.4787 39.7434 53.285 39.9039C54.0914 40.0643 54.9249 40.0234 55.7117 39.7848C56.4985 39.5462 57.2144 39.1173 57.7958 38.536" stroke="#029967" stroke-width="2" stroke-miterlimit="10"/>
</g>
<defs>
<filter id="filter0_d_2_573" x="0.259766" y="0" width="108" height="108" filterUnits="userSpaceOnUse" color-interpolation-filters="sRGB">
<feFlood flood-opacity="0" result="BackgroundImageFix"/>
<feColorMatrix in="SourceAlpha" type="matrix" values="0 0 0 0 0 0 0 0 0 0 0 0 0 0 0 0 0 0 127 0" result="hardAlpha"/>
<feOffset/>
<feGaussianBlur stdDeviation="2"/>
<feComposite in2="hardAlpha" operator="out"/>
<feColorMatrix type="matrix" values="0 0 0 0 0.00784314 0 0 0 0 0.6 0 0 0 0 0.403922 0 0 0 1 0"/>
<feBlend mode="normal" in2="BackgroundImageFix" result="effect1_dropShadow_2_573"/>
<feBlend mode="normal" in="SourceGraphic" in2="effect1_dropShadow_2_573" result="shape"/>
</filter>
</defs>
</svg>
