<svg width="109" height="109" viewBox="0 0 109 109" fill="none" xmlns="http://www.w3.org/2000/svg">
<g filter="url(#filter0_d_2_721)">
<rect x="3" y="3" width="103" height="103" rx="50" fill="white" shape-rendering="crispEdges"/>
<path d="M54.5 58.5C56.7091 58.5 58.5 56.7091 58.5 54.5C58.5 52.2909 56.7091 50.5 54.5 50.5C52.2909 50.5 50.5 52.2909 50.5 54.5C50.5 56.7091 52.2909 58.5 54.5 58.5Z" fill="#029967"/>
<path d="M36.5 58.5C38.7091 58.5 40.5 56.7091 40.5 54.5C40.5 52.2909 38.7091 50.5 36.5 50.5C34.2909 50.5 32.5 52.2909 32.5 54.5C32.5 56.7091 34.2909 58.5 36.5 58.5Z" fill="#029967"/>
<path d="M72.5 58.5C74.7091 58.5 76.5 56.7091 76.5 54.5C76.5 52.2909 74.7091 50.5 72.5 50.5C70.2909 50.5 68.5 52.2909 68.5 54.5C68.5 56.7091 70.2909 58.5 72.5 58.5Z" fill="#029967"/>
</g>
<defs>
<filter id="filter0_d_2_721" x="0" y="0" width="109" height="109" filterUnits="userSpaceOnUse" color-interpolation-filters="sRGB">
<feFlood flood-opacity="0" result="BackgroundImageFix"/>
<feColorMatrix in="SourceAlpha" type="matrix" values="0 0 0 0 0 0 0 0 0 0 0 0 0 0 0 0 0 0 127 0" result="hardAlpha"/>
<feOffset/>
<feGaussianBlur stdDeviation="1.5"/>
<feComposite in2="hardAlpha" operator="out"/>
<feColorMatrix type="matrix" values="0 0 0 0 0.00784314 0 0 0 0 0.6 0 0 0 0 0.403922 0 0 0 1 0"/>
<feBlend mode="normal" in2="BackgroundImageFix" result="effect1_dropShadow_2_721"/>
<feBlend mode="normal" in="SourceGraphic" in2="effect1_dropShadow_2_721" result="shape"/>
</filter>
</defs>
</svg>
