<svg width="109" height="108" viewBox="0 0 109 108" fill="none" xmlns="http://www.w3.org/2000/svg">
<g filter="url(#filter0_d_2_585)">
<rect x="4.26953" y="4" width="100" height="100" rx="50" fill="white" shape-rendering="crispEdges"/>
<path d="M80.2695 35.8C80.2695 31.6 76.8695 28 72.4695 28C70.2695 28 65.6695 29.3 61.6695 30.6C59.2695 31.4 56.7695 31.8 54.2695 31.8C51.7695 31.8 49.2695 31.4 46.8695 30.6C42.8695 29.3 38.2695 28 36.0695 28C31.6695 28 28.2695 31.6 28.2695 35.8C28.2695 40 30.8695 48.8 30.8695 48.8L28.2695 75C28.2695 77.7 30.4695 80 33.2695 80C35.0695 80 36.4695 78.8 37.5695 77.5L47.5695 65.6C49.3695 63.4 51.6695 61.7 54.2695 61.7C56.8695 61.7 59.0695 63.3 60.9695 65.6L70.9695 77.5C71.9695 78.8 73.4695 80 75.2695 80C77.9695 80 80.2695 77.8 80.2695 75L77.6695 48.8C77.6695 48.8 80.2695 40 80.2695 35.8Z" stroke="#029967" stroke-width="2" stroke-miterlimit="10" stroke-linecap="square"/>
<path d="M46.4697 41.3C49.0697 41.9 51.6697 42.2 54.2697 42.2C56.8697 42.2 59.5697 41.9 62.0697 41.3" stroke="#029967" stroke-width="2" stroke-miterlimit="10" stroke-linecap="square"/>
</g>
<defs>
<filter id="filter0_d_2_585" x="0.269531" y="0" width="108" height="108" filterUnits="userSpaceOnUse" color-interpolation-filters="sRGB">
<feFlood flood-opacity="0" result="BackgroundImageFix"/>
<feColorMatrix in="SourceAlpha" type="matrix" values="0 0 0 0 0 0 0 0 0 0 0 0 0 0 0 0 0 0 127 0" result="hardAlpha"/>
<feOffset/>
<feGaussianBlur stdDeviation="2"/>
<feComposite in2="hardAlpha" operator="out"/>
<feColorMatrix type="matrix" values="0 0 0 0 0.00784314 0 0 0 0 0.6 0 0 0 0 0.403922 0 0 0 1 0"/>
<feBlend mode="normal" in2="BackgroundImageFix" result="effect1_dropShadow_2_585"/>
<feBlend mode="normal" in="SourceGraphic" in2="effect1_dropShadow_2_585" result="shape"/>
</filter>
</defs>
</svg>
