<svg width="109" height="109" viewBox="0 0 109 109" fill="none" xmlns="http://www.w3.org/2000/svg">
<g filter="url(#filter0_d_2_665)">
<rect x="3" y="3" width="103" height="103" rx="50" fill="white" shape-rendering="crispEdges"/>
<path d="M58.9209 57.5H72.4999C73.826 57.5 75.0977 58.0268 76.0354 58.9645C76.9731 59.9021 77.4999 61.1739 77.4999 62.5V75.5" stroke="#029967" stroke-width="2" stroke-miterlimit="10"/>
<path d="M41.956 49.69L38.5 25.5H30.5" stroke="#029967" stroke-width="2" stroke-miterlimit="10"/>
<path d="M40.7861 41.5H67.5001C68.8262 41.5 70.098 42.0268 71.0357 42.9645C71.9733 43.9021 72.5001 45.1739 72.5001 46.5V57.5" stroke="#029967" stroke-width="2" stroke-miterlimit="10"/>
<path d="M44.5 83.5C53.8888 83.5 61.5 75.8888 61.5 66.5C61.5 57.1112 53.8888 49.5 44.5 49.5C35.1112 49.5 27.5 57.1112 27.5 66.5C27.5 75.8888 35.1112 83.5 44.5 83.5Z" stroke="#029967" stroke-width="2" stroke-miterlimit="10" stroke-linecap="square"/>
<path d="M44.5 70.5C46.7091 70.5 48.5 68.7091 48.5 66.5C48.5 64.2909 46.7091 62.5 44.5 62.5C42.2909 62.5 40.5 64.2909 40.5 66.5C40.5 68.7091 42.2909 70.5 44.5 70.5Z" stroke="#029967" stroke-width="2" stroke-miterlimit="10" stroke-linecap="square"/>
<path d="M77.5 83.5C79.7091 83.5 81.5 81.7091 81.5 79.5C81.5 77.2909 79.7091 75.5 77.5 75.5C75.2909 75.5 73.5 77.2909 73.5 79.5C73.5 81.7091 75.2909 83.5 77.5 83.5Z" stroke="#029967" stroke-width="2" stroke-miterlimit="10" stroke-linecap="square"/>
</g>
<defs>
<filter id="filter0_d_2_665" x="0" y="0" width="109" height="109" filterUnits="userSpaceOnUse" color-interpolation-filters="sRGB">
<feFlood flood-opacity="0" result="BackgroundImageFix"/>
<feColorMatrix in="SourceAlpha" type="matrix" values="0 0 0 0 0 0 0 0 0 0 0 0 0 0 0 0 0 0 127 0" result="hardAlpha"/>
<feOffset/>
<feGaussianBlur stdDeviation="1.5"/>
<feComposite in2="hardAlpha" operator="out"/>
<feColorMatrix type="matrix" values="0 0 0 0 0.00784314 0 0 0 0 0.6 0 0 0 0 0.403922 0 0 0 1 0"/>
<feBlend mode="normal" in2="BackgroundImageFix" result="effect1_dropShadow_2_665"/>
<feBlend mode="normal" in="SourceGraphic" in2="effect1_dropShadow_2_665" result="shape"/>
</filter>
</defs>
</svg>
