<svg width="488" height="438" viewBox="0 0 488 438" fill="none" xmlns="http://www.w3.org/2000/svg">
<g clip-path="url(#clip0_146_3817)">
<path d="M485.733 167.857C482.708 165.669 478.439 167.327 475.39 169.48C471.41 172.278 463.943 181.638 462.608 183.319C458.72 185.196 454.888 187.211 451.149 189.364C454.164 185.035 456.119 179.957 456.764 174.707C456.925 173.372 456.833 171.702 455.625 171.115C454.071 170.355 452.507 172.117 451.77 173.683C449.216 179.059 448.043 185.081 448.353 191.022C444.338 193.44 440.415 195.984 436.584 198.69C434.616 200.072 432.684 201.511 430.774 202.962C433.661 199.047 435.882 194.649 437.297 189.997C437.711 188.627 438.068 187.176 437.838 185.76C437.608 184.344 436.653 182.951 435.261 182.617C433.938 182.295 432.522 182.997 431.648 184.045C430.774 185.092 430.325 186.428 429.945 187.741C428.358 193.233 427.598 198.966 427.69 204.689C427.69 204.689 415.242 215.661 408.833 221.855C412.929 214.579 415.161 206.254 415.219 197.896C415.23 196.825 415.184 195.72 414.724 194.752C414.264 193.785 413.24 193.014 412.181 193.152C410.904 193.325 410.145 194.637 409.627 195.812C405.785 204.643 404.692 214.648 406.521 224.112C405.508 225.114 404.496 226.115 403.507 227.129C398.951 231.78 394.556 236.581 390.276 241.475C394.233 234.06 396.511 225.735 396.811 217.331C396.88 215.316 396.362 212.691 394.36 212.391C392.715 212.149 391.438 213.761 390.667 215.235C385.869 224.469 386.122 235.384 386.548 245.804C382.567 250.501 378.69 255.279 374.905 260.115C372.086 263.719 369.313 267.357 366.564 271.018C370.832 259.862 372.201 247.588 370.36 235.775C370.004 233.507 369.095 230.79 366.84 230.387C364.769 230.019 362.986 231.941 362.146 233.864C360.259 238.205 360.892 243.179 361.559 247.876C362.756 256.235 363.952 264.582 365.149 272.93C359.661 280.287 354.299 287.713 348.961 295.162L351.699 297.108C356.669 289.97 361.651 282.854 366.736 275.82C378.552 275.727 390.345 274.449 401.907 272.009C404.692 271.421 407.591 270.708 409.754 268.842C411.917 266.989 413.044 263.615 411.549 261.197C409.926 258.595 406.291 258.273 403.23 258.492C390.46 259.39 378.092 264.767 368.554 273.298C371.361 269.441 374.203 265.607 377.091 261.808C380.22 257.686 383.407 253.621 386.675 249.603C391.714 249.845 409.121 250.593 416.68 249.799C418.36 249.626 420.097 249.384 421.558 248.544C423.019 247.692 424.17 246.08 423.986 244.399C423.813 242.902 422.617 241.67 421.236 241.072C419.855 240.461 418.314 240.381 416.806 240.369C406.728 240.312 397.075 241.751 388.838 246.967C394.038 240.669 399.411 234.532 405.037 228.625C405.934 227.681 406.855 226.749 407.763 225.816C414.908 228.499 422.525 229.892 430.164 229.903C431.959 229.903 434.018 229.696 435.031 228.222C436.008 226.806 435.502 224.745 434.306 223.513C433.098 222.281 431.383 221.717 429.704 221.337C422.812 219.794 415.38 220.9 409.225 224.342C415.357 218.183 421.777 212.322 428.53 206.853C433.707 209.789 439.448 211.689 445.351 212.403C447.744 212.691 450.954 212.184 451.322 209.801C451.632 207.774 449.492 206.266 447.571 205.541C442.21 203.514 436.181 203.388 430.728 205.092C432.948 203.33 435.215 201.614 437.504 199.945C441.404 197.113 445.408 194.43 449.504 191.909C451.655 193.417 457.845 197.734 460.998 199.519C462.654 200.463 464.829 201.373 466.324 200.198C467.452 199.312 467.567 197.562 466.911 196.295C466.255 195.029 465.024 194.165 463.77 193.486C460.25 191.609 455.21 190.607 450.965 191.022C455.176 188.477 459.49 186.106 463.908 183.941C469.638 185.115 475.759 184.333 481.005 181.719C483.64 180.406 486.136 178.53 487.356 175.859C488.564 173.164 488.115 169.584 485.733 167.857Z" fill="#D5E7F7"/>
<path d="M1.73726 313.872C4.61353 311.097 9.37664 312.214 12.9317 314.033C17.5683 316.405 26.8759 325.19 28.5441 326.767C32.9506 328.172 37.2995 329.726 41.5909 331.453C37.7482 327.32 34.9064 322.231 33.4453 316.773C33.0771 315.38 32.9161 313.607 34.1126 312.801C35.6428 311.765 37.5641 313.4 38.5881 314.943C42.0971 320.251 44.2486 326.456 44.8123 332.789C49.4259 334.746 53.9704 336.853 58.4228 339.144C60.7124 340.319 62.9789 341.551 65.2224 342.794C61.5752 339.087 58.5609 334.758 56.3634 330.037C55.7192 328.644 55.1209 327.17 55.1554 325.627C55.1899 324.096 55.9838 322.473 57.4104 321.908C58.768 321.367 60.3672 321.908 61.4487 322.887C62.5302 323.866 63.209 325.213 63.8072 326.537C66.3153 332.121 67.9836 338.074 68.7429 344.153C68.7429 344.153 83.573 353.905 91.2929 359.512C85.8625 352.419 82.2499 343.934 80.9383 335.092C80.7657 333.963 80.6392 332.777 80.9958 331.683C81.3525 330.59 82.3074 329.623 83.4464 329.611C84.827 329.6 85.828 330.878 86.5528 332.052C91.9487 340.837 94.6064 351.268 94.0886 361.561C95.3082 362.471 96.5277 363.38 97.7357 364.302C103.258 368.539 108.631 372.971 113.9 377.519C108.597 370.254 104.938 361.78 103.362 352.926C102.982 350.796 103.143 347.941 105.214 347.33C106.917 346.824 108.516 348.344 109.551 349.783C116.017 358.844 117.386 370.45 118.491 381.537C123.404 385.913 128.236 390.391 132.964 394.951C136.496 398.347 139.982 401.79 143.434 405.255C137.233 394.076 133.954 381.284 134.126 368.492C134.161 366.04 134.725 363.023 137.049 362.252C139.189 361.561 141.375 363.311 142.548 365.234C145.206 369.552 145.275 374.917 145.275 379.983C145.263 389.01 145.24 398.036 145.229 407.051C152.143 414.017 158.931 421.087 165.708 428.167L163.096 430.643C156.757 423.838 150.418 417.045 143.975 410.344C131.446 412.014 118.767 412.44 106.146 411.588C103.109 411.381 99.9332 411.058 97.3676 409.412C94.8019 407.765 93.0877 404.369 94.3187 401.583C95.6418 398.577 99.45 397.702 102.717 397.472C116.386 396.517 130.295 400.351 141.662 407.961C138.107 404.288 134.529 400.65 130.905 397.069C126.97 393.178 122.978 389.344 118.928 385.579C113.636 386.592 95.3082 389.988 87.1741 390.299C85.3678 390.368 83.4924 390.38 81.8127 389.7C80.133 389.021 78.6718 387.49 78.6258 385.671C78.5798 384.059 79.6612 382.574 81.0304 381.733C82.3995 380.881 84.0217 380.559 85.6209 380.328C96.2861 378.751 106.721 378.82 116.236 383.115C109.793 377.231 103.166 371.532 96.3206 366.121C95.2276 365.257 94.1231 364.405 93.0072 363.553C85.8395 367.468 77.9815 370.093 69.8934 371.244C67.9951 371.521 65.7861 371.601 64.486 370.196C63.232 368.838 63.4621 366.581 64.5436 365.096C65.6365 363.611 67.3738 362.747 69.0881 362.102C76.1522 359.443 84.1943 359.489 91.2354 362.206C83.8261 356.599 76.1292 351.36 68.1677 346.571C63.1284 350.451 57.3184 353.341 51.1746 354.975C48.678 355.643 45.2035 355.586 44.4672 353.122C43.8344 351.015 45.8823 349.104 47.8036 348.044C53.1765 345.097 59.5388 344.049 65.579 345.039C62.9559 343.508 60.3097 342.023 57.629 340.595C53.073 338.177 48.4364 335.944 43.7078 333.883C41.6599 335.805 35.7463 341.309 32.6745 343.669C31.0522 344.913 28.8893 346.214 27.129 345.189C25.8059 344.429 25.4262 342.587 25.921 341.136C26.4157 339.697 27.6007 338.592 28.8318 337.694C32.2833 335.172 37.4721 333.364 42.0281 333.169C37.1844 331.108 32.2603 329.243 27.2556 327.608C21.3649 329.715 14.761 329.807 8.81289 327.826C5.83307 326.836 2.89928 325.224 1.20803 322.565C-0.460212 319.917 -0.517737 316.06 1.73726 313.872Z" fill="#D5E7F7"/>
<path d="M429.232 92.2123C426.01 91.1186 422.731 93.7091 420.649 96.4033C417.934 99.9149 413.919 110.081 413.217 111.901C410.329 114.583 407.533 117.358 404.841 120.259C406.314 115.666 406.659 110.715 405.819 105.971C405.6 104.762 405.083 103.334 403.863 103.139C402.31 102.897 401.413 104.854 401.182 106.42C400.4 111.797 400.987 117.358 402.851 122.459C399.997 125.636 397.259 128.918 394.648 132.303C393.301 134.041 392.001 135.814 390.724 137.587C392.197 133.396 392.956 128.964 392.945 124.519C392.945 123.207 392.864 121.86 392.277 120.685C391.691 119.511 390.494 118.555 389.183 118.636C387.94 118.717 386.905 119.707 386.41 120.858C385.927 122.01 385.892 123.288 385.915 124.531C386.007 129.747 386.87 134.962 388.492 139.925C388.492 139.925 380.577 152.843 376.642 159.958C378.264 152.509 377.977 144.645 375.791 137.346C375.515 136.413 375.181 135.457 374.514 134.744C373.846 134.03 372.753 133.627 371.867 134.03C370.797 134.513 370.487 135.872 370.349 137.035C369.359 145.774 371.085 154.8 375.227 162.56C374.617 163.7 373.996 164.852 373.409 166.003C370.682 171.276 368.128 176.653 365.724 182.076C367.185 174.546 366.943 166.671 364.953 159.256C364.47 157.471 363.319 155.33 361.49 155.606C359.994 155.836 359.304 157.587 359.039 159.072C357.337 168.409 360.477 177.873 363.641 186.843C361.432 192.001 359.327 197.216 357.325 202.455C355.829 206.358 354.391 210.273 352.976 214.21C353.712 203.33 351.607 192.254 346.832 182.444C345.912 180.568 344.393 178.438 342.311 178.691C340.413 178.933 339.366 181.086 339.147 182.985C338.664 187.28 340.551 191.448 342.391 195.363C345.67 202.328 348.961 209.294 352.24 216.248C349.433 224.135 346.74 232.056 344.083 239.978L346.993 240.933C349.421 233.38 351.86 225.828 354.403 218.321C364.677 215.062 374.629 210.779 384.063 205.564C386.341 204.297 388.676 202.904 390.057 200.693C391.438 198.494 391.53 195.247 389.574 193.543C387.468 191.701 384.201 192.404 381.601 193.417C370.705 197.631 361.352 205.644 355.323 215.65C356.738 211.528 358.188 207.417 359.684 203.33C361.306 198.897 362.997 194.488 364.769 190.112C369.221 188.973 384.615 184.943 390.989 182.237C392.416 181.627 393.854 180.959 394.912 179.831C395.959 178.702 396.534 176.987 395.913 175.571C395.361 174.316 393.992 173.556 392.623 173.406C391.254 173.245 389.884 173.59 388.573 173.982C379.771 176.641 371.729 180.476 365.942 187.246C368.784 180.36 371.833 173.556 375.158 166.901C375.687 165.842 376.239 164.783 376.78 163.723C383.729 164.149 390.759 163.32 397.409 161.282C398.973 160.799 400.711 160.062 401.205 158.508C401.677 157.011 400.688 155.341 399.307 154.593C397.927 153.845 396.27 153.81 394.705 153.925C388.285 154.432 382.095 157.391 377.643 162.042C381.336 155.019 385.374 148.18 389.792 141.594C395.096 142.757 400.619 142.884 405.957 141.917C408.12 141.525 410.789 140.224 410.467 138.048C410.191 136.194 407.924 135.457 406.049 135.342C400.837 135.02 395.545 136.517 391.231 139.476C392.703 137.346 394.21 135.239 395.764 133.166C398.398 129.655 401.182 126.235 404.082 122.931C406.36 123.667 412.918 125.774 416.139 126.477C417.842 126.857 419.982 127.064 420.971 125.636C421.719 124.566 421.339 123 420.43 122.067C419.522 121.134 418.21 120.708 416.933 120.467C413.355 119.776 408.695 120.259 405.106 121.756C408.097 118.406 411.226 115.182 414.494 112.096C419.809 111.578 424.94 109.252 428.806 105.568C430.751 103.714 432.43 101.412 432.775 98.7521C433.121 96.0809 431.774 93.0759 429.232 92.2123Z" fill="#D5E7F7"/>
<path d="M466.9 302.98H318.012V408.502H466.9V302.98Z" fill="#029967"/>
<path d="M465.335 331.994H318.012V335.748H465.335V331.994Z" fill="white"/>
<path d="M414.977 302.992H411.974V296.786C411.974 294.644 410.237 292.906 408.097 292.906H376.792C374.652 292.906 372.914 294.644 372.914 296.786V302.992H369.912V296.786C369.912 292.998 372.995 289.912 376.78 289.912H408.097C411.882 289.912 414.966 292.998 414.966 296.786V302.992H414.977Z" fill="#7DAAC6"/>
<path d="M391.668 380.374C399.769 380.374 406.337 373.802 406.337 365.695C406.337 357.587 399.769 351.015 391.668 351.015C383.567 351.015 376.999 357.587 376.999 365.695C376.999 373.802 383.567 380.374 391.668 380.374Z" fill="#02603E"/>
<path d="M398.456 364.071H393.29V358.913H390.046V364.071H384.892V367.318H390.046V372.488H393.29V367.318H398.456V364.071Z" fill="white"/>
<path d="M191.847 20.6669H57.3986C53.9585 20.6669 51.1743 23.4532 51.1743 26.8957V216.271C51.1743 219.714 53.9585 222.5 57.3986 222.5H191.847C195.287 222.5 198.071 219.714 198.071 216.271V26.8957C198.083 23.4532 195.287 20.6669 191.847 20.6669Z" fill="#D5E7F7"/>
<path d="M189.688 214.095L189.688 29.0598L59.5769 29.0598L59.5769 214.095L189.688 214.095Z" fill="white"/>
<path d="M177.966 197.436L177.966 33.1603L71.2906 33.1603L71.2906 197.436L177.966 197.436Z" fill="white"/>
<path d="M139.453 12.2965C137.417 6.04463 131.549 1.51979 124.623 1.51979C117.697 1.51979 111.829 6.04463 109.793 12.2965H85.8047V39.0656H163.441V12.2965H139.453Z" fill="#D5E7F7"/>
<path d="M164.35 96.8984H84.8955V99.7307H164.35V96.8984Z" fill="#D5E7F7"/>
<path d="M164.35 111.567H84.8955V114.399H164.35V111.567Z" fill="#D5E7F7"/>
<path d="M164.35 126.235H84.8955V129.067H164.35V126.235Z" fill="#D5E7F7"/>
<path d="M164.35 140.903H84.8955V143.736H164.35V140.903Z" fill="#D5E7F7"/>
<path d="M164.35 155.572H84.8955V158.404H164.35V155.572Z" fill="#D5E7F7"/>
<path d="M146.402 170.24H107.457V173.072H146.402V170.24Z" fill="#D5E7F7"/>
<path d="M116.385 55.4379H86.3452V85.4999H116.385V55.4379Z" fill="#D5E7F7"/>
<path d="M90.1189 222.258L75.726 228.74L65.4404 240.243L106.594 331.73L146.689 313.676L105.536 222.189L90.1189 222.258Z" fill="#E8F2F9"/>
<path d="M122.809 280.848L97.9019 292.068L133.403 370.991L158.31 359.771L122.809 280.848Z" fill="#D5E7F7"/>
<g opacity="0.22">
<path d="M122.806 280.844L118.126 282.952L153.628 361.875L158.307 359.767L122.806 280.844Z" fill="#A8C6DD"/>
</g>
<g opacity="0.29">
<path d="M156.378 355.569L131.471 366.786L133.364 370.996L158.271 359.779L156.378 355.569Z" fill="#A8C6DD"/>
</g>
<path d="M172.91 358.441C173.991 360.859 172.921 363.691 170.505 364.785L129.018 383.472C126.602 384.554 123.771 383.483 122.678 381.065C121.597 378.647 122.667 375.815 125.083 374.721L166.57 356.035C168.986 354.941 171.828 356.023 172.91 358.441Z" fill="#A8C6DD"/>
<path d="M87.9268 217.391L73.543 223.871L75.7391 228.753L90.1229 222.273L87.9268 217.391Z" fill="#A8C6DD"/>
<path d="M75.6455 217.607L77.6359 222.017L83.8256 219.23L81.8352 214.821" fill="#A8C6DD"/>
<path d="M83.169 217.746L76.979 220.534L77.6449 222.015L83.8349 219.226L83.169 217.746Z" fill="#7DAAC6"/>
<path d="M79.2467 215.983L31.7307 110.323L30.7183 110.784L78.2343 216.444" fill="#A8C6DD"/>
<path d="M155.331 309.735L97.8799 335.61L101.346 343.317L158.797 317.442L155.331 309.735Z" fill="#A8C6DD"/>
<path d="M157.655 314.881L100.204 340.756L101.351 343.307L158.802 317.432L157.655 314.881Z" fill="#7DAAC6"/>
<path d="M83.4969 236.403L73.0894 241.091L73.6041 242.236L84.0117 237.547L83.4969 236.403Z" fill="#A8C6DD"/>
<path d="M80.1875 244.388L75.5083 246.495L76.0231 247.64L80.7023 245.532L80.1875 244.388Z" fill="#A8C6DD"/>
<path d="M82.6128 249.776L77.9336 251.884L78.4484 253.029L83.1276 250.921L82.6128 249.776Z" fill="#A8C6DD"/>
<path d="M85.0337 255.169L80.3545 257.276L80.8692 258.421L85.5484 256.313L85.0337 255.169Z" fill="#A8C6DD"/>
<path d="M87.4585 260.557L82.7793 262.665L83.294 263.809L87.9732 261.701L87.4585 260.557Z" fill="#A8C6DD"/>
<path d="M95.618 263.389L85.2104 268.078L85.7252 269.222L96.1328 264.533L95.618 263.389Z" fill="#A8C6DD"/>
<path d="M92.3223 271.351L87.6431 273.459L88.1579 274.604L92.8371 272.496L92.3223 271.351Z" fill="#A8C6DD"/>
<path d="M94.7505 276.736L90.0713 278.843L90.586 279.988L95.2652 277.88L94.7505 276.736Z" fill="#A8C6DD"/>
<path d="M97.1719 282.142L92.4927 284.25L93.0073 285.394L97.6865 283.287L97.1719 282.142Z" fill="#A8C6DD"/>
<path d="M99.6069 287.538L94.9277 289.646L95.4425 290.791L100.122 288.683L99.6069 287.538Z" fill="#A8C6DD"/>
<path d="M107.757 290.364L97.3491 295.053L97.8639 296.197L108.271 291.509L107.757 290.364Z" fill="#A8C6DD"/>
<path d="M104.462 298.326L99.7827 300.434L100.298 301.578L104.977 299.47L104.462 298.326Z" fill="#A8C6DD"/>
<path d="M106.88 303.712L102.201 305.82L102.716 306.964L107.395 304.857L106.88 303.712Z" fill="#A8C6DD"/>
<path d="M109.307 309.117L104.628 311.225L105.143 312.369L109.822 310.261L109.307 309.117Z" fill="#A8C6DD"/>
<path d="M111.715 314.519L107.036 316.626L107.55 317.77L112.23 315.663L111.715 314.519Z" fill="#A8C6DD"/>
<path d="M119.89 317.323L109.483 322.012L109.998 323.156L120.405 318.468L119.89 317.323Z" fill="#A8C6DD"/>
<path d="M122.893 260.812L82.7944 278.871L90.2736 295.502L130.372 277.442L122.893 260.812Z" fill="#A8C6DD"/>
<path d="M125.765 267.121L85.666 285.185L87.6779 289.657L127.776 271.593L125.765 267.121Z" fill="#7DAAC6"/>
<path d="M226.443 271.617L226.673 278.64L226.432 271.617H226.443Z" fill="#DEF4F9"/>
<path d="M64.6468 289.889C64.6468 291.547 63.3007 292.894 61.6439 292.894C59.9872 292.894 58.6411 291.547 58.6411 289.889C58.6411 288.231 59.9872 286.884 61.6439 286.884C63.3007 286.896 64.6468 288.231 64.6468 289.889Z" fill="#D5E7F7"/>
<path d="M41.9012 238.769C41.9012 241.544 39.6462 243.8 36.8734 243.8C34.1007 243.8 31.8457 241.544 31.8457 238.769C31.8457 235.994 34.1007 233.737 36.8734 233.737C39.6462 233.737 41.9012 235.994 41.9012 238.769Z" fill="#D5E7F7"/>
<path d="M241.757 25.5717C241.757 28.3349 239.513 30.5801 236.752 30.5801C233.991 30.5801 231.747 28.3349 231.747 25.5717C231.747 22.8084 233.991 20.5633 236.752 20.5633C239.513 20.5633 241.757 22.8084 241.757 25.5717Z" fill="#D5E7F7"/>
<path d="M457.304 121.572C457.304 123.817 455.486 125.636 453.243 125.636C450.999 125.636 449.182 123.817 449.182 121.572C449.182 119.327 450.999 117.508 453.243 117.508C455.486 117.519 457.304 119.338 457.304 121.572Z" fill="#D5E7F7"/>
<path d="M457.12 41.967C457.12 45.5593 454.21 48.4722 450.62 48.4722C447.03 48.4722 444.12 45.5593 444.12 41.967C444.12 38.3748 447.03 35.4619 450.62 35.4619C454.21 35.4619 457.12 38.3748 457.12 41.967Z" fill="#D5E7F7"/>
<path d="M447.721 280.966C447.721 284.167 445.132 286.769 441.922 286.769C438.724 286.769 436.124 284.178 436.124 280.966C436.124 277.754 438.712 275.163 441.922 275.163C445.132 275.175 447.721 277.765 447.721 280.966Z" fill="#D5E7F7"/>
<path d="M452.783 237.238C452.783 238.792 451.517 240.058 449.964 240.058C448.411 240.058 447.146 238.792 447.146 237.238C447.146 235.683 448.411 234.417 449.964 234.417C451.517 234.417 452.783 235.683 452.783 237.238Z" fill="#D5E7F7"/>
<path d="M368.681 430.885C371.298 430.885 373.421 428.761 373.421 426.141C373.421 423.521 371.298 421.397 368.681 421.397C366.063 421.397 363.94 423.521 363.94 426.141C363.94 428.761 366.063 430.885 368.681 430.885Z" fill="#D5E7F7"/>
<path d="M381.325 6.33247C383.072 6.33247 384.488 4.9149 384.488 3.16624C384.488 1.41757 383.072 0 381.325 0C379.577 0 378.161 1.41757 378.161 3.16624C378.161 4.9149 379.577 6.33247 381.325 6.33247Z" fill="#D5E7F7"/>
<path d="M414.505 170.781C415.814 170.781 416.875 169.719 416.875 168.409C416.875 167.099 415.814 166.037 414.505 166.037C413.196 166.037 412.135 167.099 412.135 168.409C412.135 169.719 413.196 170.781 414.505 170.781Z" fill="#D5E7F7"/>
<path d="M31.3398 73.5373C32.6487 73.5373 33.7098 72.4754 33.7098 71.1655C33.7098 69.8556 32.6487 68.7937 31.3398 68.7937C30.0308 68.7937 28.9697 69.8556 28.9697 71.1655C28.9697 72.4754 30.0308 73.5373 31.3398 73.5373Z" fill="#D5E7F7"/>
<path d="M338.733 48.5068H303.216H199.21H163.683C153.064 48.5068 144.469 57.1189 144.469 67.7345V418.772C144.469 429.399 153.075 438 163.683 438H338.733C349.352 438 357.946 429.388 357.946 418.772V67.7345C357.946 57.1189 349.34 48.5068 338.733 48.5068Z" fill="#354793"/>
<path d="M323.719 48.5068H288.202H184.196H148.669C138.049 48.5068 129.455 57.1189 129.455 67.7345V418.772C129.455 429.399 138.061 438 148.669 438H323.719C334.338 438 342.932 429.388 342.932 418.772V67.7345C342.932 57.1189 334.338 48.5068 323.719 48.5068Z" fill="#354793"/>
<path d="M337.467 418.772C337.467 426.371 331.312 432.531 323.718 432.531H148.669C141.11 432.531 134.92 426.337 134.92 418.772V67.7345C134.92 60.1355 141.075 53.9757 148.669 53.9757H179.238C184.116 53.9757 188.614 56.6469 190.95 60.9414L193.78 66.1571C195.414 69.1621 198.555 71.0273 201.972 71.0273H270.427C273.844 71.0273 276.985 69.1621 278.619 66.1571L281.449 60.9529C283.784 56.6584 288.271 53.9872 293.161 53.9872H323.73C331.323 53.9872 337.479 60.147 337.479 67.746V418.772H337.467Z" fill="#D5E7F7"/>
<path d="M337.674 7.92136L277.503 36.1297C277.503 36.1297 271.635 116.805 337.87 144.438C407.66 121.768 413.182 34.5408 413.182 34.5408L337.674 7.92136Z" fill="url(#paint0_linear_146_3817)"/>
<path d="M337.467 7.92136L270.657 36.1297C270.657 36.1297 271.232 116.598 337.467 144.219C403.702 116.587 404.277 36.1297 404.277 36.1297L337.467 7.92136Z" fill="url(#paint1_linear_146_3817)"/>
<path d="M337.467 132.038C315.446 121.503 299.477 102.92 289.974 76.7381C285.084 63.2672 283.129 50.8555 282.346 43.3832L337.479 20.1142L392.611 43.3832C391.829 50.8555 389.873 63.2672 384.983 76.7381C375.457 102.92 359.488 121.491 337.467 132.038Z" fill="#029967"/>
<path d="M286.995 45.3981C287.501 50.2798 288.571 57.4643 290.757 65.6505C305.196 73.3646 321.682 77.7398 339.182 77.7398C355.105 77.7398 370.176 74.1245 383.637 67.6769C386.203 58.6502 387.4 50.6828 387.952 45.4096L337.479 24.0979L286.995 45.3981Z" fill="url(#paint2_linear_146_3817)"/>
<path opacity="0.21" d="M337.467 418.772V195.017L241.492 98.9708L216.998 316.255L267.7 432.531H323.719C331.312 432.531 337.467 426.371 337.467 418.772Z" fill="#7DAAC6"/>
<path d="M241.434 307.989H195.908L183.748 432.842H229.515C233.703 399.683 242.297 331.373 242.159 330.452L241.434 307.989Z" fill="url(#paint3_linear_146_3817)"/>
<path d="M278.389 307.989H225.776L236.464 432.842H283.278C283.37 399.683 283.531 331.373 283.221 330.452L278.389 307.989Z" fill="url(#paint4_linear_146_3817)"/>
<path d="M127.488 207.498L115.223 215.534C109.701 211.079 106.18 203.365 106.18 203.365C99.3002 190.112 111.473 188.57 112.761 190.538C114.061 192.496 120.435 204.689 119.538 200.348C118.64 195.996 120.47 191.575 121.988 194.292C123.185 196.399 126.211 204.159 127.488 207.498Z" fill="url(#paint5_linear_146_3817)"/>
<path d="M201.028 173.867V173.913C198.037 177.689 195.483 183.193 195 191.126C194.655 196.652 194.39 209.996 194.183 226.449C194.033 237.721 193.918 250.455 193.815 263.166C193.815 263.178 193.815 263.178 193.815 263.178C193.562 263.592 193.309 263.995 193.067 264.387C192.664 265.043 192.262 265.676 191.859 266.298C191.514 266.85 191.157 267.38 190.812 267.91C190.064 269.061 189.305 270.166 188.568 271.237C187.936 272.158 187.291 273.022 186.67 273.874C186.452 274.162 186.233 274.449 186.026 274.726C181.539 280.586 177.316 284.455 174.141 284.017C155.906 281.553 113.245 216.824 113.245 216.824L128.684 206.692L168.63 249.419L183.828 198.103C185.324 191.724 189.546 185.726 193.412 181.305C193.677 181.017 193.93 180.729 194.183 180.441C197.853 176.411 201.028 173.867 201.028 173.867Z" fill="white"/>
<path d="M219.551 173.648L212.085 166.153L210.255 312.456H233.841V256.27V234.417V161.812L219.551 173.648Z" fill="#029967"/>
<path d="M210.037 330.037L212.073 166.153C212.073 166.153 196.299 170.079 194.999 191.114C193.918 208.58 193.561 303.936 193.469 330.026H210.037V330.037Z" fill="white"/>
<path d="M233.841 277.339V330.049H285.832V267.161C303.516 263.408 318.369 259.781 318.656 258.135C319.818 251.514 293.357 182.041 289.456 178.403C285.568 174.765 233.829 161.812 233.829 161.812V256.281L226.006 259.044L226.65 278.652C226.662 278.64 229.365 278.157 233.841 277.339Z" fill="white"/>
<path d="M226.604 276.487C220.414 278.698 213.224 278.387 213.224 278.387C198.302 278.514 202.466 266.954 204.79 266.701C207.126 266.436 220.886 266.275 216.606 265.112C212.315 263.938 209.197 260.311 212.315 260.184C214.627 260.092 222.313 260.84 226.075 261.232L226.604 276.487Z" fill="url(#paint6_linear_146_3817)"/>
<path d="M288.524 268.911L248.429 286.032C247.117 286.596 245.61 285.986 245.047 284.674L223.221 233.484C222.658 232.172 223.267 230.663 224.579 230.099L264.674 212.978C265.986 212.414 267.493 213.024 268.057 214.337L289.882 265.526C290.434 266.839 289.824 268.359 288.524 268.911Z" fill="url(#paint7_linear_146_3817)"/>
<path d="M248.447 281.028L284.851 265.482L264.597 217.985L228.194 233.531L248.447 281.028Z" fill="#DEF4F9"/>
<path d="M249.119 216.755C248.717 216.928 248.233 216.835 247.957 216.49C246.519 214.74 244.057 214.061 241.86 214.993C239.662 215.926 238.454 218.183 238.719 220.428C238.765 220.865 238.5 221.28 238.097 221.452L230.688 224.619C230.17 224.837 229.929 225.448 230.147 225.966L233.001 232.655C233.219 233.173 233.829 233.415 234.347 233.196L260.187 222.166C260.705 221.947 260.947 221.337 260.728 220.819L257.875 214.13C257.656 213.612 257.046 213.37 256.529 213.589L249.119 216.755Z" fill="url(#paint8_linear_146_3817)"/>
<path d="M255.217 187.038C255.217 187.038 285.579 174.765 289.468 178.403C293.357 182.041 323.017 253.84 318.472 258.802C314.192 263.477 226.673 278.652 226.673 278.652L226.029 259.044L279.355 240.22L255.217 187.038Z" fill="white"/>
<path d="M279.378 240.427L271.002 198.563L267.114 213.22L279.378 240.427Z" fill="#E4EAEF"/>
<path d="M194.183 180.452V262.579C194.056 262.786 193.941 262.982 193.815 263.178C193.815 263.189 193.815 263.189 193.815 263.189C193.562 263.604 193.309 264.007 193.067 264.398C192.664 265.054 192.262 265.688 191.859 266.309C191.514 266.862 191.157 267.392 190.812 267.921C190.064 269.073 189.305 270.178 188.568 271.249C187.924 272.17 187.291 273.033 186.67 273.885C186.451 274.173 186.233 274.461 186.026 274.737C185.761 275.083 185.497 275.417 185.232 275.75L193.401 181.316C193.688 181.017 193.941 180.74 194.183 180.452Z" fill="#E4EAEF"/>
<path d="M208.369 220.082C212.264 220.082 215.421 216.922 215.421 213.024C215.421 209.127 212.264 205.967 208.369 205.967C204.473 205.967 201.316 209.127 201.316 213.024C201.316 216.922 204.473 220.082 208.369 220.082Z" fill="url(#paint9_linear_146_3817)"/>
<path d="M210.773 213.024C210.773 211.7 209.703 210.63 208.38 210.63C207.057 210.63 205.987 211.7 205.987 213.024C205.987 214.349 207.057 215.419 208.38 215.419C209.691 215.419 210.773 214.349 210.773 213.024Z" fill="white"/>
<path d="M237.948 203.721H237.741C236.993 203.721 236.383 204.332 236.383 205.08V208.177C236.383 208.926 236.993 209.536 237.741 209.536H237.948C238.696 209.536 239.306 208.926 239.306 208.177V205.08C239.306 204.343 238.696 203.721 237.948 203.721Z" fill="url(#paint10_linear_146_3817)"/>
<path d="M247.624 207.843V205.552C251.191 205.552 254.09 202.651 254.09 199.081V187.499C254.09 180.948 248.763 175.605 242.205 175.605C235.659 175.605 230.32 180.936 230.32 187.499V199.081C230.32 202.651 233.22 205.552 236.786 205.552V207.843C231.954 207.843 228.031 203.917 228.031 199.081V187.499C228.031 179.681 234.393 173.314 242.205 173.314C250.017 173.314 256.379 179.681 256.379 187.499V199.081C256.379 203.906 252.445 207.843 247.624 207.843Z" fill="url(#paint11_linear_146_3817)"/>
<path d="M246.462 203.721H246.669C247.417 203.721 248.027 204.332 248.027 205.08V208.177C248.027 208.926 247.417 209.536 246.669 209.536H246.462C245.714 209.536 245.104 208.926 245.104 208.177V205.08C245.104 204.343 245.714 203.721 246.462 203.721Z" fill="url(#paint12_linear_146_3817)"/>
<path d="M209.519 207.889H207.229V172.946C207.229 164.403 215.318 157.46 225.258 157.46C235.198 157.46 243.286 164.403 243.286 172.946V174.65H240.997V172.946C240.997 165.669 233.933 159.751 225.258 159.751C216.583 159.751 209.519 165.669 209.519 172.946V207.889Z" fill="url(#paint13_linear_146_3817)"/>
<path d="M233.841 149.251V138.888C234.186 138.934 237.442 139.245 238.489 134.03C239.881 126.983 237.73 120.662 232.253 126.465C232.253 126.465 230.93 126.005 228.215 120.018C227.536 118.544 225.845 117.784 224.303 118.302C218.482 120.248 204.583 123.978 194.367 119.672C194.367 119.672 194.367 119.684 194.367 119.695L194.332 119.672C194.332 119.672 189.27 118.958 185.876 115.677C177.788 107.836 184.242 91.4525 196.864 96.7602C196.864 96.7602 213.35 82.8058 228.353 95.2404C228.353 95.2404 240.422 94.1351 245.104 103.91C249.637 113.409 248.372 142.066 233.841 149.251Z" fill="#001767"/>
<path d="M233.841 138.888V161.812L219.552 173.648L212.073 166.164V155.986C213.166 156.17 214.317 156.274 215.548 156.274C233.346 156.274 233.818 138.888 233.818 138.888C233.818 138.888 233.829 138.888 233.841 138.888Z" fill="url(#paint14_linear_146_3817)"/>
<path d="M194.367 119.684C194.367 119.684 192.066 156.274 215.548 156.274C233.335 156.274 233.806 138.888 233.806 138.888C233.806 138.888 237.384 139.533 238.477 134.03C239.881 126.983 237.707 120.662 232.242 126.465C232.242 126.465 230.919 125.993 228.203 120.018C227.525 118.532 225.845 117.784 224.303 118.302C218.482 120.248 204.583 123.99 194.367 119.684Z" fill="url(#paint15_linear_146_3817)"/>
<path opacity="0.45" d="M212.073 158.358C216.411 159.463 225.661 160.995 233.829 156.976V138.888C233.818 138.888 233.806 138.888 233.806 138.888C233.806 138.888 233.335 156.274 215.536 156.274C214.305 156.274 213.155 156.17 212.073 155.986V158.358Z" fill="#F99338"/>
<path d="M209.082 143.862H206.585C205.815 143.862 205.193 143.241 205.193 142.469V134.191C205.193 133.869 205.458 133.604 205.78 133.604C206.102 133.604 206.367 133.869 206.367 134.191V142.469C206.367 142.596 206.47 142.699 206.597 142.699H209.094C209.416 142.699 209.68 142.964 209.68 143.287C209.669 143.598 209.404 143.862 209.082 143.862Z" fill="#112F60"/>
<path d="M208.956 150.517C208.231 150.517 207.517 150.321 206.896 149.953C206.62 149.792 206.528 149.435 206.689 149.147C206.85 148.871 207.218 148.779 207.494 148.94C207.943 149.205 208.449 149.343 208.967 149.343C210.578 149.343 211.878 148.03 211.878 146.418C211.878 146.096 212.143 145.831 212.465 145.831C212.787 145.831 213.051 146.096 213.051 146.418C213.051 148.675 211.211 150.517 208.956 150.517Z" fill="#112F60"/>
<path d="M213.546 132.349C214.378 132.349 215.053 131.632 215.053 130.748C215.053 129.864 214.378 129.148 213.546 129.148C212.713 129.148 212.039 129.864 212.039 130.748C212.039 131.632 212.713 132.349 213.546 132.349Z" fill="#001767"/>
<path d="M210.094 128.607C209.933 128.607 209.784 128.549 209.669 128.423C209.45 128.192 209.473 127.824 209.703 127.617C213.304 124.324 217.009 127.179 217.044 127.202C217.285 127.398 217.331 127.755 217.136 128.008C216.94 128.261 216.583 128.296 216.33 128.112C216.204 128.02 213.339 125.844 210.474 128.469C210.371 128.549 210.233 128.607 210.094 128.607Z" fill="#001767"/>
<path d="M200.89 132.349C201.723 132.349 202.398 131.632 202.398 130.748C202.398 129.864 201.723 129.148 200.89 129.148C200.058 129.148 199.383 129.864 199.383 130.748C199.383 131.632 200.058 132.349 200.89 132.349Z" fill="#001767"/>
<path d="M197.439 128.607C197.278 128.607 197.128 128.549 197.013 128.423C196.794 128.192 196.817 127.824 197.048 127.617C200.649 124.324 204.353 127.179 204.388 127.202C204.629 127.398 204.675 127.755 204.48 128.008C204.284 128.261 203.928 128.296 203.674 128.112C203.548 128.02 200.683 125.844 197.818 128.469C197.715 128.549 197.577 128.607 197.439 128.607Z" fill="#001767"/>
<path opacity="0.45" d="M209.703 151.438C209.703 151.438 210.405 151.312 211.003 150.989C211.728 150.598 212.384 150.022 212.51 150.506C212.752 151.369 211.049 152.912 209.703 151.438Z" fill="#F99338"/>
<path opacity="0.45" d="M228.204 120.029C227.525 118.544 225.845 117.796 224.303 118.314C218.482 120.248 204.584 123.99 194.367 119.684C202.283 127.847 224.591 121.779 224.591 121.779C227.571 125.544 232.242 126.477 232.242 126.477C232.242 126.477 230.919 126.005 228.204 120.029Z" fill="#F99338"/>
<path d="M234.324 129.908C234.059 129.182 234.347 128.377 234.899 127.847C235.774 127.006 236.924 126.293 237.304 127.916C237.937 130.645 235.555 136.482 233.898 136.194C232.414 135.929 235.302 132.591 234.324 129.908Z" fill="#F99338"/>
<path d="M214.052 135.929C215.253 135.929 216.227 135.641 216.227 135.285C216.227 134.929 215.253 134.64 214.052 134.64C212.851 134.64 211.878 134.929 211.878 135.285C211.878 135.641 212.851 135.929 214.052 135.929Z" fill="#F99338"/>
<path d="M200.487 135.929C201.688 135.929 202.662 135.641 202.662 135.285C202.662 134.929 201.688 134.64 200.487 134.64C199.287 134.64 198.313 134.929 198.313 135.285C198.313 135.641 199.287 135.929 200.487 135.929Z" fill="#F99338"/>
<path d="M344.508 54.8277H330.426V93.4443H344.508V54.8277Z" fill="white"/>
<path d="M358.036 81.1812V67.0886L316.893 67.0886V81.1812H358.036Z" fill="white"/>
</g>
<defs>
<linearGradient id="paint0_linear_146_3817" x1="277.373" y1="76.1736" x2="413.185" y2="76.1736" gradientUnits="userSpaceOnUse">
<stop stop-color="#1A2A5B"/>
<stop offset="1" stop-color="#3F56A0"/>
</linearGradient>
<linearGradient id="paint1_linear_146_3817" x1="391.936" y1="116.529" x2="279.647" y2="4.32277" gradientUnits="userSpaceOnUse">
<stop stop-color="#1A2A5B"/>
<stop offset="1" stop-color="#3F56A0"/>
</linearGradient>
<linearGradient id="paint2_linear_146_3817" x1="337.47" y1="76.246" x2="337.47" y2="38.0432" gradientUnits="userSpaceOnUse">
<stop stop-color="white" stop-opacity="0"/>
<stop offset="1" stop-color="white"/>
</linearGradient>
<linearGradient id="paint3_linear_146_3817" x1="240.386" y1="341.729" x2="176.067" y2="408.283" gradientUnits="userSpaceOnUse">
<stop stop-color="#001738"/>
<stop offset="1" stop-color="#13338C"/>
</linearGradient>
<linearGradient id="paint4_linear_146_3817" x1="209.039" y1="303.626" x2="344.511" y2="490.318" gradientUnits="userSpaceOnUse">
<stop stop-color="#001767"/>
<stop offset="1" stop-color="#13338C"/>
</linearGradient>
<linearGradient id="paint5_linear_146_3817" x1="107.311" y1="193.484" x2="126.087" y2="212.499" gradientUnits="userSpaceOnUse">
<stop stop-color="#FFCF83"/>
<stop offset="1" stop-color="#FFA44A"/>
</linearGradient>
<linearGradient id="paint6_linear_146_3817" x1="208.941" y1="261.578" x2="223.912" y2="278.313" gradientUnits="userSpaceOnUse">
<stop stop-color="#FFCF83"/>
<stop offset="1" stop-color="#FFA44A"/>
</linearGradient>
<linearGradient id="paint7_linear_146_3817" x1="228.557" y1="230.607" x2="314.535" y2="288.581" gradientUnits="userSpaceOnUse">
<stop stop-color="#001767"/>
<stop offset="1" stop-color="#13338C"/>
</linearGradient>
<linearGradient id="paint8_linear_146_3817" x1="256.739" y1="227.942" x2="238.215" y2="220.504" gradientUnits="userSpaceOnUse">
<stop stop-color="#001767"/>
<stop offset="1" stop-color="#13338C"/>
</linearGradient>
<linearGradient id="paint9_linear_146_3817" x1="201.315" y1="213.023" x2="215.43" y2="213.023" gradientUnits="userSpaceOnUse">
<stop stop-color="#001767"/>
<stop offset="1" stop-color="#13338C"/>
</linearGradient>
<linearGradient id="paint10_linear_146_3817" x1="236.375" y1="206.635" x2="239.306" y2="206.635" gradientUnits="userSpaceOnUse">
<stop stop-color="#001767"/>
<stop offset="1" stop-color="#13338C"/>
</linearGradient>
<linearGradient id="paint11_linear_146_3817" x1="228.029" y1="190.574" x2="256.378" y2="190.574" gradientUnits="userSpaceOnUse">
<stop stop-color="#001767"/>
<stop offset="1" stop-color="#13338C"/>
</linearGradient>
<linearGradient id="paint12_linear_146_3817" x1="245.101" y1="206.635" x2="248.032" y2="206.635" gradientUnits="userSpaceOnUse">
<stop stop-color="#001767"/>
<stop offset="1" stop-color="#13338C"/>
</linearGradient>
<linearGradient id="paint13_linear_146_3817" x1="223.558" y1="185.856" x2="202.861" y2="165.175" gradientUnits="userSpaceOnUse">
<stop stop-color="#001767"/>
<stop offset="1" stop-color="#13338C"/>
</linearGradient>
<linearGradient id="paint14_linear_146_3817" x1="222.956" y1="172.978" x2="222.956" y2="139.634" gradientUnits="userSpaceOnUse">
<stop stop-color="#FFCF83"/>
<stop offset="1" stop-color="#FFA44A"/>
</linearGradient>
<linearGradient id="paint15_linear_146_3817" x1="201.44" y1="119.239" x2="239.226" y2="156.997" gradientUnits="userSpaceOnUse">
<stop stop-color="#FFCF83"/>
<stop offset="1" stop-color="#FFA44A"/>
</linearGradient>
<clipPath id="clip0_146_3817">
<rect width="488" height="438" fill="white"/>
</clipPath>
</defs>
</svg>
