<svg width="39" height="26" viewBox="0 0 39 26" fill="none" xmlns="http://www.w3.org/2000/svg">
<path d="M1.26562 23.0521C-0.150731 23.0758 0.00255783 22.7335 0.00675754 21.8515C0.00990732 21.3098 0.00570761 20.7682 0.00780747 20.2266C0.00990732 19.6909 0.214643 19.5015 0.790003 19.4975C0.931743 19.4965 1.07453 19.4975 1.26562 19.4975C1.26562 19.3426 1.26562 19.2124 1.26562 19.0812C1.26562 17.7523 1.32127 16.4204 1.24987 15.0945C1.17743 13.7537 2.03312 12.5185 3.78125 12.3745C3.78125 12.2334 3.78125 12.0884 3.78125 11.9434C3.78125 8.79327 3.7802 5.64218 3.78125 2.49207C3.7823 0.98854 4.83327 0.000986567 6.43546 0C15.1467 0 23.8569 0 32.5671 0C34.1682 0 35.2213 0.989527 35.2224 2.49207C35.2234 5.64218 35.2224 8.79327 35.2224 11.9434C35.2224 12.0884 35.2224 12.2344 35.2224 12.3725C36.6356 12.5708 37.423 13.1855 37.6844 14.2865C37.7296 14.4759 37.7348 14.6762 37.7359 14.8715C37.7401 16.3958 37.738 17.921 37.738 19.4975C37.9616 19.4975 38.1664 19.4906 38.37 19.4995C38.747 19.5163 38.9864 19.7274 38.9916 20.0796C39.0032 20.8669 39.0021 21.6551 38.9927 22.4424C38.9885 22.8144 38.748 23.0245 38.348 23.0393C38.1653 23.0462 37.9816 23.0403 37.7621 23.0403C37.7537 23.1567 37.7401 23.2623 37.7401 23.3678C37.738 24.0328 37.7443 24.6967 37.7369 25.3617C37.7327 25.7464 37.5123 25.9832 37.129 25.9911C36.4875 26.0039 35.845 26.002 35.2035 25.9911C34.8528 25.9852 34.6628 25.7849 34.5956 25.4692C34.4412 24.747 34.2774 24.0268 34.1346 23.3027C34.0968 23.1084 34.0223 23.0127 33.806 23.0393C33.742 23.0472 33.6748 23.0403 33.6097 23.0403C24.2055 23.0403 14.8002 23.0423 5.39603 23.0334C5.04956 23.0334 4.89312 23.0936 4.83852 23.4487C4.73458 24.1156 4.56659 24.7737 4.41435 25.4337C4.31776 25.8559 4.13507 25.9911 3.6836 25.9941C3.13344 25.998 2.58328 25.997 2.03312 25.9941C1.48296 25.9921 1.26982 25.7958 1.26772 25.2857C1.26352 24.5517 1.26562 23.8157 1.26562 23.0521ZM6.29687 12.4002C6.29687 11.5862 6.29162 10.8019 6.29792 10.0176C6.30737 8.73112 7.40349 7.68733 8.7642 7.68338C11.305 7.67648 13.8469 7.67746 16.3877 7.6824C17.5342 7.68437 18.5191 8.41048 18.7879 9.45822C18.854 9.7167 18.8635 9.99294 18.8666 10.2613C18.8771 10.9696 18.8697 11.678 18.8697 12.3775C19.3223 12.3775 19.7202 12.3775 20.1307 12.3775C20.1307 11.5981 20.1286 10.8473 20.1307 10.0975C20.1349 8.69659 21.2153 7.6824 22.7083 7.68141C25.184 7.67944 27.6597 7.67944 30.1355 7.68338C30.3297 7.68338 30.5302 7.69424 30.7192 7.73468C31.9245 7.99415 32.6994 8.90969 32.7046 10.0709C32.7078 10.8414 32.7057 11.6119 32.7057 12.3814C33.153 12.3814 33.5498 12.3814 33.9667 12.3814C33.9667 12.2453 33.9667 12.1358 33.9667 12.0253C33.9667 8.87417 33.9677 5.72406 33.9667 2.57297C33.9667 1.63967 33.4679 1.17895 32.4611 1.17895C23.816 1.17895 15.1698 1.17895 6.52471 1.17895C5.52622 1.17895 5.03591 1.64362 5.03591 2.58875C5.03486 5.72702 5.03591 8.86529 5.03591 12.0036C5.03591 12.1328 5.03591 12.262 5.03591 12.3992C5.47478 12.4002 5.8538 12.4002 6.29687 12.4002ZM36.4833 19.4867C36.4833 17.9871 36.4833 16.525 36.4833 15.0619C36.4833 14.0211 36.0193 13.587 34.9053 13.587C24.637 13.587 14.3687 13.587 4.10042 13.587C3.99543 13.587 3.89044 13.584 3.7865 13.589C3.07464 13.6215 2.53393 14.099 2.52763 14.765C2.51293 16.3149 2.52763 17.8657 2.53183 19.4156C2.53183 19.4354 2.55808 19.4551 2.58013 19.4867C13.8584 19.4867 25.1441 19.4867 36.4833 19.4867ZM1.28032 21.8357C13.4479 21.8357 25.584 21.8357 37.7086 21.8357C37.7086 21.4351 37.7086 21.0622 37.7086 20.6972C25.5504 20.6972 13.4238 20.6972 1.28032 20.6972C1.28032 21.081 1.28032 21.446 1.28032 21.8357ZM17.6119 12.3952C17.6119 11.5616 17.6392 10.7634 17.6035 9.96728C17.5752 9.33588 17.0376 8.86924 16.3562 8.86529C13.8427 8.85345 11.3302 8.85444 8.8167 8.8643C8.17939 8.86726 7.63238 9.26978 7.58933 9.85383C7.52739 10.6924 7.57358 11.5389 7.57358 12.3942C10.9229 12.3952 14.2427 12.3952 17.6119 12.3952ZM31.4489 12.3952C31.4489 11.5714 31.471 10.7851 31.4416 9.99984C31.4174 9.35167 30.883 8.86825 30.1869 8.86529C27.6734 8.85345 25.1609 8.85444 22.6474 8.86529C22.0227 8.86825 21.482 9.25104 21.4358 9.82325C21.3675 10.6727 21.4179 11.531 21.4179 12.3952C24.7609 12.3952 28.0808 12.3952 31.4489 12.3952ZM3.62481 23.0679C3.23213 23.0679 2.88566 23.0679 2.53918 23.0679C2.53918 23.6569 2.53918 24.2182 2.53918 24.8161C2.70927 24.8161 2.87096 24.8427 3.01375 24.8072C3.12294 24.7796 3.27308 24.6869 3.29618 24.5991C3.42217 24.0989 3.51561 23.5918 3.62481 23.0679ZM35.3725 23.058C35.4785 23.5454 35.6024 24.0101 35.6728 24.4826C35.7127 24.747 35.8114 24.8585 36.0949 24.8181C36.2177 24.8003 36.3437 24.8043 36.4634 24.7983C36.4634 24.1975 36.4634 23.6362 36.4634 23.058C36.0959 23.058 35.7484 23.058 35.3725 23.058Z" fill="#029967"/>
</svg>
