<svg width="37" height="42" viewBox="0 0 37 42" fill="none" xmlns="http://www.w3.org/2000/svg">
<path d="M23.4634 31.4322C23.3582 32.5352 23.2586 33.7559 23.1206 34.9732C22.9204 36.7505 22.7337 38.5334 22.1839 40.2462C22.0572 40.6411 21.8592 41.0325 21.6114 41.364C21.2551 41.8402 20.634 41.8436 20.2663 41.3764C20.0378 41.0857 19.8839 40.7236 19.7482 40.3741C19.643 40.1014 19.7731 39.8209 20.057 39.7847C20.2437 39.7609 20.4926 39.9012 20.6476 40.0415C20.7777 40.1603 20.8139 40.3831 20.8908 40.5596C20.936 40.5653 20.9824 40.5721 21.0277 40.5777C21.1928 40.0121 21.4236 39.4566 21.5119 38.8796C21.8004 36.9722 22.0979 35.0637 22.2778 33.145C22.4995 30.7727 22.6081 28.3901 22.762 26.011C22.7846 25.6592 22.7823 25.3062 22.7948 24.9532C22.8084 24.5833 23.0471 24.3084 23.3503 24.3468C23.6919 24.391 23.848 24.6116 23.8729 24.9566C24.2078 29.5814 24.804 34.1677 25.9047 38.6794C26.01 39.1093 26.1898 39.5199 26.3686 40.0369C26.8019 39.2846 26.9184 38.5606 27.027 37.8433C27.4671 34.9336 27.5734 32.0001 27.5417 29.0655C27.4874 24.1274 27.415 19.1881 27.2352 14.2533C27.1922 13.0722 27.4433 12.2385 28.2613 11.3764C30.4266 9.09455 32.4663 6.69166 34.2063 4.06137C34.7142 3.29321 35.0887 2.43341 35.496 1.6019C35.5718 1.44804 35.5175 1.2297 35.5243 1.04077C35.324 1.06793 35.083 1.03399 34.9314 1.13354C34.0977 1.68223 33.2469 2.2162 32.472 2.84182C30.3202 4.57724 28.2285 6.38733 26.0609 8.1024C24.7881 9.10926 23.4057 9.99847 21.7664 10.2813C20.6329 10.477 19.4744 10.5415 18.3261 10.6365C17.9041 10.6716 17.6688 10.4623 17.6858 10.1421C17.7062 9.76316 17.9596 9.67491 18.2944 9.6455C19.402 9.54594 20.5209 9.49956 21.6092 9.29592C23.1862 8.99952 24.494 8.09334 25.7181 7.11816C27.759 5.49247 29.7308 3.7808 31.7559 2.13475C32.5308 1.50574 33.3623 0.943481 34.1904 0.384615C34.4506 0.209263 34.7765 0.0972633 35.0876 0.0350414C36.0741 -0.160675 36.7823 0.538473 36.5402 1.5114C36.3886 2.11891 36.1589 2.72416 35.8602 3.27284C34.7267 5.35106 33.23 7.17699 31.7129 8.97916C30.6415 10.253 29.5102 11.476 28.4264 12.7396C28.2918 12.8969 28.2194 13.165 28.2262 13.3788C28.2975 15.819 28.4445 18.257 28.4649 20.6972C28.5011 24.9295 28.5 29.1628 28.4377 33.395C28.4095 35.3375 28.2522 37.2845 27.7703 39.1805C27.647 39.6636 27.4546 40.1523 27.1865 40.5687C26.743 41.2565 25.976 41.2452 25.5902 40.5291C25.261 39.917 24.9884 39.245 24.847 38.5674C24.3401 36.16 23.9035 33.7378 23.4634 31.4322Z" fill="#029967"/>
<path d="M15.4209 38.555C15.336 38.9091 15.2761 39.27 15.1618 39.6139C15.0159 40.0517 14.8756 40.5042 14.6459 40.9002C14.0135 41.9942 12.7714 41.9998 12.1605 40.89C11.8674 40.3572 11.6649 39.7496 11.5462 39.1512C11.114 36.9791 11.1468 34.7742 11.2339 32.5749C11.2916 31.1381 11.4296 29.7059 11.5043 28.2691C11.5122 28.1221 11.3719 27.9218 11.2418 27.8189C9.77 26.6604 8.26537 25.5427 6.8139 24.3582C6.08194 23.7609 5.45746 23.0357 5.05811 22.1589C4.59767 21.1498 4.92461 20.1859 5.87265 19.9144C6.26861 19.8013 6.76073 19.79 7.1465 19.919C7.92597 20.1814 8.68508 20.5299 9.41138 20.919C10.7486 21.6363 12.0541 22.4146 13.3777 23.1579C14.2149 23.6285 15.0645 23.6138 15.8587 23.0844C17.1597 22.2166 18.4245 21.2969 19.7244 20.428C20.4247 19.9597 21.1385 19.4913 21.901 19.1417C22.3479 18.937 22.9158 18.8567 23.4045 18.9189C24.2632 19.0286 24.7711 19.8545 24.503 20.6792C24.3107 21.2709 24.0154 21.8524 23.6579 22.3626C22.6217 23.8389 21.298 25.0528 19.9393 26.2237C19.6769 26.45 19.5999 26.674 19.5931 27.0145C19.5388 30.1584 19.514 33.3046 19.3624 36.444C19.3001 37.7257 18.9653 38.9962 18.7164 40.2644C18.653 40.5846 18.4765 40.8991 18.2921 41.1762C17.8294 41.8686 16.9719 41.9342 16.5409 41.2305C16.1291 40.5597 15.9028 39.7745 15.6053 39.0347C15.5431 38.8808 15.5238 38.71 15.4842 38.5459C15.4627 38.5516 15.4424 38.5527 15.4209 38.555ZM17.309 40.7033C17.3588 40.6999 17.4075 40.6966 17.4572 40.6932C17.5715 40.4296 17.7389 40.1761 17.791 39.9012C18.0082 38.7552 18.2718 37.6081 18.3691 36.4496C18.644 33.1994 18.7096 29.9401 18.584 26.6796C18.5671 26.2543 18.7164 25.9828 19.0196 25.6965C20.1554 24.6207 21.2958 23.5448 22.3581 22.3988C22.8355 21.884 23.1839 21.2279 23.4973 20.5898C23.7337 20.109 23.3785 19.7357 22.8524 19.8737C22.4621 19.9755 22.0673 20.1226 21.7268 20.333C20.9609 20.807 20.2289 21.3365 19.48 21.8377C18.3566 22.59 17.2502 23.3706 16.1008 24.0776C15.2342 24.6116 14.2783 24.6535 13.3427 24.2315C12.6017 23.8966 11.8708 23.5335 11.1593 23.1409C10.0257 22.5176 8.91926 21.8456 7.78343 21.2245C7.45761 21.0457 7.08089 20.9281 6.71321 20.8681C6.49374 20.8319 6.13285 20.8907 6.04121 21.0367C5.92922 21.2143 5.95071 21.5741 6.06045 21.7732C6.30368 22.2121 6.60121 22.6364 6.94287 23.004C8.40338 24.5743 10.1264 25.8312 11.9138 26.993C12.4591 27.3471 12.6152 27.6775 12.5394 28.3483C12.1989 31.3655 12.0688 34.3974 12.3019 37.4316C12.3754 38.3977 12.4795 39.3752 12.9422 40.2553C13.0372 40.4363 13.2465 40.6671 13.4072 40.6705C13.5599 40.6739 13.8031 40.4363 13.8586 40.2576C14.0995 39.4815 14.3722 38.6998 14.4751 37.9C14.638 36.6306 14.6787 35.3443 14.7636 34.0648C14.7851 33.7356 14.8213 33.4177 15.2331 33.3838C15.6743 33.3476 15.7591 33.6643 15.7987 34.0139C15.8655 34.6022 15.9051 35.1961 16.0182 35.7754C16.2773 37.099 16.5601 38.4192 16.8678 39.7327C16.9493 40.0721 17.1586 40.3809 17.309 40.7033Z" fill="#029967"/>
<path d="M5.11125 13.6821C4.82729 12.5168 4.57275 11.4081 4.28653 10.3085C3.76273 8.29479 3.19595 6.29124 2.70383 4.2696C2.57712 3.74919 2.61446 3.17562 2.65292 2.63259C2.69025 2.10201 2.94706 1.65854 3.47764 1.45151C3.99126 1.25127 4.48451 1.37119 4.84426 1.74565C5.24927 2.16763 5.65428 2.63033 5.91109 3.14847C6.55933 4.45965 7.12159 5.8127 7.72231 7.14764C8.23592 8.29026 8.76764 9.42496 9.27107 10.5721C10.0336 12.3087 11.4296 13.061 13.2465 13.1526C15.1199 13.2477 16.9934 13.3201 18.8668 13.4015C18.9652 13.406 19.0908 13.3664 19.1576 13.4128C19.3352 13.5361 19.5739 13.6685 19.6305 13.8472C19.7187 14.1267 19.506 14.3281 19.2243 14.3824C18.9766 14.4299 18.7175 14.4649 18.4675 14.448C16.249 14.2964 14.0124 14.3914 11.8154 13.923C10.5562 13.6549 9.52901 13.0451 8.93055 11.9116C8.13637 10.4081 7.43156 8.85705 6.71205 7.31508C6.15884 6.12947 5.66446 4.91557 5.09655 3.73788C4.88612 3.30233 4.57049 2.90298 4.24241 2.54209C3.95845 2.22985 3.63829 2.33732 3.65752 2.75025C3.69825 3.64285 3.74916 4.55242 3.95845 5.41674C4.36572 7.09673 4.8239 8.77107 5.37372 10.4092C6.13509 12.6775 6.05929 14.896 5.40087 17.1722C4.27522 21.0627 2.78642 24.8119 1.19693 28.5271C0.92202 29.1685 0.936727 29.4468 1.52953 29.8179C2.22642 30.2557 2.96969 30.6517 3.74124 30.9323C5.63279 31.6201 7.61031 31.921 9.61499 32.0375C9.9623 32.0579 10.2361 32.1507 10.2519 32.5534C10.2644 32.8804 10.0302 33.0704 9.6082 33.0421C7.02203 32.8679 4.47659 32.481 2.11781 31.3429C1.48767 31.0386 0.905051 30.5736 0.403882 30.0781C-0.0656111 29.6143 -0.104075 29.0011 0.176489 28.354C1.72751 24.7768 3.21292 21.1713 4.27182 17.412C4.61574 16.18 4.83634 14.9175 5.11125 13.6821Z" fill="#029967"/>
<path d="M21.7143 5.15403e-06C23.8027 -0.00338877 25.4917 1.66982 25.4974 3.74916C25.503 5.85565 23.8185 7.55601 21.7245 7.55601C19.6214 7.55714 17.9323 5.86018 17.9448 3.75934C17.9561 1.66416 19.6202 0.00339908 21.7143 5.15403e-06ZM18.9448 3.71861C18.9086 5.23457 20.1112 6.5186 21.5989 6.55028C23.1646 6.58422 24.4532 5.41105 24.4916 3.91659C24.5335 2.28864 23.3524 1.02836 21.755 0.996687C20.2311 0.967273 18.9822 2.17664 18.9448 3.71861Z" fill="#029967"/>
<path d="M17.2841 7.99613C17.2807 10.0653 15.595 11.7566 13.5225 11.7713C11.4477 11.786 9.736 10.0743 9.73487 7.98256C9.7326 5.89077 11.433 4.1825 13.5157 4.18702C15.5962 4.19155 17.2875 5.89982 17.2841 7.99613ZM16.2806 7.97464C16.2795 6.44737 15.0441 5.19954 13.5236 5.18936C11.9862 5.17805 10.7327 6.43493 10.7338 7.98482C10.7349 9.51435 11.9658 10.7588 13.4908 10.7724C15.0203 10.7848 16.2829 9.52 16.2806 7.97464Z" fill="#029967"/>
<path d="M17.6936 19.4154C17.6902 21.0151 16.3519 22.3478 14.7499 22.3455C13.1457 22.3433 11.8165 21.0061 11.8244 19.4053C11.8323 17.7954 13.1638 16.4673 14.7613 16.4729C16.3598 16.4774 17.6959 17.818 17.6936 19.4154ZM16.6924 19.4075C16.6913 18.3577 15.7919 17.4651 14.7443 17.473C13.7046 17.4809 12.8392 18.3441 12.8222 19.3906C12.8052 20.4415 13.6888 21.3387 14.7477 21.3455C15.7987 21.3511 16.6935 20.4596 16.6924 19.4075Z" fill="#029967"/>
<path d="M5.68481 39.9397C5.88279 39.1432 6.11244 38.3524 6.27196 37.5492C6.47785 36.5152 6.62832 35.471 6.80141 34.4302C6.85684 34.0999 6.97224 33.8159 7.37272 33.8295C7.68383 33.8397 7.87389 34.1055 7.79357 34.5184C7.44399 36.324 7.07745 38.1273 6.69167 39.9261C6.62832 40.2202 6.47333 40.5076 6.30816 40.7644C5.95519 41.3131 5.31826 41.3617 4.94833 40.8221C4.67794 40.4273 4.46865 39.9532 4.36457 39.486C3.94938 37.608 3.87358 35.6916 3.82041 33.7763C3.81136 33.4527 3.98106 33.2525 4.28991 33.2401C4.63043 33.2265 4.79673 33.4607 4.81596 33.7808C4.85782 34.4981 4.85217 35.2199 4.92457 35.9337C5.0377 37.0526 5.19156 38.1669 5.34315 39.2812C5.37257 39.4996 5.46533 39.71 5.52869 39.9238C5.58186 39.9272 5.6339 39.9329 5.68481 39.9397Z" fill="#029967"/>
<path d="M9.98492 40.5777C10.3107 40.3221 10.5879 40.218 10.8425 40.4929C11.1151 40.787 10.9545 41.0687 10.7542 41.3244C10.3198 41.8754 9.60707 41.8765 9.30388 41.2339C8.9724 40.5325 8.72125 39.7677 8.59115 39.0041C8.34905 37.5786 8.21556 36.134 8.04473 34.6972C7.9893 34.2243 8.13184 33.9935 8.46897 33.9743C8.91471 33.9494 8.9939 34.2605 9.03576 34.6056C9.2145 36.0423 9.37741 37.4802 9.58331 38.9136C9.66024 39.4498 9.83559 39.9725 9.98492 40.5777Z" fill="#029967"/>
<path d="M19.6542 17.4754C19.6542 17.9833 19.6519 18.4902 19.6553 18.9981C19.6576 19.3296 19.5139 19.5615 19.1745 19.5706C18.8091 19.5807 18.6541 19.3352 18.653 18.9913C18.6496 17.9765 18.6462 16.9606 18.6552 15.9458C18.6586 15.5816 18.8883 15.3327 19.1824 15.3666C19.5173 15.4062 19.661 15.6212 19.6576 15.9526C19.6496 16.4606 19.6542 16.9685 19.6542 17.4754Z" fill="#029967"/>
</svg>
