<svg width="33" height="33" viewBox="0 0 33 33" fill="none" xmlns="http://www.w3.org/2000/svg">
<path d="M2.41809 33C2.32855 32.971 2.23987 32.9394 2.14947 32.913C1.05282 32.5949 0.313475 31.6193 0.313475 30.4707C0.312622 21.2591 0.311769 12.0476 0.314328 2.83604C0.314328 1.41619 1.42207 0.315271 2.84789 0.314419C7.28311 0.31186 11.7175 0.31186 16.1527 0.314419C17.6101 0.315271 18.6939 1.41704 18.6948 2.89232C18.6956 12.051 18.6956 21.2097 18.6948 30.3675C18.6948 31.6603 17.9554 32.6085 16.6968 32.9411C16.6584 32.9514 16.6251 32.9804 16.5893 33C11.8659 33 7.14155 33 2.41809 33ZM17.6672 23.8967C17.6715 23.7952 17.6757 23.7535 17.6757 23.7108C17.6757 16.7847 17.6774 9.85769 17.6749 2.93155C17.6749 1.96025 17.0268 1.33262 16.0367 1.33262C11.6962 1.33091 7.35644 1.33176 3.01588 1.33262C1.94737 1.33262 1.33253 1.94746 1.33253 3.01512C1.33167 9.88839 1.33253 16.7617 1.33253 23.6349C1.33253 23.7347 1.33253 23.8345 1.33253 23.9342C2.61508 21.6258 4.55341 20.1557 7.03069 19.2909C6.93177 19.2202 6.88145 19.1826 6.83029 19.1468C5.40106 18.1372 4.6583 16.7651 4.65489 15.0075C4.65063 12.9643 4.65318 10.9219 4.65404 8.87872C4.65489 7.34715 5.80527 6.1891 7.3283 6.18654C8.78567 6.18484 10.243 6.18399 11.7004 6.18654C13.1859 6.1891 14.3508 7.35227 14.3534 8.83608C14.3559 10.9211 14.3619 13.0069 14.3517 15.0919C14.344 16.58 13.7547 17.8106 12.6402 18.7912C12.4534 18.9558 12.2479 19.0999 12.0287 19.2713C14.5401 20.0456 16.307 21.6804 17.6672 23.8967ZM6.79362 22.5792C8.00966 23.0388 8.52729 23.8601 8.48721 25.0727C8.45821 25.9442 8.45565 26.8183 8.48806 27.6898C8.52814 28.7805 8.17168 28.6594 7.44854 28.6577C7.43831 28.6577 7.42722 28.6577 7.41699 28.6568C7.17651 28.633 7.01875 28.4965 6.96588 28.2705C6.9096 28.0309 6.99146 27.828 7.21488 27.7026C7.29334 27.6591 7.38032 27.6301 7.46219 27.5952C7.46219 26.6511 7.47157 25.7259 7.45877 24.8007C7.44939 24.092 6.92324 23.5718 6.22824 23.5514C5.52812 23.5309 4.93971 24.0204 4.91754 24.7137C4.88684 25.6798 4.90987 26.6486 4.90987 27.6131C4.95592 27.6267 4.98662 27.6344 5.01646 27.6455C5.32346 27.7631 5.47269 27.9789 5.40873 28.2484C5.34051 28.5366 5.14352 28.6696 4.84761 28.6594C4.76234 28.656 4.67706 28.6594 4.59264 28.6594C4.03664 28.6586 3.88911 28.5144 3.88826 27.9695C3.8874 26.9479 3.88826 25.9263 3.88826 24.9055C3.88826 23.7211 4.47069 22.9399 5.60231 22.5954C5.67479 22.5732 5.77457 22.5229 5.79248 22.4641C5.97156 21.8808 6.13614 21.2932 6.31351 20.675C6.22568 20.7082 6.16684 20.7244 6.11397 20.7509C3.52754 22.0565 1.94055 24.1346 1.47579 26.9905C1.30353 28.0514 1.35555 29.1523 1.33679 30.2353C1.31632 31.3908 1.92349 31.9818 3.07984 31.9818C6.61198 31.9818 10.1433 31.9818 13.6754 31.9818C14.4949 31.9818 15.3136 31.9894 16.1331 31.9792C17.0319 31.9681 17.674 31.3123 17.6757 30.4195C17.6774 29.6853 17.6851 28.951 17.674 28.2168C17.6374 25.7984 16.7599 23.7449 14.9656 22.1093C14.5572 21.7375 14.089 21.4314 13.6481 21.0954C13.626 21.1176 13.6038 21.1397 13.5808 21.1619C13.6652 21.4877 13.759 21.8117 13.8323 22.14C13.9057 22.4718 13.9781 22.8052 14.014 23.142C14.0336 23.3339 14.1146 23.4064 14.2809 23.4746C15.1379 23.8285 15.6027 24.7043 15.4244 25.5963C15.253 26.4567 14.4557 27.1116 13.5765 27.1168C12.6888 27.121 11.9298 26.507 11.7217 25.6142C11.5213 24.7537 11.9665 23.8771 12.8005 23.49C12.8738 23.4558 12.9455 23.4175 13.0145 23.3834C12.8678 22.4266 12.676 21.503 12.2581 20.6443C12.2095 20.5437 12.1072 20.4285 12.0066 20.3995C10.6532 20.0149 9.28454 19.8222 7.89027 20.1659C7.76747 20.1957 7.61227 20.3032 7.57049 20.4123C7.29846 21.1218 7.05371 21.8424 6.79362 22.5792ZM13.3932 12.3358C10.7598 12.3358 8.22541 12.3358 5.67309 12.3358C5.67309 13.2611 5.66968 14.1641 5.67565 15.0664C5.6765 15.2565 5.70805 15.4475 5.73278 15.6369C5.96644 17.4524 7.73336 18.9916 9.53611 18.9524C11.2621 18.914 12.8789 17.675 13.1859 15.9439C13.3932 14.7747 13.3326 13.557 13.3932 12.3358ZM13.3283 11.2792C13.3283 10.4 13.3693 9.53875 13.3173 8.68343C13.2652 7.82555 12.5481 7.21156 11.6842 7.2073C10.2277 7.20048 8.77118 7.19963 7.31551 7.2073C6.46616 7.21156 5.7524 7.81276 5.69526 8.65956C5.63727 9.52426 5.68247 10.3958 5.68247 11.2784C8.23223 11.2792 10.759 11.2792 13.3283 11.2792ZM14.4369 25.2151C14.4369 24.7324 14.0771 24.3692 13.5961 24.3674C13.0981 24.3657 12.7348 24.7341 12.7408 25.2339C12.7459 25.7097 13.1194 26.0721 13.5987 26.0662C14.0779 26.061 14.4369 25.6969 14.4369 25.2151Z" fill="#029967"/>
<path d="M32.9947 15.8262C32.8139 16.082 32.5717 16.1519 32.2588 16.1511C28.6328 16.1408 25.0069 16.1451 21.3809 16.1442C20.3354 16.1442 19.7189 15.5277 19.7189 14.4805C19.718 11.8327 19.718 9.18399 19.7189 6.53616C19.7189 5.53928 20.3517 4.91079 21.3536 4.90994C23.842 4.90909 26.3304 4.90909 28.8179 4.90994C29.8003 4.90994 30.4381 5.54269 30.439 6.5174C30.4407 7.985 30.4381 9.45261 30.4398 10.9202C30.4415 12.7221 31.1621 14.1437 32.6724 15.1499C32.7918 15.2292 32.8873 15.3443 32.9939 15.4424C32.9947 15.5703 32.9947 15.6982 32.9947 15.8262ZM31.0103 15.1252C30.9327 15.0288 30.902 14.9887 30.8688 14.9495C29.9 13.8264 29.4114 12.5277 29.4191 11.0405C29.4268 9.58393 29.4208 8.12742 29.4208 6.67004C29.4208 6.09187 29.2588 5.92899 28.6848 5.92899C26.2826 5.92899 23.8795 5.92899 21.4773 5.92899C20.8991 5.92899 20.738 6.09017 20.738 6.66578C20.738 9.22833 20.738 11.7909 20.738 14.3534C20.738 14.9734 20.8889 15.1243 21.508 15.1243C24.5481 15.1243 27.5891 15.1243 30.6292 15.1243C30.7332 15.1252 30.8381 15.1252 31.0103 15.1252Z" fill="#029967"/>
<path d="M32.9948 26.1684C32.7918 26.7372 32.4635 27.1832 31.841 27.3316C31.6986 27.3657 31.5476 27.3776 31.401 27.3785C27.7332 27.381 24.0663 27.3793 20.3986 27.3836C20.107 27.3836 19.869 27.3273 19.7701 27.0186C19.6686 26.7022 19.852 26.5231 20.0873 26.3645C21.5473 25.3779 22.2525 23.9879 22.2713 22.2397C22.2798 21.4108 22.2704 20.5811 22.2738 19.7522C22.2772 18.8423 22.9296 18.1917 23.8446 18.1908C26.2682 18.1891 28.6926 18.213 31.1153 18.1789C32.0567 18.1652 32.6886 18.5021 32.9956 19.4026C32.9948 21.6573 32.9948 23.9128 32.9948 26.1684ZM21.7153 26.3347C21.7903 26.3509 21.8108 26.3586 21.8312 26.3586C25.0095 26.3594 28.1877 26.3611 31.366 26.3586C31.7821 26.3586 31.9732 26.1505 31.9732 25.7147C31.9757 23.7585 31.9757 21.8023 31.9732 19.846C31.9723 19.4 31.7779 19.209 31.3268 19.2081C28.8606 19.2064 26.3944 19.2064 23.929 19.2081C23.483 19.2081 23.2937 19.4026 23.292 19.8545C23.2886 20.7158 23.3099 21.5771 23.2835 22.4376C23.2699 22.8793 23.2085 23.3261 23.1121 23.7585C22.8938 24.7306 22.4077 25.5698 21.7153 26.3347Z" fill="#029967"/>
<path d="M9.51909 2.3559C9.99749 2.3559 10.4767 2.35334 10.9551 2.35675C11.3312 2.35931 11.5487 2.55289 11.5444 2.87268C11.5401 3.18052 11.3278 3.37239 10.9722 3.3741C9.99322 3.37751 9.0151 3.37751 8.03613 3.3741C7.68053 3.37325 7.46819 3.18138 7.46393 2.87353C7.45967 2.55204 7.67456 2.35931 8.05148 2.35675C8.54012 2.35334 9.0296 2.3559 9.51909 2.3559Z" fill="#029967"/>
<path d="M10.0333 8.72174C10.5867 8.76779 10.7743 8.90252 10.7786 9.24278C10.7829 9.58047 10.6089 9.70924 10.0418 9.7894C9.96762 10.3505 9.83374 10.5304 9.49434 10.5253C9.16005 10.5194 9.02446 10.33 8.97586 9.79878C8.37892 9.68195 8.21519 9.55574 8.22969 9.22487C8.24333 8.90593 8.41133 8.78911 8.96648 8.7115C9.04152 8.14783 9.17284 7.97045 9.51224 7.97557C9.84823 7.97983 9.98467 8.17171 10.0333 8.72174Z" fill="#029967"/>
<path d="M25.2738 6.95413C25.8579 6.98398 26.4438 7.31997 26.7908 8.00303C27.1311 8.6716 27.0919 9.34102 26.6578 9.96098C26.4881 10.204 26.2817 10.4215 26.0788 10.6389C25.7769 10.963 25.6098 11.3373 25.5867 11.7825C25.5688 12.1313 25.3539 12.3308 25.0444 12.3129C24.7536 12.2958 24.5737 12.0835 24.5694 11.7475C24.56 11.05 24.85 10.4743 25.2994 9.96439C25.4605 9.78104 25.6319 9.60537 25.782 9.4135C26.0353 9.08945 26.0447 8.7023 25.8255 8.3791C25.626 8.08404 25.2405 7.92372 24.9096 7.99791C24.5088 8.08831 24.2215 8.38422 24.1856 8.78416C24.1609 9.06046 24.0876 9.2907 23.7959 9.37427C23.4318 9.47831 23.1333 9.21907 23.141 8.81571C23.1598 7.78131 24.0356 6.94816 25.2738 6.95413Z" fill="#029967"/>
<path d="M25.6499 13.5357C25.6482 13.8478 25.3966 14.0985 25.0828 14.1002C24.7562 14.1019 24.4978 13.8376 24.508 13.5118C24.5183 13.2031 24.7826 12.9524 25.0905 12.9584C25.3983 12.9652 25.6516 13.227 25.6499 13.5357Z" fill="#029967"/>
<path d="M25.5884 22.2765C25.8741 22.2756 26.0941 22.4905 26.0984 22.7754C26.1035 23.0738 25.8732 23.3015 25.5748 23.2938C25.2908 23.2862 25.0776 23.0644 25.081 22.7779C25.0844 22.4922 25.3019 22.2773 25.5884 22.2765Z" fill="#029967"/>
<path d="M27.6436 23.2938C27.3571 23.2998 27.1328 23.0892 27.1234 22.8044C27.1132 22.505 27.3375 22.2739 27.636 22.2756C27.9216 22.2773 28.1382 22.4948 28.1408 22.7805C28.1425 23.0662 27.9285 23.2879 27.6436 23.2938Z" fill="#029967"/>
<path d="M30.1832 22.7941C30.179 23.0789 29.9581 23.2947 29.6733 23.2938C29.3757 23.293 29.1531 23.0585 29.1667 22.7592C29.1795 22.4752 29.4055 22.2671 29.692 22.2756C29.976 22.285 30.1883 22.5076 30.1832 22.7941Z" fill="#029967"/>
</svg>
