<svg width="38" height="37" viewBox="0 0 38 37" fill="none" xmlns="http://www.w3.org/2000/svg">
<path d="M8.8667 11.1012C8.8667 10.9014 8.8667 10.75 8.8667 10.5976C8.8667 7.33388 8.8667 4.07117 8.8667 0.807437C8.8667 0.190531 9.0592 0 9.68642 0C15.9015 0 22.1165 0 28.3316 0C28.9323 0 29.1312 0.19671 29.1322 0.787869C29.1333 4.05161 29.1322 7.31431 29.1322 10.578C29.1322 10.7315 29.1322 10.885 29.1322 11.1002C29.2845 11.1002 29.422 11.1002 29.5606 11.1002C32.0938 11.1002 34.6281 11.1002 37.1612 11.1002C37.8138 11.1002 38 11.2835 38 11.9282C38 20.0098 38 28.0914 38 36.173C38 36.8156 37.8128 37 37.1591 37C25.059 37 12.9589 37 0.858853 37C0.179809 37 0 36.8218 0 36.1534C0 28.0852 0 20.016 0 11.9478C0 11.2773 0.178751 11.1012 0.858853 11.1012C3.3656 11.1012 5.87341 11.1012 8.38016 11.1012C8.52189 11.1012 8.66574 11.1012 8.8667 11.1012ZM10.1582 1.24823C10.1582 12.7697 10.1582 24.2602 10.1582 35.7394C12.0641 35.7394 13.9426 35.7394 15.8105 35.7394C15.8105 33.6827 15.8105 31.6579 15.8105 29.5899C15.3885 29.5899 14.9876 29.5899 14.5867 29.5899C14.5867 29.1666 14.5867 28.7866 14.5867 28.3952C17.5398 28.3952 20.4728 28.3952 23.3995 28.3952C23.3995 28.8103 23.3995 29.1996 23.3995 29.6167C22.9764 29.6167 22.5851 29.6167 22.1927 29.6167C22.1927 31.6806 22.1927 33.7146 22.1927 35.7394C24.0986 35.7394 25.9761 35.7394 27.8471 35.7394C27.8471 24.2272 27.8471 12.746 27.8471 1.24823C21.9462 1.24823 16.0654 1.24823 10.1582 1.24823ZM8.84872 12.3598C6.30601 12.3598 3.79503 12.3598 1.29463 12.3598C1.29463 20.1767 1.29463 27.9668 1.29463 35.7497C3.82782 35.7497 6.32928 35.7497 8.84872 35.7497C8.84872 27.9483 8.84872 20.1684 8.84872 12.3598ZM36.7075 35.7528C36.7075 27.9338 36.7075 20.1437 36.7075 12.3629C34.169 12.3629 31.658 12.3629 29.1523 12.3629C29.1523 20.1736 29.1523 27.9544 29.1523 35.7528C31.6739 35.7528 34.1764 35.7528 36.7075 35.7528ZM17.1252 29.6177C17.1252 31.6816 17.1252 33.7157 17.1252 35.7394C18.3976 35.7394 19.6426 35.7394 20.879 35.7394C20.879 33.6837 20.879 31.66 20.879 29.6177C19.6235 29.6177 18.3892 29.6177 17.1252 29.6177Z" fill="#029967"/>
<path d="M16.8588 8.71494C16.1609 8.71494 15.5108 8.71685 14.8595 8.71399C14.2428 8.71112 14.0042 8.51835 14.0018 8.02018C13.9994 7.34165 13.9994 6.66312 14.0018 5.98458C14.0042 5.48451 14.2404 5.29078 14.8559 5.28887C15.5072 5.28601 16.1585 5.28792 16.8588 5.28792C16.8588 4.72581 16.8552 4.19424 16.86 3.66268C16.8635 3.20937 17.1105 3.00609 17.6699 3.00323C18.5622 2.99941 19.4557 2.99846 20.348 3.00323C20.88 3.00609 21.1353 3.21223 21.14 3.64073C21.146 4.1742 21.1412 4.70863 21.1412 5.28792C21.8188 5.28792 22.4677 5.28696 23.1167 5.28792C23.7644 5.28982 23.997 5.47687 23.9982 5.9989C24.0006 6.66502 24.0006 7.33211 23.9982 7.99823C23.997 8.52217 23.7644 8.71112 23.1214 8.71303C22.4832 8.71494 21.845 8.71303 21.1412 8.71303C21.1412 9.23601 21.1424 9.74276 21.1412 10.2495C21.14 10.8202 20.9217 10.9987 20.2179 10.9987C19.3698 10.9996 18.5217 11.0015 17.6735 10.9977C17.1128 10.9949 16.8635 10.7925 16.86 10.3411C16.854 9.82006 16.8588 9.29613 16.8588 8.71494ZM22.5524 6.4293C21.8916 6.4293 21.2832 6.4293 20.6736 6.4293C19.9281 6.42835 19.7157 6.26134 19.7145 5.67347C19.7133 5.16767 19.7145 4.66187 19.7145 4.16275C19.2028 4.16275 18.7626 4.16275 18.2831 4.16275C18.2831 4.70195 18.2855 5.22207 18.2819 5.74313C18.2783 6.23557 18.0361 6.42739 17.4146 6.4293C16.7645 6.43121 16.1156 6.43026 15.4535 6.43026C15.4535 6.82917 15.4535 7.18991 15.4535 7.57546C16.118 7.57546 16.755 7.57451 17.392 7.57546C18.0445 7.57737 18.2795 7.76251 18.2819 8.27881C18.2843 8.79797 18.2819 9.31713 18.2819 9.83533C18.7889 9.83533 19.2398 9.83533 19.7133 9.83533C19.7133 9.29995 19.711 8.78938 19.7133 8.27881C19.7157 7.76156 19.9495 7.57737 20.6021 7.57546C21.2498 7.57355 21.8987 7.57546 22.55 7.57546C22.5524 7.17178 22.5524 6.81963 22.5524 6.4293Z" fill="#029967"/>
<path d="M13.0305 13.0022C13.4465 13.0022 13.8637 12.998 14.2797 13.003C14.7503 13.0097 14.9917 13.1907 14.995 13.547C15.0017 14.1819 15.0017 14.8168 14.995 15.4517C14.9917 15.8072 14.7491 15.9924 14.2797 15.9957C13.4198 16.0016 12.5588 16.0016 11.6989 15.9949C11.2539 15.9915 11.0103 15.8047 11.0058 15.4668C10.9981 14.8218 10.9981 14.1761 11.0058 13.5311C11.0103 13.1932 11.2528 13.0105 11.6989 13.0038C12.1416 12.9963 12.5866 13.0022 13.0305 13.0022ZM12.3396 14.9812C12.7968 14.9812 13.2173 14.9812 13.6378 14.9812C13.6378 14.6458 13.6378 14.3304 13.6378 14.0242C13.1873 14.0242 12.7657 14.0242 12.3396 14.0242C12.3396 14.3496 12.3396 14.65 12.3396 14.9812Z" fill="#029967"/>
<path d="M20.9978 14.5148C20.9978 14.826 21.0034 15.138 20.9967 15.4492C20.9889 15.8054 20.7519 15.9931 20.288 15.9956C19.4301 16.0015 18.5712 16.0015 17.7133 15.9956C17.2483 15.9923 17.0079 15.8054 17.0046 15.45C16.999 14.8168 16.9979 14.1836 17.0046 13.5504C17.0079 13.1817 17.2505 13.0056 17.7534 13.0031C18.5834 12.999 19.4146 12.999 20.2446 13.0031C20.7608 13.0056 20.9912 13.185 20.9956 13.5804C21.0001 13.8916 20.9978 14.2028 20.9978 14.5148ZM18.3609 14.0134C18.3609 14.353 18.3609 14.6683 18.3609 14.9762C18.8115 14.9762 19.2321 14.9762 19.646 14.9762C19.646 14.6433 19.646 14.3354 19.646 14.0134C19.2143 14.0134 18.8037 14.0134 18.3609 14.0134Z" fill="#029967"/>
<path d="M25.0299 13.0024C25.4461 13.0024 25.8633 12.9982 26.2795 13.0032C26.7502 13.0099 26.9917 13.1901 26.995 13.5465C27.0017 14.1815 27.0017 14.8166 26.995 15.4516C26.9917 15.808 26.7491 15.9924 26.2806 15.9957C25.4205 16.0016 24.5592 16.0016 23.6991 15.9949C23.254 15.9915 23.0092 15.8046 23.0058 15.4675C22.9981 14.8224 22.9981 14.1765 23.0058 13.5314C23.0103 13.1935 23.2529 13.0107 23.6991 13.0032C24.1408 12.9965 24.5848 13.0024 25.0299 13.0024ZM25.6575 14.0255C25.2246 14.0255 24.794 14.0255 24.3589 14.0255C24.3589 14.3518 24.3589 14.6672 24.3589 14.9768C24.8085 14.9768 25.2291 14.9768 25.6575 14.9768C25.6575 14.653 25.6575 14.3526 25.6575 14.0255Z" fill="#029967"/>
<path d="M18.9871 25.9975C18.571 25.9975 18.1539 26.002 17.7378 25.9964C17.2595 25.9897 17.0103 25.7538 17.0058 25.2876C16.9981 24.4275 16.9981 23.5663 17.0058 22.7062C17.0103 22.2566 17.2539 22.0107 17.7022 22.0063C18.5621 21.9974 19.4231 21.9985 20.283 22.0063C20.7514 22.0107 20.9917 22.2577 20.995 22.734C21.0017 23.5807 21.0017 24.4275 20.995 25.2743C20.9917 25.7472 20.748 25.9886 20.2775 25.9975C19.8481 26.0031 19.4176 25.9975 18.9871 25.9975ZM19.6512 23.3626C19.1951 23.3626 18.7746 23.3626 18.3674 23.3626C18.3674 23.8144 18.3674 24.235 18.3674 24.6456C18.8124 24.6456 19.2229 24.6456 19.6512 24.6456C19.6512 24.2116 19.6512 23.8011 19.6512 23.3626Z" fill="#029967"/>
<path d="M14.9976 24.0063C14.9976 24.4368 15.0043 24.8673 14.9954 25.2967C14.9854 25.7428 14.7427 25.9897 14.2943 25.9942C13.434 26.0019 12.5726 26.0019 11.7124 25.9942C11.2461 25.9897 11.0079 25.7405 11.0046 25.2622C10.999 24.4156 10.9979 23.5691 11.0046 22.7225C11.0079 22.2497 11.2505 22.0083 11.7257 22.005C12.5726 21.9983 13.4195 21.9983 14.2664 22.005C14.7594 22.0083 14.9909 22.252 14.9965 22.757C15.002 23.1731 14.9976 23.5891 14.9976 24.0063ZM12.3656 23.3466C12.3656 23.8127 12.3656 24.2332 12.3656 24.6448C12.8108 24.6448 13.2214 24.6448 13.6421 24.6448C13.6421 24.202 13.6421 23.7815 13.6421 23.3466C13.2048 23.3466 12.7941 23.3466 12.3656 23.3466Z" fill="#029967"/>
<path d="M25.025 17.0029C25.4542 17.0029 25.8823 16.9951 26.3116 17.0051C26.7341 17.0151 26.9876 17.2565 26.9921 17.6748C27.0021 18.5603 27.0032 19.4459 26.9921 20.3325C26.9865 20.7464 26.7274 20.99 26.3027 20.9933C25.4309 21.0022 24.5591 21.0022 23.6884 20.9933C23.2659 20.9889 23.0124 20.7408 23.0079 20.3236C22.9979 19.4381 22.9968 18.5526 23.0079 17.6659C23.0135 17.2521 23.2704 17.014 23.6973 17.0051C24.1388 16.9951 24.5813 17.0029 25.025 17.0029ZM24.3489 19.6361C24.8082 19.6361 25.2285 19.6361 25.6466 19.6361C25.6466 19.1945 25.6466 18.784 25.6466 18.3557C25.2063 18.3557 24.7859 18.3557 24.3489 18.3557C24.3489 18.7895 24.3489 19.2 24.3489 19.6361Z" fill="#029967"/>
<path d="M13.0288 20.997C12.5984 20.997 12.168 21.0015 11.7387 20.9959C11.2594 20.9892 11.0103 20.7545 11.0058 20.2896C10.9981 19.4297 10.9981 18.5687 11.0058 17.7089C11.0103 17.2583 11.2527 17.0114 11.6998 17.007C12.574 16.9981 13.4481 16.9969 14.3223 17.0081C14.7416 17.0125 14.9885 17.2661 14.9929 17.6911C15.0018 18.5654 15.0029 19.4397 14.9929 20.314C14.9885 20.7523 14.7315 20.9892 14.2778 20.997C13.8607 21.0037 13.4448 20.997 13.0288 20.997ZM12.3504 19.6455C12.8097 19.6455 13.2201 19.6455 13.6405 19.6455C13.6405 19.2028 13.6405 18.7823 13.6405 18.3629C13.1934 18.3629 12.773 18.3629 12.3504 18.3629C12.3504 18.8034 12.3504 19.2139 12.3504 19.6455Z" fill="#029967"/>
<path d="M19.0091 17.0036C19.4382 17.0036 19.8662 16.997 20.2953 17.0059C20.7422 17.0148 20.989 17.2561 20.9935 17.7008C21.0024 18.5726 21.0024 19.4444 20.9924 20.315C20.9879 20.7354 20.7378 20.9878 20.3187 20.9922C19.4338 21.0022 18.5489 21.0033 17.6628 20.9911C17.266 20.9855 17.0136 20.7342 17.0081 20.3384C16.9969 19.4533 16.9981 18.5682 17.0069 17.6819C17.0114 17.2605 17.2593 17.0159 17.6806 17.0048C18.1242 16.9947 18.5666 17.0036 19.0091 17.0036ZM19.6594 18.358C19.2014 18.358 18.7812 18.358 18.3643 18.358C18.3643 18.8061 18.3643 19.2264 18.3643 19.6312C18.8157 19.6312 19.237 19.6312 19.6594 19.6312C19.6594 19.1975 19.6594 18.7972 19.6594 18.358Z" fill="#029967"/>
<path d="M24.9803 25.9978C24.5654 25.9978 24.1493 26.0034 23.7344 25.9967C23.2595 25.9889 23.0103 25.753 23.0058 25.289C22.9981 24.431 22.9981 23.5719 23.0058 22.7139C23.0103 22.2476 23.2572 22.0083 23.7333 22.005C24.5776 21.9983 25.4219 21.9983 26.2661 22.005C26.7578 22.0083 26.9936 22.2521 26.9958 22.7539C27.0014 23.5841 27.0014 24.4154 26.9958 25.2456C26.9925 25.7608 26.7522 25.9923 26.2261 25.9978C25.8101 26.0012 25.3952 25.9978 24.9803 25.9978ZM25.6454 24.6491C25.6454 24.1895 25.6454 23.7789 25.6454 23.3582C25.2027 23.3582 24.7823 23.3582 24.3629 23.3582C24.3629 23.8056 24.3629 24.2262 24.3629 24.6491C24.8034 24.6491 25.2138 24.6491 25.6454 24.6491Z" fill="#029967"/>
<path d="M27 28C27 28.6702 27 29.3106 27 30C26.6739 30 26.3478 30 26 30C26 29.349 26 28.6928 26 28C26.3244 28 26.6435 28 27 28Z" fill="#029967"/>
<path d="M27 31C27 31.3417 27 31.66 27 32C26.667 32 26.3425 32 26 32C26 31.6687 26 31.3417 26 31C26.3305 31 26.6471 31 27 31Z" fill="#029967"/>
<path d="M26 33C26.3439 33 26.6588 33 27 33C27 33.6534 27 34.3017 27 35C26.6816 35 26.3518 35 26 35C26 34.3552 26 33.7069 26 33Z" fill="#029967"/>
<path d="M7.99842 16.5291C7.99842 17.1147 8.00259 17.7013 7.99738 18.2868C7.9932 18.7753 7.77089 18.9956 7.2772 18.9977C6.09257 19.0008 4.90689 19.0008 3.72226 18.9977C3.22753 18.9966 3.00417 18.7764 3.00313 18.2868C2.99896 17.0886 2.99896 15.8903 3.00313 14.6931C3.00522 14.2275 3.23171 14.0052 3.70347 14.0031C4.90167 13.999 6.09988 13.999 7.29703 14.0031C7.76776 14.0052 7.9932 14.2286 7.99738 14.6931C8.00259 15.3058 7.99842 15.9174 7.99842 16.5291ZM6.73342 15.2755C5.89217 15.2755 5.0812 15.2755 4.27961 15.2755C4.27961 16.1147 4.27961 16.9257 4.27961 17.7305C5.11251 17.7305 5.91409 17.7305 6.73342 17.7305C6.73342 16.909 6.73342 16.1074 6.73342 15.2755Z" fill="#029967"/>
<path d="M3.00113 22.4719C3.00113 21.8864 2.998 21.2998 3.00217 20.7142C3.00635 20.2226 3.22446 20.0044 3.72017 20.0023C4.90466 19.9992 6.0902 19.9992 7.27469 20.0023C7.77041 20.0034 7.99478 20.2226 7.99687 20.71C8.00104 21.9083 8.00104 23.1066 7.99687 24.3038C7.99478 24.7693 7.76728 24.9948 7.2987 24.9969C6.10064 25.001 4.90258 25.001 3.70556 24.9969C3.22237 24.9948 3.00635 24.7672 3.00321 24.2683C2.99904 23.6702 3.00113 23.0711 3.00113 22.4719ZM6.73306 21.2758C5.89192 21.2758 5.08103 21.2758 4.27954 21.2758C4.27954 22.115 4.27954 22.926 4.27954 23.7308C5.11234 23.7308 5.91383 23.7308 6.73306 23.7308C6.73306 22.9083 6.73306 22.1066 6.73306 21.2758Z" fill="#029967"/>
<path d="M5.5291 26.0012C6.11466 26.0012 6.70127 25.9981 7.28683 26.0022C7.77741 26.0064 7.99661 26.2256 7.99765 26.7213C8.00078 27.9057 8.00078 29.0913 7.99765 30.2757C7.99661 30.7704 7.77637 30.9948 7.28788 30.9969C6.08961 31.001 4.89134 31.001 3.69412 30.9969C3.22859 30.9948 3.00522 30.7673 3.00313 30.2977C2.99896 29.0996 2.99896 27.9016 3.00313 26.7046C3.00522 26.2329 3.2265 26.0085 3.69307 26.0043C4.30578 25.997 4.91744 26.0012 5.5291 26.0012ZM6.73363 29.7352C6.73363 28.8899 6.73363 28.0884 6.73363 27.2702C5.90382 27.2702 5.09279 27.2702 4.27551 27.2702C4.27551 28.104 4.27551 28.9149 4.27551 29.7352C5.10323 29.7352 5.90486 29.7352 6.73363 29.7352Z" fill="#029967"/>
<path d="M33.5291 20.0016C34.1147 20.0016 34.7013 19.9984 35.2868 20.0026C35.7774 20.0068 35.9966 20.227 35.9977 20.7218C36.0008 21.9064 36.0008 23.0921 35.9977 24.2767C35.9966 24.7714 35.7764 24.9958 35.2879 24.9969C34.0896 25.001 32.8913 25.001 31.6941 24.9969C31.2286 24.9948 31.0052 24.7672 31.0031 24.2965C30.999 23.0983 30.999 21.9001 31.0031 20.703C31.0052 20.2322 31.2275 20.0068 31.6931 20.0026C32.3047 19.9974 32.9174 20.0016 33.5291 20.0016ZM34.7326 23.735C34.7326 22.8885 34.7326 22.087 34.7326 21.2718C33.9017 21.2718 33.0907 21.2718 32.2766 21.2718C32.2766 22.1068 32.2766 22.9178 32.2766 23.735C33.1053 23.735 33.9069 23.735 34.7326 23.735Z" fill="#029967"/>
<path d="M35.9989 16.5164C35.9989 17.1011 36.002 17.6867 35.9978 18.2713C35.9947 18.7672 35.7776 18.9948 35.2943 18.9969C34.0992 19.001 32.9031 19.001 31.7079 18.9969C31.2226 18.9948 31.0044 18.7693 31.0023 18.2745C30.9992 17.0917 30.9992 15.9089 31.0023 14.7261C31.0034 14.2145 31.2226 14.0026 31.7445 14.0016C32.9135 13.9995 34.0836 13.9995 35.2526 14.0016C35.788 14.0026 35.9957 14.2166 35.9978 14.7636C35.9999 15.3472 35.9989 15.9318 35.9989 16.5164ZM32.2674 17.7243C33.1045 17.7243 33.9155 17.7243 34.7213 17.7243C34.7213 16.887 34.7213 16.0759 34.7213 15.2658C33.8894 15.2658 33.0878 15.2658 32.2674 15.2658C32.2674 16.0874 32.2674 16.8891 32.2674 17.7243Z" fill="#029967"/>
<path d="M31.0016 28.4789C31.0016 27.8809 30.9974 27.284 31.0026 26.6861C31.0068 26.2395 31.2302 26.0068 31.6686 26.0047C32.8898 25.9984 34.1121 25.9984 35.3333 26.0047C35.7685 26.0068 35.995 26.2426 35.9961 26.6892C36.0013 27.8976 36.0013 29.106 35.9961 30.3144C35.994 30.7736 35.7623 30.9958 35.2905 30.9969C34.0954 31.001 32.8992 31.001 31.704 30.9969C31.2208 30.9948 31.0047 30.7673 31.0016 30.2716C30.9984 29.6747 31.0016 29.0768 31.0016 28.4789ZM34.7435 27.282C33.921 27.282 33.1006 27.282 32.275 27.282C32.275 28.1063 32.275 28.9171 32.275 29.7217C33.1132 29.7217 33.9242 29.7217 34.7435 29.7217C34.7435 28.8994 34.7435 28.1074 34.7435 27.282Z" fill="#029967"/>
</svg>
