<svg width="501" height="363" viewBox="0 0 501 363" fill="none" xmlns="http://www.w3.org/2000/svg">
<path d="M314.926 87.197C326.425 86.0655 337.284 85.0078 346.533 85.7826C366.666 87.4798 385.224 103.48 389.713 122.998C393.427 139.158 386.27 153.929 370.085 163.534C346.103 177.764 331.283 208.879 338.354 230.131C344.159 247.558 363.554 255.405 392.972 252.244C413.757 250.006 431.209 254.532 445.057 265.649C449.521 259.02 452.571 251.002 452.633 238.974C452.744 215.41 435.956 201.721 427.95 185.536C425.367 180.31 423.682 174.824 423.793 168.663C424.235 143.414 446.053 86.6804 409.674 56.2783C383.367 34.3007 331.824 51.3466 303.34 59.3776C285.2 64.4938 267.478 71.4794 249.423 77.1367C264.096 92.1656 289.837 89.6567 314.926 87.197Z" fill="#C4EBF2"/>
<path d="M238.662 350.534H104.644C104.644 350.534 50.9118 341.015 9.4902 203.357C6.9075 194.748 4.87823 186.693 3.3901 179.166C-17.0132 76.4849 59.4594 70.5201 105.136 76.6325C113.475 89.9764 120.559 111.462 111.249 141.311C105.284 160.435 93.4157 171.713 80.8343 180.334C76.1362 183.569 71.3275 186.422 66.6909 189.177C43.7664 202.804 23.9779 214.561 41.6141 256.844C59.9759 300.873 108.088 302.459 150.543 303.861C178.448 304.796 202.566 305.583 212.835 318.361L238.662 350.534Z" fill="#C4EBF2"/>
<path d="M443.765 267.482C441.994 269.88 440.051 272.106 437.997 274.32C436.497 275.931 434.947 277.53 433.398 279.178C433.349 279.227 433.312 279.264 433.262 279.313C432.832 279.744 432.414 280.199 431.996 280.654C430.36 282.376 428.724 284.159 427.101 286.077C426.867 286.36 426.633 286.631 426.412 286.901C426.178 287.184 425.945 287.467 425.723 287.738C425.49 288.021 425.256 288.303 425.035 288.586C424.801 288.881 424.567 289.177 424.346 289.472C423.657 290.345 423.005 291.267 422.341 292.214C422.12 292.522 421.911 292.842 421.689 293.161C420.816 294.453 419.98 295.806 419.156 297.22C406.095 320.009 426.388 350.522 426.388 350.522H241.232L241.294 350.214L214.594 316.971C203.685 303.394 179.1 302.57 150.629 301.635C108.838 300.258 61.4885 298.696 43.6801 255.995C26.7942 215.508 44.91 204.735 67.8346 191.108C72.5941 188.291 77.5135 185.352 82.3592 182.031C95.162 173.226 107.252 161.653 113.389 141.975C122.588 112.483 116.18 90.8989 108.002 77.0383C111.495 77.5549 114.791 78.1329 117.791 78.7355C144.922 84.1715 174.931 88.7097 203.045 86.705C206.058 86.496 209.047 86.2008 211.999 85.8318C223.977 84.3314 235.624 81.4043 247.111 77.887C262.509 94.5515 290.082 91.8704 315.134 89.423C326.535 88.3161 337.284 87.2585 346.348 88.021C365.239 89.6075 383.33 105.19 387.536 123.502C389.578 132.407 389.873 149.194 368.941 161.603C344.135 176.325 328.847 208.682 336.227 230.844C339.793 241.569 351.956 258.91 393.206 254.47C406.685 253.019 418.701 254.482 429.179 258.824C434.443 261.001 439.301 263.891 443.765 267.482Z" fill="#C4EBF2"/>
<path d="M212.835 318.373L238.662 350.534H104.644C104.644 350.534 50.9119 341.015 9.49024 203.357C6.90753 194.748 4.87827 186.693 3.39014 179.166C25.4661 169.536 60.8245 159.279 80.8343 180.346C76.1363 183.581 71.3275 186.434 66.691 189.189C43.7664 202.816 23.978 214.573 41.6141 256.856C59.9759 300.885 108.088 302.471 150.543 303.873C178.46 304.808 202.566 305.595 212.835 318.373Z" fill="#B0DEE2"/>
<path d="M452.645 238.986C452.645 239.478 452.633 239.945 452.621 240.425C452.608 240.72 452.608 240.991 452.596 241.286C452.571 241.606 452.559 241.938 452.534 242.258C452.534 242.393 452.522 242.528 452.51 242.663C452.485 243.143 452.448 243.61 452.411 244.078C452.362 244.668 452.313 245.258 452.239 245.824C452.202 246.132 452.165 246.439 452.129 246.747C451.944 248.112 451.723 249.428 451.44 250.67C451.292 251.346 451.145 251.986 450.973 252.625C450.825 253.203 450.665 253.781 450.493 254.335C450.173 255.417 449.804 256.462 449.398 257.459C449.214 257.963 448.992 258.455 448.783 258.947C448.562 259.463 448.328 259.967 448.082 260.459C447.873 260.89 447.652 261.296 447.443 261.702C447.431 261.726 447.418 261.763 447.394 261.788C447.16 262.218 446.926 262.649 446.68 263.067C446.619 263.19 446.533 263.325 446.459 263.448C446.016 264.198 445.537 264.924 445.057 265.637C444.639 266.264 444.196 266.867 443.753 267.47C443.729 267.507 443.704 267.543 443.667 267.58C443.347 268.023 443.003 268.454 442.671 268.884C442.523 269.068 442.376 269.265 442.228 269.45C441.847 269.917 441.466 270.384 441.072 270.852C440.974 270.962 440.875 271.073 440.777 271.196C439.867 272.254 438.945 273.287 437.985 274.32C436.497 275.943 434.947 277.542 433.386 279.178C433.336 279.227 433.299 279.264 433.25 279.313C432.82 279.744 432.402 280.199 431.983 280.654C430.348 282.376 428.712 284.159 427.089 286.077C426.867 286.348 426.634 286.631 426.4 286.901C426.179 287.184 425.945 287.467 425.711 287.738C425.478 288.021 425.256 288.303 425.022 288.586C424.789 288.881 424.567 289.164 424.334 289.472C423.645 290.345 422.993 291.267 422.329 292.214C422.12 292.522 421.899 292.842 421.677 293.161C420.804 294.453 419.968 295.806 419.144 297.22C406.083 320.009 426.375 350.522 426.375 350.522H241.232L241.294 350.214L214.594 316.971C203.685 303.394 179.1 302.57 150.629 301.635C108.838 300.258 61.4886 298.696 43.6803 255.995C26.7943 215.508 44.9101 204.735 67.8347 191.108C72.5942 188.291 77.5137 185.352 82.3593 182.031C86.8975 187.394 90.5256 194.551 92.8992 203.923C110.806 274.972 163.013 319.296 215.344 290.652C267.674 262.009 318.861 242.245 344.7 281.564C349.89 289.484 355.228 297.318 360.676 305.066C364.378 310.342 366.358 317.845 371.684 321.866C383.97 331.164 395.026 307.834 401.053 300.713C412.195 287.541 424.125 275.341 429.216 258.836C429.438 258.123 429.659 257.397 429.831 256.659C430.262 255.11 430.618 253.523 430.889 251.9C432.881 240.487 426.695 229.651 424.211 218.866C421.8 208.363 423.129 197.417 427.15 187.48C427.408 186.84 427.691 186.201 427.974 185.561C435.968 201.721 452.756 215.422 452.645 238.986Z" fill="#B0DEE2"/>
<path d="M81.949 260.813C96.2248 254.653 102.804 238.087 96.644 223.811C90.4841 209.535 73.9176 202.956 59.6418 209.116C45.3659 215.276 38.7867 231.842 44.9467 246.118C51.1067 260.394 67.6731 266.973 81.949 260.813Z" fill="white"/>
<path d="M61.9559 153.13C77.5035 153.13 90.1074 140.526 90.1074 124.978C90.1074 109.431 77.5035 96.8268 61.9559 96.8268C46.4083 96.8268 33.8044 109.431 33.8044 124.978C33.8044 140.526 46.4083 153.13 61.9559 153.13Z" fill="white"/>
<path d="M149.055 56.3029C164.602 56.3029 177.206 43.6991 177.206 28.1515C177.206 12.6038 164.602 0 149.055 0C133.507 0 120.903 12.6038 120.903 28.1515C120.903 43.6991 133.507 56.3029 149.055 56.3029Z" fill="#EBF9FC"/>
<path d="M472.223 135.827C487.77 135.827 500.374 123.223 500.374 107.675C500.374 92.1275 487.77 79.5237 472.223 79.5237C456.675 79.5237 444.071 92.1275 444.071 107.675C444.071 123.223 456.675 135.827 472.223 135.827Z" fill="#EBF9FC"/>
<path d="M388.729 121.35C404.277 121.35 416.881 108.746 416.881 93.1986C416.881 77.651 404.277 65.0472 388.729 65.0472C373.182 65.0472 360.578 77.651 360.578 93.1986C360.578 108.746 373.182 121.35 388.729 121.35Z" fill="white"/>
<path d="M428.897 229.811C444.444 229.811 457.048 217.208 457.048 201.66C457.048 186.112 444.444 173.508 428.897 173.508C413.349 173.508 400.745 186.112 400.745 201.66C400.745 217.208 413.349 229.811 428.897 229.811Z" fill="white"/>
<path d="M345.389 106.961C349.084 106.961 352.079 103.965 352.079 100.27C352.079 96.5753 349.084 93.5799 345.389 93.5799C341.694 93.5799 338.699 96.5753 338.699 100.27C338.699 103.965 341.694 106.961 345.389 106.961Z" fill="white"/>
<path d="M309.748 35.3584C313.443 35.3584 316.438 32.363 316.438 28.668C316.438 24.9729 313.443 21.9775 309.748 21.9775C306.053 21.9775 303.058 24.9729 303.058 28.668C303.058 32.363 306.053 35.3584 309.748 35.3584Z" fill="#EBF9FC"/>
<path d="M185.348 67.5192C189.043 67.5192 192.038 64.5238 192.038 60.8288C192.038 57.1338 189.043 54.1384 185.348 54.1384C181.653 54.1384 178.657 57.1338 178.657 60.8288C178.657 64.5238 181.653 67.5192 185.348 67.5192Z" fill="#EBF9FC"/>
<path d="M112.319 141.643C112.319 145.332 109.33 148.333 105.628 148.333C101.939 148.333 98.9377 145.345 98.9377 141.643C98.9377 137.953 101.926 134.952 105.628 134.952C109.33 134.965 112.319 137.953 112.319 141.643Z" fill="white"/>
<path d="M110.695 263.116C114.39 263.116 117.386 260.121 117.386 256.426C117.386 252.73 114.39 249.735 110.695 249.735C107 249.735 104.005 252.73 104.005 256.426C104.005 260.121 107 263.116 110.695 263.116Z" fill="white"/>
<path d="M390.574 201.131C394.269 201.131 397.264 198.136 397.264 194.441C397.264 190.746 394.269 187.75 390.574 187.75C386.879 187.75 383.884 190.746 383.884 194.441C383.884 198.136 386.879 201.131 390.574 201.131Z" fill="white"/>
<path d="M137.666 350.534H104.644C104.644 350.534 103.242 346.611 99.8849 342.7C96.5273 338.777 86.7254 337.658 78.8912 334.952C74.6728 333.501 72.3114 328.126 70.2945 323.33C68.5727 319.222 67.0845 315.52 64.8954 315.028C60.1358 313.946 50.8996 311.634 47.2592 304.919C43.6188 298.204 33.8291 304.919 22.6251 297.245C11.4334 289.57 13.3889 277.222 20.3868 281.133C27.3847 285.057 35.5018 277.493 43.6188 278.489C51.7359 279.485 50.6167 288.402 57.6146 290.837C64.6125 293.272 73.283 292.608 79.1617 303.8C82.261 309.703 85.434 312.409 89.5048 314.327C93.1575 316.012 97.5481 317.082 103.23 319.197C115.27 323.662 137.666 350.534 137.666 350.534Z" fill="#4B92B5"/>
<path d="M21.5183 285.02C21.5183 285.02 25.7121 291.599 36.6333 290.837C47.5421 290.087 66.6664 307.059 70.2945 308.178C73.9226 309.297 72.8403 301.008 67.6995 296.593C62.5587 292.177 47.8742 288.242 44.1969 283.359C40.5073 278.489 21.5183 285.02 21.5183 285.02Z" fill="#54A5C6"/>
<path opacity="0.39" d="M124.236 350.534C124.236 350.534 101.287 329.405 86.7376 322.198C72.1884 314.991 71.3398 306.591 63.235 301.278C55.118 295.965 42.2413 294.428 42.2413 294.428C42.2413 294.428 58.3771 296.236 65.4734 301.094C72.5573 305.94 76.6651 315.705 91.5956 322.481C106.526 329.258 123.596 348.505 123.596 348.505L124.236 350.534Z" fill="#203A51"/>
<path opacity="0.39" d="M137.666 350.534H104.644C104.644 350.534 103.242 346.611 99.8847 342.7C96.5272 338.777 86.7252 337.658 78.891 334.952C74.6726 333.501 72.3113 328.126 70.2943 323.33C73.7625 323.834 77.7841 325.261 81.9903 328.421C94.2766 337.658 91.4848 336.293 99.6018 332.775C106.477 329.799 92.3826 322.42 89.517 314.315C93.1697 316 97.5603 317.07 103.242 319.185C115.27 323.662 137.666 350.534 137.666 350.534Z" fill="#203A51"/>
<path d="M470.564 242.393C473.786 242.233 475.619 235.075 476 233.107C476.246 231.853 476.345 230.562 476.135 229.295C476.025 228.618 475.767 227.868 475.127 227.487C474.241 226.958 473.061 227.364 472.286 227.967C471.191 228.815 470.454 229.996 469.851 231.201C468.855 233.181 468.166 235.297 467.785 237.461C467.637 238.297 467.539 239.158 467.736 239.995C467.932 240.831 468.449 241.667 469.285 242.085C469.728 242.319 470.158 242.417 470.564 242.393Z" fill="#C4ED45"/>
<path d="M467.908 253.117C470.614 254.421 475.324 249.981 476.517 248.714C477.267 247.903 477.943 247.005 478.337 245.972C478.546 245.418 478.669 244.766 478.312 244.201C477.821 243.414 476.677 243.204 475.767 243.303C474.488 243.438 473.368 243.979 472.335 244.594C470.638 245.603 469.125 246.845 467.846 248.272C467.354 248.825 466.887 249.403 466.666 250.104C466.444 250.805 466.506 251.641 466.998 252.318C467.256 252.699 467.563 252.957 467.908 253.117Z" fill="#C4ED45"/>
<path d="M473.344 261.615C471.597 259.303 465.03 261.013 463.283 261.579C462.177 261.935 461.107 262.415 460.209 263.116C459.729 263.497 459.274 264.001 459.299 264.641C459.323 265.526 460.246 266.215 461.107 266.535C462.324 266.978 463.628 267.015 464.87 266.941C466.924 266.83 468.941 266.437 470.847 265.785C471.573 265.539 472.311 265.244 472.876 264.739C473.442 264.235 473.836 263.497 473.75 262.698C473.7 262.267 473.565 261.911 473.344 261.615Z" fill="#C4ED45"/>
<path d="M461.463 259.574C461.463 259.574 465.989 249.108 463.701 246.98C461.414 244.853 456.863 249.612 457.38 254.003C457.54 255.368 457.983 256.807 458.585 258.086C458.954 258.873 460.639 261.48 461.463 259.574Z" fill="#C4ED45"/>
<path d="M450.776 276.054C450.825 275.993 450.874 275.931 450.923 275.857C451.428 275.119 451.747 274.295 452.006 273.459C452.645 271.319 452.817 269.056 452.498 266.879C452.375 266.08 452.19 265.268 451.735 264.579C450.333 262.427 447.898 263.251 446.766 265.207C445.746 266.978 445.401 269.056 445.807 270.987C446.225 272.918 447.381 274.701 449.054 275.943C449.46 276.238 450.013 276.521 450.481 276.288C450.591 276.238 450.69 276.152 450.776 276.054Z" fill="#C4ED45"/>
<path d="M446.151 280.666C446.127 280.199 446.397 279.756 446.693 279.387C448.168 277.554 450.604 276.497 453.112 276.398C455.129 276.325 458.917 277.087 459.114 279.485C459.2 280.469 458.438 281.306 457.601 281.884C454.736 283.876 450.407 283.937 447.271 282.043C446.779 281.748 446.287 281.367 446.164 280.838C446.164 280.777 446.164 280.727 446.151 280.666Z" fill="#C4ED45"/>
<path d="M436.042 289.755C436.251 289.779 436.485 289.73 436.731 289.57C437.985 288.808 439.363 286.975 439.965 285.708C440.863 283.839 441.097 281.699 440.556 279.645C440.273 278.575 439.633 277.407 438.477 277.124C437.715 276.927 436.903 277.185 436.325 277.641C435.747 278.096 435.378 278.735 435.083 279.387C434.32 281.06 434.025 282.904 434.185 284.749C434.234 285.512 434.591 289.582 436.042 289.755Z" fill="#C4ED45"/>
<path d="M413.154 312.728C413.327 312.765 413.523 312.728 413.646 312.593C413.757 312.47 425.379 300.344 430.508 295.56C432.242 293.936 433.951 292.3 435.673 290.665C438.625 287.848 441.687 284.934 444.774 282.154C448.439 278.858 452.608 275.119 455.892 270.839C458.954 266.842 461.34 262.378 463.64 258.049L464.439 256.548C467.588 250.67 471.548 240.081 471.585 239.97C471.671 239.736 471.536 239.466 471.265 239.367C470.995 239.269 470.712 239.392 470.626 239.638C470.589 239.749 466.653 250.276 463.529 256.118L462.73 257.618C460.442 261.911 458.069 266.35 455.056 270.286C451.821 274.504 447.689 278.219 444.048 281.478C440.937 284.269 437.887 287.184 434.923 290.001C433.213 291.636 431.492 293.272 429.77 294.883C424.629 299.692 412.994 311.831 412.884 311.954C412.699 312.138 412.736 312.433 412.945 312.605C413.007 312.667 413.081 312.704 413.154 312.728Z" fill="#334763"/>
<path d="M435.292 333.968C434.997 334.977 434.652 335.948 434.283 336.858C429.044 349.538 421.739 351.223 421.739 351.223H388.582L385.63 350.916C385.63 350.916 385.987 349.944 386.676 348.357C388.877 343.266 394.387 331.84 401.852 325.999C402.369 325.593 402.885 325.211 403.414 324.867C414.065 317.943 422.12 316.098 426.99 312.052C431.861 308.018 435.796 297.65 436.35 299.163C436.866 300.602 439.154 320.907 435.292 333.968Z" fill="#4B92B5"/>
<path d="M408.321 324.117C408.321 324.117 411.629 319.653 421.554 315.963C431.479 312.273 434.972 306.505 435.71 309.076C436.448 311.646 430.692 323.404 420.866 329.934C417.803 331.963 413.659 334.042 409.6 333.402C403.795 332.492 406.206 326.958 408.321 324.117Z" fill="#54A5C6"/>
<path d="M433.718 324.092C433.705 324.105 432.758 324.806 429.511 325.667C426.732 326.404 424.223 326.552 423.485 326.589C424.715 325.162 425.896 323.723 427.101 322.26C431.738 316.615 434.492 312.089 434.517 312.04L434.025 311.818C434 311.855 431.492 315.988 427.236 321.264C427.322 320.477 427.396 319.173 427.113 317.894C426.683 315.938 426.302 315.508 426.228 315.446C426.129 315.348 425.957 315.348 425.847 315.434C425.736 315.52 425.724 315.668 425.822 315.778C425.834 315.791 426.166 316.172 426.56 317.992C426.978 319.911 426.56 321.928 426.56 321.952C426.548 322.002 426.56 322.038 426.572 322.075C423.657 325.617 420.841 329.036 417.262 332.332C417.053 331.139 416.549 327.917 416.623 325.494C416.721 322.469 416.979 321.005 416.979 320.993C417.004 320.858 416.893 320.735 416.746 320.71C416.598 320.686 416.45 320.784 416.426 320.919C416.414 320.981 416.155 322.432 416.057 325.494C415.971 328.311 416.647 332.148 416.77 332.8C414.999 334.399 413.031 335.96 410.781 337.498C410.744 337.522 410.707 337.547 410.67 337.584C410.24 336.538 408.997 333.292 409.034 330.254C409.084 326.577 409.453 324.363 409.453 324.351C409.477 324.215 409.366 324.092 409.219 324.068C409.059 324.043 408.924 324.142 408.899 324.277C408.899 324.301 408.518 326.54 408.469 330.254C408.432 333.587 409.834 337.067 410.203 337.916C407.854 339.638 405.923 341.765 404.398 343.807C404.078 342.675 403.266 339.613 402.848 336.649C402.332 332.984 402.319 332.308 402.319 332.283C402.319 332.148 402.196 332.062 402.036 332.037C401.877 332.037 401.754 332.148 401.754 332.283C401.754 332.308 401.754 332.984 402.295 336.711C402.824 340.425 403.967 344.311 403.992 344.373C401.495 347.865 400.229 350.952 400.204 351.002L400.733 351.161C400.745 351.125 401.323 349.735 402.455 347.767C402.479 347.779 402.504 347.792 402.541 347.792C402.59 347.792 405.837 348.173 409.342 348.173C410.645 348.173 411.974 348.124 413.191 347.976C417.717 347.447 418.615 347.115 418.652 347.103C418.787 347.054 418.861 346.906 418.799 346.783C418.738 346.66 418.578 346.599 418.43 346.66C418.394 346.673 417.508 346.992 413.117 347.497C408.973 347.976 403.5 347.398 402.713 347.312C403.66 345.701 404.964 343.782 406.599 341.938C406.648 341.974 406.722 341.999 406.796 341.987C406.821 341.987 409.686 341.802 414.003 342.356C416.586 342.688 418.221 342.762 419.144 342.762C419.796 342.762 420.091 342.725 420.115 342.725C420.263 342.7 420.374 342.577 420.349 342.454C420.324 342.319 420.177 342.233 420.029 342.245C420.017 342.245 418.357 342.43 414.077 341.876C410.424 341.409 407.792 341.458 406.993 341.483C408.063 340.326 409.256 339.22 410.596 338.236C410.609 338.236 410.633 338.236 410.645 338.223C410.719 338.199 410.768 338.15 410.805 338.088C410.904 338.014 411.014 337.941 411.113 337.867C412.429 336.969 413.646 336.059 414.79 335.136C414.827 335.173 414.876 335.198 414.938 335.21C414.975 335.223 417.828 335.751 421.124 335.751C422.194 335.751 423.301 335.69 424.383 335.542C427.236 335.149 429.02 334.792 429.266 334.583C429.376 334.485 429.389 334.325 429.278 334.226C429.167 334.128 429.007 334.116 428.897 334.214C428.872 334.226 428.306 334.509 424.285 335.063C420.447 335.591 416.143 334.915 415.233 334.755C418.283 332.246 420.767 329.676 423.079 327.019C423.129 327.056 423.178 327.069 423.252 327.069C423.375 327.069 426.277 327.019 429.647 326.122C433.041 325.224 434.013 324.474 434.062 324.437C434.173 324.351 434.185 324.191 434.087 324.092C434.013 324.006 433.841 323.994 433.718 324.092Z" fill="#366E84"/>
<path opacity="0.39" d="M435.292 333.968C434.997 334.977 434.652 335.948 434.283 336.858C429.044 349.538 421.739 351.223 421.739 351.223L389.664 350.952C388.619 350.128 387.61 349.255 386.676 348.37C388.877 343.278 394.387 331.853 401.852 326.011C400.868 330.254 400.659 335.444 403.02 340.437C408.456 351.899 426.24 347.939 432.599 338.568C433.681 336.981 434.566 335.432 435.292 333.968Z" fill="#203A51"/>
<path d="M427.937 311.658C427.347 313.971 426.671 316.209 425.92 318.3C415.479 347.374 400.917 351.235 400.917 351.235H334.825L328.946 350.547C328.946 350.547 329.659 348.321 331.025 344.692C335.403 333.021 346.398 306.825 361.267 293.432C362.288 292.497 363.321 291.636 364.391 290.849C385.63 274.984 401.668 270.741 411.371 261.48C421.075 252.219 428.909 228.483 430.028 231.951C431.074 235.174 435.636 281.736 427.937 311.658Z" fill="#5DC990"/>
<path opacity="0.27" d="M374.168 289.091C374.168 289.091 380.772 278.846 400.549 270.397C420.325 261.948 427.286 248.702 428.762 254.605C430.237 260.496 418.775 287.455 399.171 302.422C393.071 307.071 384.819 311.831 376.714 310.367C365.178 308.276 369.974 295.596 374.168 289.091Z" fill="#E9F47D"/>
<path d="M424.801 289.017C424.777 289.029 422.883 290.665 416.426 292.633C410.891 294.33 405.886 294.674 404.422 294.736C406.87 291.476 409.231 288.168 411.629 284.811C420.878 271.873 426.351 261.48 426.412 261.382L425.416 260.865C425.367 260.964 420.374 270.409 411.888 282.511C412.072 280.703 412.207 277.727 411.654 274.787C410.805 270.298 410.043 269.327 409.895 269.179C409.686 268.958 409.354 268.958 409.133 269.155C408.911 269.351 408.887 269.696 409.071 269.929C409.096 269.966 409.76 270.827 410.547 274.996C411.371 279.387 410.559 284.023 410.547 284.06C410.535 284.159 410.547 284.257 410.584 284.343C404.779 292.473 399.159 300.307 392.013 307.87C391.607 305.14 390.599 297.761 390.746 292.19C390.931 285.266 391.447 281.896 391.46 281.859C391.509 281.552 391.3 281.269 390.992 281.219C390.697 281.17 390.402 281.379 390.353 281.687C390.328 281.822 389.812 285.155 389.627 292.165C389.455 298.61 390.808 307.415 391.042 308.904C387.512 312.556 383.601 316.147 379.112 319.677C379.038 319.739 378.964 319.8 378.89 319.862C378.03 317.476 375.558 310.01 375.631 303.049C375.73 294.613 376.455 289.558 376.468 289.509C376.517 289.201 376.308 288.918 376 288.869C375.693 288.82 375.41 289.041 375.361 289.336C375.349 289.386 374.611 294.514 374.512 303.037C374.426 310.662 377.23 318.644 377.968 320.612C373.295 324.56 369.433 329.442 366.407 334.128C365.78 331.545 364.157 324.51 363.308 317.722C362.263 309.334 362.251 307.772 362.251 307.711C362.251 307.403 361.992 307.194 361.685 307.157C361.377 307.157 361.131 307.403 361.131 307.711C361.131 307.772 361.144 309.309 362.201 317.857C363.259 326.368 365.534 335.284 365.571 335.432C360.59 343.45 358.069 350.51 358.032 350.633L359.09 351.002C359.114 350.928 360.258 347.718 362.509 343.217C362.558 343.241 362.619 343.266 362.681 343.278C362.767 343.29 369.236 344.164 376.234 344.164C378.817 344.164 381.486 344.041 383.921 343.721C392.948 342.516 394.731 341.753 394.805 341.716C395.088 341.593 395.211 341.261 395.088 340.978C394.965 340.695 394.633 340.56 394.35 340.683C394.276 340.708 392.505 341.433 383.773 342.602C375.521 343.709 364.6 342.393 363.025 342.184C364.919 338.494 367.502 334.103 370.761 329.86C370.872 329.946 371.007 329.996 371.155 329.971C371.204 329.971 376.923 329.541 385.532 330.832C390.673 331.594 393.932 331.754 395.776 331.754C397.068 331.754 397.67 331.681 397.72 331.668C398.027 331.619 398.236 331.336 398.199 331.041C398.162 330.734 397.867 330.524 397.572 330.561C397.535 330.561 394.239 330.992 385.692 329.725C378.411 328.643 373.159 328.753 371.573 328.827C373.701 326.183 376.099 323.625 378.768 321.387C378.804 321.374 378.829 321.374 378.866 321.362C379.013 321.301 379.124 321.19 379.173 321.042C379.382 320.87 379.592 320.698 379.801 320.538C382.42 318.472 384.855 316.393 387.118 314.29C387.192 314.376 387.29 314.438 387.401 314.462C387.475 314.475 393.169 315.717 399.737 315.717C401.864 315.717 404.078 315.594 406.218 315.25C411.9 314.34 415.454 313.54 415.946 313.036C416.168 312.814 416.204 312.433 415.983 312.212C415.762 311.99 415.442 311.966 415.221 312.187C415.171 312.212 414.052 312.864 406.033 314.143C398.384 315.36 389.812 313.811 388.004 313.454C394.079 307.698 399.036 301.795 403.648 295.732C403.746 295.806 403.857 295.855 403.98 295.855C403.98 295.855 403.98 295.855 403.992 295.855C404.238 295.855 410.031 295.732 416.746 293.678C423.497 291.612 425.453 289.902 425.539 289.828C425.773 289.619 425.785 289.275 425.576 289.041C425.391 288.832 425.035 288.808 424.801 289.017Z" fill="#317C6D"/>
<path opacity="0.27" d="M427.937 311.658C427.347 313.971 426.671 316.209 425.92 318.3C415.479 347.374 400.917 351.235 400.917 351.235L336.989 350.62C334.898 348.726 332.906 346.734 331.024 344.692C335.403 333.021 346.398 306.825 361.267 293.432C359.299 303.172 358.881 315.053 363.603 326.515C374.426 352.785 409.883 343.696 422.563 322.211C424.715 318.57 426.486 315.028 427.937 311.658Z" fill="#21544A"/>
<path d="M346.447 351.223H315.663C315.663 351.223 307.079 273.656 305.591 274.222C304.103 274.787 301.299 351.223 301.299 351.223C301.299 351.223 270.614 351.223 270.601 351.223C269.679 351.137 269.617 339.687 269.74 331.373C269.802 327.905 269.888 324.978 269.95 323.662C270.687 310.404 271.425 297.158 272.163 283.913C272.311 281.318 275.176 243.389 274.426 243.254C274.426 243.254 290.611 246.144 300.143 246.869C302.233 247.029 304.004 247.079 305.21 246.98C306.55 246.869 308.309 246.66 310.264 246.378C318.099 245.283 329.081 243.254 329.081 243.254L343.212 331.201L346.447 351.223Z" fill="#501A57"/>
<g opacity="0.5">
<path d="M281.547 316.762C281.547 316.762 276.124 344.754 285.913 346.242C295.703 347.73 299.356 327.351 301.446 297.245C303.537 267.138 301.225 249.895 297.154 252.551C293.083 255.196 281.547 316.762 281.547 316.762Z" fill="#6C2C77"/>
<path d="M310.523 264.001C309.625 266.191 309.76 268.847 309.969 271.282C311.802 292.694 313.634 314.106 315.467 335.53C315.897 340.523 318.049 345.111 323.006 346.882C328.061 348.69 335.341 347.324 337.149 341.581C337.703 339.81 337.58 337.916 337.42 336.071C336.276 321.952 334.456 307.895 331.996 293.936C330.828 287.307 329.499 280.691 327.974 274.123C327.027 270.04 325.884 265.748 322.895 262.808C319.907 259.857 314.483 258.984 311.666 262.107C311.187 262.685 310.806 263.325 310.523 264.001Z" fill="#6C2C77"/>
</g>
<path d="M354.466 327.216C352.83 328.262 348.402 329.774 343.212 331.201C333.656 333.845 321.505 336.231 319.575 334.952C316.586 332.997 316.967 331.139 316.402 325.544C316.057 322.026 313.032 282.658 310.72 252.256C310.56 250.252 310.412 248.296 310.277 246.39C309.121 231.066 308.223 219.05 308.075 216.959C307.915 214.696 308.69 203.283 309.76 189.189C311.703 163.633 314.618 129.307 314.741 124.978C314.79 123.109 314.729 121.178 314.618 119.382C314.348 114.697 313.708 110.798 313.708 110.798C313.708 110.798 317.631 112.803 319.156 116.025C320.706 119.247 321.69 121.485 321.69 121.485C321.69 121.485 347.013 131.14 348.968 135.051C350.924 138.974 341.97 163.411 340.482 175.353C339.338 184.454 338.305 190.198 338.797 200.159C338.859 201.439 338.945 202.779 339.056 204.218C339.228 206.272 339.449 208.523 339.744 210.995C341.749 228.188 346.287 230.328 349.964 261.148C350.038 261.763 350.112 262.403 350.186 263.054C353.912 295.683 359.127 324.228 354.466 327.216Z" fill="#EBF4F7"/>
<path d="M349.952 261.124C348.538 260.066 347.308 258.442 346.447 256.216C342.241 245.332 326.904 244.988 329.18 243.758C331.455 242.528 326.867 236.071 330.471 230.746C334.062 225.433 339.055 204.193 339.055 204.193C339.228 206.247 339.449 208.498 339.744 210.97C341.736 228.163 346.262 230.303 349.952 261.124Z" fill="#C6DFE5"/>
<path d="M302.418 216.763C302.074 219.616 301.237 231.582 300.143 246.882C299.897 250.375 299.626 254.052 299.343 257.815C298.089 275.046 296.601 294.453 295.137 309.457C293.957 321.67 292.764 330.967 291.743 333.796C291.558 334.3 291.386 334.595 291.214 334.681C291.066 334.743 290.882 334.804 290.648 334.854C287.709 335.419 278.153 333.698 269.741 331.398C268.609 331.09 267.515 330.77 266.432 330.451C260.172 328.557 255.241 326.466 255.401 325.002C255.474 324.154 256.102 318.693 257.061 310.539C257.504 306.579 258.045 301.992 258.635 296.974C259.951 285.881 261.501 272.733 263.063 259.98C265.707 238.371 268.351 217.845 269.691 210.072C269.876 209.014 270.036 207.932 270.171 206.838C270.688 202.816 270.897 198.573 270.921 194.293V194.17C270.946 187.504 270.491 180.752 269.95 174.591C269.261 166.818 268.388 160.029 268.08 155.589C267.33 144.779 271.069 127.044 271.069 127.044C271.069 127.044 277.784 124.068 281.326 123.121C284.88 122.186 287.303 121.264 287.303 121.264C287.303 121.264 289.541 114.721 291.595 112.864C293.649 110.995 295.703 110.81 295.703 110.81C295.703 110.81 295.789 114.02 296.01 119.395C296.416 129.357 297.228 146.747 298.692 164.924C299.651 176.927 300.684 186.459 301.459 194.17V194.182C302.467 204.415 303.058 211.425 302.418 216.763Z" fill="#EBF4F7"/>
<path d="M279.764 246.98C277.243 247.669 269.704 252.404 263.062 259.943C265.707 238.334 268.351 217.808 269.691 210.035C269.876 208.978 270.036 207.895 270.171 206.801C271.967 212.593 275.004 220.6 279.038 224.314C285.717 230.476 283.884 245.849 279.764 246.98Z" fill="#C6DFE5"/>
<path opacity="0.68" d="M337.862 164.457L319.599 166.055C320.423 164.1 321.259 162.157 322.034 160.3L337.161 159.082C337.334 160.988 337.567 162.772 337.862 164.457Z" fill="white"/>
<path d="M309.945 241.938C310.043 243.377 310.154 244.865 310.265 246.378C308.309 246.66 306.55 246.87 305.21 246.98C304.005 247.079 302.234 247.029 300.143 246.87C301.237 231.582 302.074 219.616 302.418 216.75C303.058 211.425 302.48 204.403 301.446 194.133V194.121C300.672 186.422 299.639 176.878 298.679 164.875C297.228 146.698 296.404 129.307 295.998 119.345C295.998 119.345 298.2 120.661 300.106 122.998C300.573 123.576 301.041 124.24 301.434 124.941C303.427 128.496 303.611 129.049 303.611 129.049C303.611 129.049 310.929 118.423 314.594 119.345C314.704 121.153 314.766 123.072 314.717 124.941C314.594 129.27 311.679 163.596 309.736 189.152C308.678 203.246 307.903 214.66 308.051 216.922C308.198 218.841 308.949 228.766 309.945 241.938Z" fill="#33CAD1"/>
<path d="M326.289 246.833V247.374C326.289 249.071 327.667 250.436 329.352 250.436H342.733C344.43 250.436 345.795 249.059 345.795 247.374V246.833C345.795 245.135 344.418 243.77 342.733 243.77H329.352C327.655 243.77 326.289 245.135 326.289 246.833Z" fill="white"/>
<path d="M269.544 243.254H281.068C282.765 243.254 284.13 244.631 284.13 246.316V246.55C284.13 248.272 282.716 249.649 281.006 249.612L269.482 249.378C267.65 249.342 266.26 247.706 266.506 245.898C266.715 244.385 268.006 243.254 269.544 243.254Z" fill="white"/>
<path d="M281.141 243.254H266.875C266.875 243.254 264.563 240.204 266.924 237.166C269.777 235.825 272.459 235.1 274.697 234.719C276.271 235.161 277.353 235.911 277.353 235.911L277.796 236.772L280.908 242.786L281.141 243.254Z" fill="#FFC7AE"/>
<path d="M343.557 243.758H329.167L329.598 242.959L332.156 238.211L332.918 236.772C332.918 236.772 333.226 236.539 333.755 236.207C336.903 236.588 341.134 237.277 344.664 238.531C344.848 241.175 343.557 243.758 343.557 243.758Z" fill="#FFC7AE"/>
<path d="M335.993 173.976C335.993 177.481 333.152 180.334 329.635 180.334C326.13 180.334 323.276 177.493 323.276 173.976C323.276 170.471 326.117 167.617 329.635 167.617C333.152 167.617 335.993 170.471 335.993 173.976Z" fill="#374877"/>
<path d="M332.697 173.976C332.697 175.661 331.332 177.026 329.647 177.026C327.962 177.026 326.597 175.661 326.597 173.976C326.597 172.291 327.962 170.926 329.647 170.926C331.332 170.926 332.697 172.291 332.697 173.976Z" fill="#1B223A"/>
<path d="M270.921 194.133C270.946 187.467 270.491 180.715 269.949 174.554L270.638 168.257C270.638 168.257 272.2 159.328 273.504 162.575C274.795 165.822 271.265 185.487 270.921 194.133Z" fill="#C6DFE5"/>
<path d="M338.785 200.147C337.875 194.49 336.928 187.135 336.928 180.888C336.928 168.798 337.862 157.422 337.862 157.422L340.482 175.329C339.338 184.442 338.305 190.185 338.785 200.147Z" fill="#C6DFE5"/>
<path d="M281.141 243.254H266.875C266.875 243.254 264.563 240.204 266.924 237.166C269.777 235.825 272.459 235.1 274.697 234.719C276.271 235.161 277.353 235.911 277.353 235.911L277.796 236.772C275.004 238.826 271.647 241.569 272.705 242.208C273.074 242.43 276.21 242.627 280.908 242.774L281.141 243.254Z" fill="#F9AC8A"/>
<path d="M343.557 243.758H329.167L329.598 242.959C334.382 242.786 337.309 242.553 336.928 242.208C336.042 241.397 333.952 239.663 332.144 238.211L332.906 236.772C332.906 236.772 333.214 236.539 333.742 236.207C336.891 236.588 341.122 237.277 344.651 238.531C344.848 241.175 343.557 243.758 343.557 243.758Z" fill="#F9AC8A"/>
<path d="M271.069 127.007C271.069 127.007 260.799 130.562 258.291 139.232C255.769 147.903 240.384 185.413 243.458 201.365C246.533 217.316 263.604 241.175 265.288 242.122C266.973 243.069 278.62 236.723 279.038 233.366C279.469 230.008 265.842 204.07 265.473 193.063C265.104 182.056 271.069 168.085 272.372 149.981C273.676 131.865 271.069 127.007 271.069 127.007Z" fill="#EBF4F7"/>
<path d="M325.466 119.899L315 111.29C312.552 109.273 309.465 108.166 306.304 108.166H303.131C300.143 108.166 297.191 109.162 294.805 110.982L286.664 117.218C284.142 119.149 282.371 121.904 281.646 124.991L281.621 125.077C280.846 128.299 278.706 131.029 275.742 132.579C275.214 132.849 275.017 132.997 274.869 133.12C270.552 137.154 269.618 144.767 270.122 150.067L272.348 149.846C271.844 144.668 272.901 138.002 276.345 134.78C276.431 134.719 276.579 134.645 276.763 134.547C278.018 133.895 279.137 133.058 280.108 132.087C282.039 132.862 283.724 133.919 284.991 135.186C287.721 137.904 287.451 141.618 287.156 145.554L287.082 146.513L289.32 146.673L289.394 145.726C289.689 141.655 290.033 137.055 286.565 133.612C285.237 132.296 283.527 131.177 281.609 130.328C282.63 128.889 283.392 127.266 283.798 125.507L283.823 125.421C284.438 122.875 285.913 120.6 287.992 119.001L296.133 112.766C298.126 111.241 300.598 110.404 303.094 110.404H306.268C308.912 110.404 311.507 111.327 313.548 113.012L324.014 121.621C326.671 123.81 328.184 127.032 328.184 130.463V168.245H330.422V130.463C330.459 126.368 328.639 122.519 325.466 119.899Z" fill="#1B2656"/>
<path d="M282.703 179.658C282.445 179.658 282.285 179.633 282.248 179.621L282.457 178.526C282.593 178.551 286.061 179.043 288.459 172.537C290.993 165.674 287.623 145.591 287.586 145.394L288.594 146.488C288.742 147.276 292.149 165.773 289.517 172.918C287.242 179.055 283.909 179.658 282.703 179.658Z" fill="#374877"/>
<path d="M283.33 179.117C283.33 179.117 281.584 177.026 280.809 177.346C280.034 177.653 279.198 179.104 280.243 180.334C281.301 181.564 283.33 179.117 283.33 179.117Z" fill="#1B223A"/>
<path d="M276.296 178.981C276.296 178.981 278.473 176.399 279.051 177.727C279.629 179.055 278.534 181.687 277.673 180.666C276.812 179.633 276.296 178.981 276.296 178.981Z" fill="#1B223A"/>
<path d="M276.812 179.633C276.702 179.621 274.094 179.375 270.934 174.923C267.797 170.495 270.712 150.731 270.835 149.895L271.942 150.055C271.106 155.651 269.458 170.913 271.844 174.271C274.648 178.243 276.886 178.514 276.898 178.514L276.812 179.633Z" fill="#374877"/>
<path d="M314.606 119.37C310.941 118.448 303.623 129.074 303.623 129.074C303.623 129.074 303.439 128.508 301.446 124.966C299.454 121.412 296.01 119.37 296.01 119.37V107.194H313.708L314.138 113.098L314.606 119.37Z" fill="#FFC7AE"/>
<path d="M314.139 113.085C311.642 115.447 308.776 117.402 306.145 117.402C303.316 117.402 299.466 114.721 295.998 111.696V107.182H313.696L314.139 113.085Z" fill="#ED8772"/>
<path d="M326.708 82.8433C325.724 80.3958 322.452 83.3598 322.452 83.3598V83.3721C322.489 82.0808 322.465 80.9001 322.378 79.9039C321.542 70.5324 321.96 66.0557 310.769 62.4153C299.577 58.7749 292.013 61.8496 289.922 67.0273C287.819 72.205 286.393 78.219 286.393 78.219C286.393 78.219 286.59 79.9654 287.069 82.6465V82.6219C287.069 82.6219 283.638 80.6664 283.281 83.8886C282.937 87.1109 284.88 91.5138 286.393 91.5138C287.893 91.5138 288.668 90.0379 288.668 90.0379V90.0133C291.14 99.6431 295.924 111.831 304.484 112.778C314.716 113.922 319.906 101.377 321.727 90.7144C322.255 91.3047 323.006 91.8335 323.867 91.5015C325.527 90.8865 327.691 85.2907 326.708 82.8433Z" fill="#FFC7AE"/>
<path d="M286.381 78.2313C286.381 78.2313 289.258 74.4064 290.661 70.766C292.063 67.1257 292.063 67.1257 292.063 67.1257C292.063 67.1257 307.264 64.7028 312.208 66.3754C317.152 68.0604 317.152 68.0603 317.902 70.6676C318.652 73.2749 322.477 79.1537 322.477 79.1537L322.465 83.3598C322.465 83.3598 324.15 81.2075 324.346 78.3174C324.531 75.4272 322.661 71.3195 323.326 68.8966C323.977 66.4738 323.891 65.4407 321.924 62.9318C319.968 60.4106 316.045 54.9132 307.46 53.3266C303.98 52.6871 300.462 52.1214 296.92 52.1337C295.174 52.146 293.342 52.1091 291.632 52.5641C290.341 52.9085 288.988 53.6218 288.619 54.9993C287.598 58.8118 288.152 62.3538 288.152 62.3661C288.189 62.5998 287.032 63.8296 286.873 64.0756C285.532 66.2156 284.733 68.6999 284.61 71.2334C284.327 76.7431 286.393 79.6333 286.393 79.6333V78.2313H286.381Z" fill="#1B2656"/>
<path d="M301.446 194.133C301.114 193.186 284.585 146.464 282.974 142.036C281.338 137.56 288.521 135.604 288.521 135.604L284.597 133.083C284.597 133.083 284.597 133.083 283.195 131.398C281.793 129.713 287.303 121.239 287.303 121.239C287.303 121.239 289.541 114.697 291.595 112.84C293.649 110.97 295.703 110.786 295.703 110.786C295.703 110.786 296.441 136.908 298.679 164.899C299.639 176.891 300.672 186.434 301.446 194.133Z" fill="white"/>
<path d="M329.278 142.873C328.995 143.77 325.871 151.236 322.034 160.3C321.247 162.157 320.423 164.1 319.599 166.056C316.032 174.468 312.244 183.323 309.748 189.177C311.691 163.62 314.606 129.295 314.729 124.966C314.913 118.251 313.696 110.786 313.696 110.786C313.696 110.786 317.619 112.79 319.144 116.013C320.694 119.235 321.677 121.473 321.677 121.473C321.677 121.473 328.343 131.312 327.778 132.8C327.212 134.288 322.563 136.527 322.563 136.527C322.563 136.527 330.016 140.45 329.278 142.873Z" fill="white"/>
<path d="M368.83 198.29C367.576 205.571 367.576 205.571 367.576 205.571C367.576 205.571 347.431 243.168 345.315 243.266C343.212 243.352 330.766 236.92 330.631 233.845C330.483 230.771 342.388 208.51 344.479 195.781C346.176 185.438 340.211 178.231 337.85 164.469C337.555 162.784 337.321 161.001 337.161 159.095C337.026 157.422 336.94 155.663 336.928 153.794C336.792 132.53 346.828 133.058 346.828 133.058C346.828 133.058 350.923 134.35 353.026 143.574C355.117 152.822 370.085 191.009 368.83 198.29Z" fill="#EBF4F7"/>
<path d="M310.277 246.378C308.321 246.66 306.562 246.869 305.222 246.98C304.017 247.079 302.246 247.029 300.155 246.87C301.249 231.582 302.086 219.616 302.43 216.75C303.07 211.425 302.492 204.402 301.459 194.133V194.121C300.684 186.422 299.651 176.878 298.691 164.875C297.24 146.698 296.416 129.307 296.01 119.345C296.01 119.345 296.379 118.743 298.285 121.08C298.052 133.796 299.675 166.535 302.688 179.092C306.513 195.105 300.475 231.57 305.369 238.962C306.366 240.462 307.989 241.397 309.945 241.913C310.055 243.377 310.166 244.865 310.277 246.378Z" fill="#3294B2"/>
<path d="M307.989 126.725C303.771 130.513 303.5 137.092 303.131 142.504C302.037 158.553 305.947 188.66 307.067 184.614C308.518 179.363 308.395 173.299 308.862 167.913C309.625 158.996 310.313 150.067 310.965 141.139C311.322 136.293 312.355 130.832 311.839 125.987C311.802 125.692 311.752 125.372 311.531 125.175C311.15 124.818 310.547 125.027 310.092 125.261C309.305 125.679 308.604 126.171 307.989 126.725Z" fill="#64DDDD"/>
<path opacity="0.46" d="M287.303 248.714C283.958 251.998 279.813 255.048 275.127 254.962C270.257 254.876 267.318 256.376 267.674 262.009C267.822 264.284 268.658 266.449 269.679 268.49C270.958 271.061 272.864 273.717 275.693 274.172C278.251 274.578 280.711 273.029 282.543 271.208C288.311 265.49 290.255 256.266 287.303 248.714Z" fill="white"/>
<path opacity="0.46" d="M329.671 253.609C329.425 253.966 329.253 254.433 329.142 255.011C328.134 260.324 332.967 269.843 336.927 273.016C343.925 278.612 346.84 270.409 344.688 262.759C343.556 258.75 332.488 249.391 329.671 253.609Z" fill="white"/>
<path opacity="0.46" d="M291.14 280.309C285.003 292.104 276.739 303.529 264.797 309.383C263.099 310.207 261.279 310.945 259.385 310.921C258.573 310.908 257.799 310.773 257.048 310.515C257.491 306.555 258.032 301.967 258.623 296.949C264.428 295.51 269.827 292.633 274.512 288.943C282.753 282.437 288.902 273.705 294.916 265.108C295.851 270.348 293.6 275.587 291.14 280.309Z" fill="white"/>
<path opacity="0.46" d="M295.137 309.445C293.956 321.657 292.764 330.955 291.743 333.784C291.361 334.153 290.993 334.497 290.648 334.841C287.709 335.407 278.153 333.685 269.741 331.385C268.609 331.078 267.515 330.758 266.432 330.438C276.738 327.979 289.91 322.346 295.137 309.445Z" fill="white"/>
<path opacity="0.46" d="M276.296 183.163C276.296 183.163 283.257 190.308 290.501 192.055C297.744 193.801 296.49 215.914 295.998 224.584C295.506 233.255 279.838 214.795 276.898 205.559C273.959 196.335 276.296 183.163 276.296 183.163Z" fill="white"/>
<path opacity="0.46" d="M332.697 184.983C332.697 184.983 327.839 186.237 323.289 184.983C318.738 183.729 316.635 182.019 314.753 189.177C312.872 196.335 314.126 210.884 323.289 211.72C332.451 212.556 332.697 184.983 332.697 184.983Z" fill="white"/>
<path d="M300.179 202.041C300.179 203.087 299.331 203.935 298.285 203.935C297.24 203.935 296.391 203.087 296.391 202.041C296.391 200.996 297.24 200.147 298.285 200.147C299.343 200.147 300.179 200.996 300.179 202.041Z" fill="#9DCED6"/>
<path d="M300.93 215.287C300.93 216.332 300.081 217.181 299.036 217.181C297.99 217.181 297.142 216.332 297.142 215.287C297.142 214.241 297.99 213.393 299.036 213.393C300.081 213.393 300.93 214.241 300.93 215.287Z" fill="#9DCED6"/>
<path opacity="0.46" d="M316.192 278.907C316.746 292.19 319.574 306.395 328.934 313.872C340.839 323.391 355.683 316.676 349.94 302.115C345.254 290.247 332.513 284.909 325.711 274.591C323.854 271.774 322.772 268.675 321.481 265.588C320.817 264.014 319.845 260.115 318.345 259.07C316.401 257.717 316.635 259.254 316.488 261.468C316.143 267.248 315.959 273.102 316.192 278.907Z" fill="white"/>
<path opacity="0.46" d="M263.062 141.2C263.198 142.762 264.218 144.471 264.378 146.193C264.637 149.034 264.624 151.9 264.354 154.728C263.358 165.391 258.364 175.439 252.768 184.43C251.92 185.795 241.921 199.963 243.286 192.067C245.279 180.506 256.606 138.876 259.68 138.211C262.73 137.572 263.062 141.102 263.062 141.2Z" fill="white"/>
<path opacity="0.46" d="M349.153 138.212C349.153 138.212 340.679 141.754 344.676 153.794C348.673 165.822 357.639 194.182 362.115 194.133C366.592 194.084 364.022 178.526 358.241 159.98C352.461 141.434 349.153 138.212 349.153 138.212Z" fill="white"/>
<path opacity="0.46" d="M250.186 201.672C251.293 201.721 252.35 201.844 253.039 201.857C256.507 201.869 260.652 203.099 261.734 206.813C263.604 213.221 270.171 238.506 265.854 236.219C261.55 233.931 246.078 207.354 245.869 203.935C245.746 201.66 248.599 201.598 250.186 201.672Z" fill="white"/>
<path opacity="0.46" d="M364.39 204.193C364.39 204.193 345.045 238.605 342.241 236.354C339.437 234.104 338.551 232.603 341.933 222.863C345.315 213.122 349.238 208.645 353.998 205.005C358.758 201.365 364.39 204.193 364.39 204.193Z" fill="white"/>
<path d="M208.888 303.382L208.162 312.925L205.272 350.522H146.202L144.517 312.458C144.517 312.458 156.447 301.721 177.809 299.471C178.473 299.409 179.137 299.335 179.826 299.286C179.888 299.286 179.949 299.274 180.011 299.274C202.714 297.577 208.888 303.382 208.888 303.382Z" fill="#6C2C77"/>
<path d="M179.998 336.674C183.282 350.251 205.271 350.534 205.271 350.534H176.702L177.452 315.545C177.452 315.545 177.452 315.532 177.452 315.52L177.796 299.495C178.374 299.434 178.977 299.372 179.58 299.323C179.653 299.311 179.74 299.311 179.813 299.298C179.875 299.298 179.936 299.286 179.998 299.286C202.726 297.577 208.887 303.381 208.887 303.381L208.162 312.925C205.468 313.54 201.951 313.737 197.843 313.737C185.938 313.761 176.714 323.108 179.998 336.674Z" fill="#501A57"/>
<path d="M177.796 299.483L177.452 315.508C177.452 315.52 177.452 315.533 177.452 315.533C177.452 315.533 163.973 318.337 156.827 317.5C149.694 316.664 146.337 328.274 149.411 341.433C150.407 345.652 152.744 348.554 155.474 350.522H146.189L144.504 312.458C144.504 312.47 156.434 301.733 177.796 299.483Z" fill="#501A57"/>
<path d="M164.538 127.007C162.275 129.32 158.992 131.533 155.72 131.816C151.305 132.21 148.095 128.434 146.521 124.732C145.353 121.99 143.385 115.102 147.013 113.393C150.555 111.708 153.617 111.905 153.617 111.905C153.617 111.905 149.682 91.194 172.139 88.021C194.596 84.8479 195.15 95.4862 195.334 107.244C195.519 119.001 186.75 121.793 186.75 121.793L164.538 127.007Z" fill="#1B2656"/>
<path d="M195.666 188.943C185.114 210.736 163.456 159.094 161.304 152.466C160.431 149.76 160.406 147.337 160.677 145.443C161.07 142.688 162.103 141.016 162.103 141.016C162.103 141.016 162.263 138.211 162.165 134.965C162.14 134.03 162.091 133.034 162.005 132.074C161.82 129.75 161.439 127.524 160.75 126.233C158.807 122.605 156.151 122.74 156.84 118.263C157.528 113.786 160.554 115.89 162.189 115.742C163.837 115.594 167.884 101.894 172.791 100.627C177.686 99.3602 182.162 97.4171 183.983 96.0027C185.79 94.613 187.611 93.1987 187.611 93.1987C187.611 93.1987 194.055 103.271 193.637 113.639C193.206 123.982 187.906 136.859 187.906 136.859C187.906 136.859 188.053 139.724 188.545 142.258C188.828 143.66 189.222 144.951 189.738 145.603C191.226 147.411 191.226 147.411 191.226 147.411C191.226 147.411 198.925 157.545 199.405 171.295C199.602 176.743 198.667 182.757 195.666 188.943Z" fill="#FFC7AE"/>
<path d="M195.666 188.943C185.114 210.736 163.456 159.094 161.304 152.466C160.431 149.76 160.406 147.337 160.677 145.443C164.231 150.867 181.191 176.128 187.057 175.624C193.637 175.058 193.317 156.733 193.317 156.733C193.317 156.733 196.466 163.399 199.417 171.295C199.602 176.743 198.667 182.757 195.666 188.943Z" fill="#F9AC8A"/>
<path d="M236.177 219.8C232.254 220.673 219.943 219.8 219.943 219.8C219.943 219.8 219.919 219.837 219.87 219.899C219.107 220.956 213.007 229.627 212.478 238.027C212.331 240.425 212.281 243.192 212.306 246.328C212.38 254.888 213.081 266.264 214.003 280.752C215.27 300.516 211.174 308.178 207.251 308.178C203.328 308.178 190.267 306.862 188.963 308.178C187.66 309.482 189.713 312.839 169.372 313.589C149.042 314.34 137.1 312.273 137.1 307.993C137.1 303.701 136.916 276.091 141.023 262.747C142.044 259.439 142.61 256.069 142.831 252.773C143.397 244.484 141.86 236.785 140.273 232.037C139.966 231.09 139.634 230.254 139.338 229.565C136.903 224.031 135.231 222.863 135.231 222.863C135.231 222.863 135.231 222.863 135.218 222.85C134.972 222.69 131.922 220.833 128.7 223.035C125.343 225.347 122.354 228.323 121.419 224.4C120.485 220.477 121.087 215.705 121.419 214.143C121.641 213.11 122.625 213.356 122.723 213.368C122.735 213.38 122.735 213.38 122.735 213.38C122.735 213.38 122.17 176.817 130.57 168.245C138.969 159.66 154.453 154.249 156.126 151.076C157.811 147.903 162.091 141.003 162.091 141.003C162.091 141.003 162.091 145.136 164.526 149.969C166.961 154.815 190.833 191.378 190.833 191.378C190.833 191.378 194.227 158.726 193.071 152.453C192.05 146.931 189.64 145.652 189.086 145.418C190.193 145.701 198.507 147.866 206.796 150.977C214.852 154.003 222.895 157.902 224.223 161.849C226.695 169.142 234.148 198.069 235.833 204.599C236.042 205.448 236.165 205.915 236.165 205.915C236.165 205.915 237.137 205.054 237.875 205.411C238.194 205.559 238.477 205.964 238.588 206.788C238.982 209.482 240.101 218.939 236.177 219.8Z" fill="#EBF4F7"/>
<path d="M212.478 238.027C212.331 240.425 212.282 243.192 212.306 246.328C210.105 245.344 207.51 245.025 204.693 246.267C196.429 249.956 185.188 248.936 176.259 248.702C169.089 248.518 154.208 248.247 142.832 252.761C143.397 244.471 141.86 236.772 140.273 232.025L153.581 204.181C153.581 204.181 189.234 208.978 193.194 217.156C197.167 225.322 203.931 226.601 210.314 225.076C216.119 223.699 219.316 220.44 219.858 219.886C219.107 220.956 213.007 229.639 212.478 238.027Z" fill="#C6DFE5"/>
<path d="M237.887 205.436C234.444 208.51 229.819 211.806 225.761 211.806H219.341L216.672 196.052L214.594 183.163L208.494 166.08C208.813 166.621 214.065 175.353 216.672 184.983C219.378 194.92 224.224 206.985 232.82 205.337C233.939 205.128 234.948 204.882 235.846 204.612C236.055 205.46 236.178 205.927 236.178 205.927C236.178 205.927 237.149 205.067 237.887 205.436Z" fill="#C6DFE5"/>
<path d="M190.845 191.378L190.476 196.052C190.476 196.052 174.057 177.21 171.081 172.352C168.105 167.507 170.7 166.572 171.069 164.764C171.13 164.457 170.761 163.866 170.073 163.092C168.892 161.739 166.764 159.808 164.538 157.914C160.517 154.47 156.138 151.076 156.138 151.076C157.823 147.903 162.103 141.003 162.103 141.003C162.103 141.003 162.103 145.136 164.538 149.969C166.961 154.815 190.845 191.378 190.845 191.378Z" fill="white"/>
<path d="M204.46 168.527C203.34 172.18 190.833 199.225 190.833 199.225L190.464 196.052L190.833 191.378C190.833 191.378 194.227 158.726 193.071 152.453C192.05 146.931 189.64 145.652 189.086 145.418C190.193 145.701 198.507 147.866 206.796 150.977C206.796 150.977 196.994 159.365 199.036 161.849C201.102 164.334 205.579 164.887 204.46 168.527Z" fill="white"/>
<path d="M135.231 222.85C134.985 222.69 131.935 220.833 128.713 223.035C126.388 224.634 124.248 226.552 122.834 226.282C122.194 226.159 121.715 225.605 121.432 224.4C120.497 220.477 121.1 215.705 121.432 214.143C121.653 213.11 122.637 213.356 122.735 213.368C122.748 213.38 122.748 213.38 122.748 213.38C122.748 213.38 129.278 212.827 130.299 213.762C131.295 214.684 134.985 222.346 135.219 222.813C135.231 222.838 135.231 222.85 135.231 222.85Z" fill="white"/>
<path d="M192.862 230.734C192.739 231.004 192.604 231.189 192.555 231.275L192.862 230.734Z" stroke="black" stroke-miterlimit="10"/>
<path d="M185.151 242.233C185.151 242.233 184.979 242.553 184.917 242.995C184.794 242.307 185.151 242.233 185.151 242.233Z" fill="#F9AC8A"/>
<path d="M190.845 199.212C190.845 199.212 194.645 247.534 192.555 267.691C190.464 287.836 188.976 308.178 188.976 308.178L195.888 307.637C195.888 307.637 191.214 305.325 191.497 297.232C191.78 289.14 194.375 273.029 194.375 255.934C194.375 238.838 192.173 205.128 193.379 198.093C194.584 191.071 196.343 187.221 196.343 187.221L190.845 199.212Z" fill="#9DCED6"/>
<path d="M166.58 271.614C166.113 275.181 165.781 277.247 164.292 278.059C163.456 278.526 162.239 278.6 160.418 278.329C155.733 277.641 140.814 277.272 137.666 274.824C137.666 274.812 137.666 274.812 137.666 274.812C137.432 274.627 137.26 274.443 137.162 274.234C136.645 273.115 136.547 271.577 136.719 269.991C136.94 267.789 137.666 265.477 138.453 263.989C138.478 263.94 138.502 263.903 138.515 263.854C138.687 263.546 145.734 264.678 146.496 264.789C149.546 265.158 152.572 265.6 155.585 266.215C157.774 266.658 167.072 267.974 166.58 271.614Z" fill="white"/>
<path d="M162.288 298.905C159.914 300.159 136.411 298.056 135.846 296.236C135.76 295.929 135.747 295.141 135.784 294.035C135.969 289.718 136.99 280.592 137.457 276.669C137.58 275.611 137.666 274.923 137.678 274.824C140.827 277.272 155.733 277.628 160.431 278.329C162.239 278.6 163.468 278.526 164.305 278.059C164.305 278.624 164.637 297.663 162.288 298.905Z" fill="#EBF4F7"/>
<path d="M215.332 271.147C215.332 271.577 215.073 272.106 214.643 272.623C213.106 274.492 209.367 276.423 207.276 275.23C206.661 274.886 206.194 274.271 205.96 273.299C205.025 269.499 204.706 267.42 204.706 267.42C204.706 267.42 205.05 267.248 205.603 266.99C207.534 266.08 211.974 264.001 212.983 263.805C213.893 263.62 214.692 266.117 215.086 268.478V268.49C215.245 269.462 215.332 270.421 215.332 271.147Z" fill="white"/>
<path d="M215.331 290.64C215.036 292.878 208.469 298.474 206.083 297.232C203.709 296.002 207.264 275.218 207.264 275.218C209.354 276.398 213.093 274.48 214.63 272.61C214.63 272.61 214.741 274.369 214.876 276.792C215.024 279.633 215.208 283.421 215.307 286.336C215.393 288.402 215.418 290.025 215.331 290.64Z" fill="#EBF4F7"/>
<path d="M190.82 273.029C190.82 274.062 189.984 274.91 188.939 274.91C187.893 274.91 187.057 274.074 187.057 273.029C187.057 271.995 187.893 271.147 188.939 271.147C189.984 271.147 190.82 271.983 190.82 273.029Z" fill="#9DCED6"/>
<path d="M190.82 202.041C190.82 203.074 189.984 203.923 188.939 203.923C187.893 203.923 187.057 203.087 187.057 202.041C187.057 201.008 187.893 200.159 188.939 200.159C189.984 200.159 190.82 200.996 190.82 202.041Z" fill="#9DCED6"/>
<path opacity="0.46" d="M220.78 219.013C220.706 220.809 213.942 228.704 213.942 228.704C213.942 228.704 213.352 228.225 212.503 227.401C210.67 225.63 207.633 222.334 206.809 219.001C206.157 216.443 206.046 208.67 206.624 201.967C206.686 201.242 206.76 200.528 206.833 199.84C207.411 194.81 208.444 190.849 210.019 191.009C213.794 191.378 218.062 196.052 218.062 196.052C218.062 196.052 218.406 198.634 218.849 202.09C219.661 208.486 220.841 217.845 220.78 219.013Z" fill="white"/>
<path d="M220.78 219.013C220.706 220.809 213.942 228.704 213.942 228.704C213.942 228.704 213.352 228.225 212.503 227.401C215.332 223.699 218.136 218.509 217.988 212.556C217.816 205.116 211.408 202.718 206.624 201.967C206.686 201.242 206.76 200.528 206.833 199.84C209.096 199.926 212.011 200.246 215.467 201.082C216.685 201.377 217.804 201.709 218.837 202.078C219.661 208.486 220.841 217.845 220.78 219.013Z" fill="#C6DFE5"/>
<path d="M155.032 152.269C155.032 152.269 156.975 152.675 156.839 154.212C156.704 155.749 154.035 156.315 153.617 161.763C153.199 167.224 152.633 169.265 151.244 168.527C149.854 167.79 150.493 163.719 150.543 159.39C150.592 155.061 155.032 152.269 155.032 152.269Z" fill="#1B2656"/>
<path d="M173.848 197.491C173.836 197.491 173.824 197.491 173.799 197.491C169.298 197.429 159.373 188.562 154.995 179.215C150.407 169.413 151.194 168.564 151.539 168.208C151.785 167.949 152.129 167.925 152.363 168.011L151.957 169.056C152.055 169.093 152.154 169.093 152.252 169.056C152.35 169.007 152.4 168.933 152.4 168.909C152.35 169.032 152.08 170.372 156.003 178.748C160.455 188.242 170.11 196.335 173.811 196.371C174.537 196.359 174.82 196.052 174.943 195.806C176.308 193.088 171.401 176.78 167.785 166.474L168.843 166.105C169.778 168.773 177.956 192.288 175.951 196.298C175.681 196.839 175.091 197.491 173.848 197.491Z" fill="#374877"/>
<path d="M170.06 163.092C170.06 163.092 170.06 167.851 167.256 166.105C164.452 164.346 164.674 158.049 164.526 157.926C166.764 159.808 168.88 161.739 170.06 163.092Z" fill="#1B2656"/>
<path d="M166.58 271.614C166.113 275.181 165.78 277.247 164.292 278.059C163.456 278.526 162.239 278.6 160.418 278.329C155.733 277.641 140.814 277.272 137.666 274.824C137.666 274.812 137.666 274.812 137.666 274.812C137.432 274.627 137.26 274.443 137.162 274.234C136.645 273.115 136.547 271.577 136.719 269.991C137.9 271.085 140.089 272.155 143.815 273.029C159.213 276.644 164.575 277.21 166.58 271.614Z" fill="#EBF4F7"/>
<path d="M215.332 271.147C215.332 271.577 215.073 272.106 214.643 272.623C213.106 274.492 209.367 276.423 207.276 275.23C206.661 274.886 206.194 274.271 205.96 273.299C205.025 269.499 204.706 267.42 204.706 267.42C204.706 267.42 205.05 267.248 205.603 266.99C206.243 267.949 206.846 269.105 207.214 270.36C208.334 274.135 213.831 271.061 215.086 268.478C215.245 269.462 215.332 270.421 215.332 271.147Z" fill="#EBF4F7"/>
<g opacity="0.44">
<path d="M164.292 278.059C164.305 278.624 164.624 297.663 162.288 298.905C159.914 300.159 136.411 298.056 135.846 296.236C135.76 295.929 135.747 295.141 135.784 294.035C139.351 296.15 150.309 296.999 155.659 297.232C161.341 297.49 162.3 290.825 160.984 283.925C160.086 279.19 146.127 277.358 137.457 276.669C137.58 275.611 137.666 274.923 137.678 274.824C140.827 277.272 155.733 277.628 160.431 278.329C162.239 278.6 163.456 278.526 164.292 278.059Z" fill="#C6DFE5"/>
<path d="M215.331 290.64C215.036 292.878 208.469 298.474 206.083 297.232C203.709 296.002 207.264 275.218 207.264 275.218C209.354 276.398 213.093 274.48 214.63 272.61C214.63 272.61 214.741 274.369 214.876 276.792C209.01 276.878 204.73 289.029 207.817 291.452C209.834 293.051 212.995 289.164 215.319 286.336C215.393 288.402 215.418 290.025 215.331 290.64Z" fill="#C6DFE5"/>
</g>
<path d="M192.173 246.279H151.662C150.051 246.279 148.562 245.394 147.763 243.942L114.938 184.184C114.827 183.987 114.729 183.765 114.655 183.556C113.548 180.617 115.627 177.309 118.837 177.309H166.457C168.228 177.309 169.839 178.379 170.552 180.051L182.63 208.129L196.256 239.81C197.585 242.86 195.408 246.279 192.173 246.279Z" fill="#244477"/>
<path d="M192.173 246.279H151.662C151.047 246.279 150.457 246.156 149.903 245.91C149.018 245.529 148.255 244.853 147.763 243.942L137.174 224.658L114.938 184.196C114.828 183.999 114.729 183.778 114.655 183.569C122.49 197.085 133.989 212.064 146.337 211.757C162.337 211.339 174.34 208.363 182.642 208.141L185.667 215.188L194.461 235.604L196.269 239.822C197.585 242.86 195.408 246.279 192.173 246.279Z" fill="#203B63"/>
<path opacity="0.68" d="M120.755 182.917C120.054 184.294 122.895 186.52 123.953 187.726C125.33 189.288 126.819 190.751 128.417 192.092C134.591 197.282 142.216 200.774 150.137 202.213C170.971 205.989 174.045 198.155 170.688 190.173C167.33 182.191 164.969 181.638 155.659 181.22C146.693 180.814 137.666 181.38 128.713 181.822C126.56 181.933 124.236 181.466 122.108 182.056C121.358 182.265 120.94 182.56 120.755 182.917Z" fill="#2E5793"/>
<path d="M194.461 235.592C194.117 239.023 193.206 241.643 191.497 242.221C186.27 243.992 159.275 243.032 149.903 245.91C149.018 245.529 148.255 244.853 147.763 243.942L137.174 224.658C140.79 225.974 147.148 226.983 157.811 225.347C172.594 223.072 180.773 217.71 185.667 215.188L194.461 235.592Z" fill="#1A3049"/>
<path d="M234.05 220.071C233.472 221.953 229.905 233.12 225.638 236.354C224.334 237.338 222.797 238.162 221.149 238.814C216.881 240.548 212.023 241.2 209.6 240.732C206.243 240.068 201.434 246.513 195.888 246.931C190.341 247.349 187.352 246.414 187.352 245.812C187.352 245.209 187.352 245.209 187.352 245.209C187.352 245.209 187.033 245.037 186.614 244.779C186.614 244.779 186.614 244.779 186.602 244.779C186.061 244.434 185.397 243.955 185.102 243.475C185.04 243.377 184.991 243.291 184.966 243.192C184.942 243.118 184.93 243.045 184.917 242.983C184.794 242.294 185.151 242.221 185.151 242.221C185.151 242.221 184.241 241.925 183.589 241.163C183.183 240.696 182.888 240.056 182.913 239.195C182.999 236.908 187.709 226.085 193.452 226.651C193.502 226.651 193.526 226.663 193.575 226.663C199.294 227.229 206.772 229.024 210.474 228.2C213.499 227.512 217.828 222.444 219.378 220.538C219.735 220.083 219.944 219.813 219.944 219.813C219.944 219.813 229.008 220.44 234.05 220.071Z" fill="#FFC7AE"/>
<path d="M234.05 220.071C233.472 221.953 229.906 233.12 225.638 236.354C224.334 237.338 222.797 238.162 221.149 238.814C223.35 237.08 227.618 233.267 229.414 228.397C231.271 223.367 223.387 221.239 219.378 220.514C219.735 220.059 219.944 219.788 219.944 219.788C219.944 219.788 229.008 220.44 234.05 220.071Z" fill="#F9AC8A"/>
<path opacity="0.22" d="M221.407 225.138C220.583 225.445 219.796 225.802 219.157 226.036C216.562 226.946 213.327 228.348 212.109 231.004C210.289 234.952 212.651 237.006 219.378 234.718C226.105 232.431 227.79 227.475 225.97 225.335C224.9 224.08 223.08 224.511 221.407 225.138Z" fill="white"/>
<path d="M189.099 242.786C187.881 243.069 186.491 243.34 185.102 243.475C185.04 243.377 184.991 243.291 184.966 243.192C184.733 242.307 185.151 242.221 185.151 242.221C185.151 242.221 182.814 241.47 182.913 239.183C182.999 236.895 187.709 226.073 193.452 226.638C193.502 226.638 193.526 226.651 193.575 226.651C193.871 228.163 194.535 229.836 196.011 230.721C199.098 232.566 194.067 241.667 189.099 242.786Z" fill="#F9AC8A"/>
<path d="M190.931 241.52C189.542 242.024 185.151 242.221 185.151 242.221C185.151 242.221 184.241 241.925 183.589 241.163C184.081 241.323 184.647 241.446 185.249 241.52C188.951 241.987 194.018 239.048 194.375 238.838C194.129 239.097 192.223 241.065 190.931 241.52Z" fill="#ED8772"/>
<path d="M195.039 243.475C195.039 243.475 194.203 244.607 192.555 244.877C190.907 245.172 187.352 245.209 187.352 245.209C187.352 245.209 187.033 245.037 186.614 244.779C189.086 244.889 195.039 243.475 195.039 243.475Z" fill="#ED8772"/>
<path d="M191.829 238.457C188.607 240.142 182.876 240.696 177.28 239.576C174.734 239.072 171.721 239.773 169.212 240.142C164.748 240.782 160.308 241.606 155.893 242.467C151.367 243.352 146.854 244.274 142.34 245.246C137.236 246.341 133.719 247.952 128.725 245.738C125.811 244.447 123.904 233.624 123.179 228.717C122.97 227.241 122.859 226.294 122.859 226.294C124.273 226.565 126.413 224.646 128.738 223.047C131.96 220.846 135.01 222.703 135.256 222.863C135.256 222.863 136.203 223.896 137.224 225.372C138.158 226.724 138.404 227.475 138.429 227.585C138.441 227.598 138.441 227.598 138.441 227.598C138.441 227.598 141.885 228.95 147.555 229.651C153.224 230.34 164.207 227.13 166.519 226.577C168.831 226.011 170.086 220.009 177.157 218.115C184.217 216.221 190.526 217.132 191.362 219.025C192.198 220.919 190.243 221.264 190.243 221.264C190.243 221.264 190.243 221.264 190.44 222.1C190.464 222.162 190.477 222.235 190.477 222.297C190.55 223.096 190.095 224.203 190.046 224.326C190.034 224.338 190.034 224.338 190.034 224.338C190.034 224.338 190.464 224.216 190.969 224.646C191.005 224.683 191.042 224.707 191.092 224.757C191.633 225.298 190.698 227.192 190.612 227.389C190.686 227.364 191.067 227.241 191.534 227.29C192.051 227.315 192.666 227.524 193.059 228.262C193.527 229.172 193.232 230.119 192.936 230.721L192.912 230.758C192.789 231.029 192.653 231.213 192.604 231.299L192.567 231.349C192.567 231.349 192.973 231.312 193.416 231.422C193.933 231.533 194.511 231.828 194.67 232.529C194.892 233.833 195.039 236.772 191.829 238.457Z" fill="#FFC7AE"/>
<path d="M190.452 222.285C187.512 221.719 179.862 222.149 179.862 222.149C179.862 222.149 179.862 222.149 182.101 221.866C184.339 221.584 190.218 221.239 190.218 221.239C190.218 221.239 190.218 221.239 190.415 222.076C190.439 222.149 190.452 222.211 190.452 222.285Z" fill="#ED8772"/>
<path d="M187.66 227.081C184.118 228.581 180.895 228.409 180.895 228.409C180.895 228.409 183.527 228.225 186.048 227.364C188.57 226.515 189.996 224.314 189.996 224.314C189.996 224.314 190.427 224.191 190.931 224.621C190.476 225.322 189.541 226.269 187.66 227.081Z" fill="#ED8772"/>
<path d="M190.575 227.364C190.575 227.364 189.935 229.012 187.869 231.14C187.783 231.226 187.697 231.312 187.623 231.398C186.467 232.468 185.458 233.353 185.249 233.55C185.434 233.427 186.172 232.849 187.574 231.459C189.16 230.008 190.931 228.274 191.288 227.573C191.349 227.475 191.411 227.376 191.509 227.266C191.03 227.216 190.648 227.339 190.575 227.364Z" fill="#ED8772"/>
<path d="M193.366 231.386C191.891 233.07 188.189 235.85 187.881 236.071C187.967 235.998 188.299 235.678 189.615 234.448C191.362 232.8 192.518 231.299 192.518 231.299C192.518 231.299 192.924 231.275 193.366 231.386Z" fill="#ED8772"/>
<path d="M138.404 227.573C138.035 227.352 129.832 222.481 126.474 226.306C125.158 227.807 124.039 228.471 123.166 228.704C122.957 227.229 122.846 226.282 122.846 226.282C124.261 226.552 126.4 224.634 128.725 223.035C131.947 220.833 134.997 222.69 135.243 222.85C135.243 222.85 136.19 223.883 137.211 225.359C138.121 226.712 138.367 227.462 138.404 227.573Z" fill="#F9AC8A"/>
<path opacity="0.22" d="M129.192 237.707C128.922 238.051 128.885 238.494 129.155 239.06C130.09 240.942 131.172 242.971 133.116 243.783C134.604 244.41 136.301 244.176 137.9 243.93C148.28 242.331 158.709 240.696 168.72 237.498C169.974 237.104 171.475 236.268 171.278 234.977C171.081 233.661 169.359 233.329 168.019 233.329C160.738 233.341 153.457 233.771 146.226 234.608C142.61 235.026 139.007 235.555 135.415 236.182C134.186 236.403 130.176 236.403 129.192 237.707Z" fill="white"/>
<path d="M236.178 219.8C235.612 219.923 234.886 220.009 234.05 220.071C228.995 220.44 219.944 219.8 219.944 219.8C219.944 219.8 221.063 215.914 219.944 212.556C218.824 209.199 223.301 211.019 227.495 209.752C231.689 208.486 236.165 205.927 236.165 205.927C236.165 205.927 238.219 204.12 238.601 206.801C238.982 209.482 240.101 218.939 236.178 219.8Z" fill="white"/>
<path d="M220.78 215.397C220.78 217.39 219.587 219.001 218.123 219.001C216.66 219.001 215.467 217.39 215.467 215.397C215.467 213.405 216.66 211.794 218.123 211.794C219.599 211.794 220.78 213.405 220.78 215.397Z" fill="#1B2656"/>
<path d="M221.997 215.397C221.997 217.39 220.804 219.001 219.341 219.001C217.877 219.001 216.684 217.39 216.684 215.397C216.684 213.405 217.877 211.794 219.341 211.794C220.804 211.794 221.997 213.405 221.997 215.397Z" fill="#244477"/>
<path d="M204.693 152.908C204.693 152.908 214.151 180.371 217.139 192.128C220.128 203.886 219.943 212.556 219.943 212.556H217.988C217.988 212.556 217.57 197.22 213.228 183.556C208.887 169.88 203.057 154.532 203.057 154.532L204.693 152.908Z" fill="#1B2656"/>
<path opacity="0.46" d="M147.739 254.827C147.739 254.827 145.869 260.607 154.085 262.661C162.3 264.715 175.804 266.633 180.896 261.468C185.987 256.315 186.922 252.392 178.153 251.088C169.384 249.784 147.739 254.827 147.739 254.827Z" fill="white"/>
<path opacity="0.46" d="M144.197 302.767C144.197 302.767 162.485 306.604 168.08 297.417C173.676 288.217 173.123 267.47 177.6 272.623C182.076 277.776 187.02 299.975 180.084 306.69C173.147 313.405 140.298 307.809 140.298 305.005C140.273 302.213 144.197 302.767 144.197 302.767Z" fill="white"/>
<path opacity="0.46" d="M198.864 252.281C198.864 252.281 197.376 265.108 202.406 263.792C207.448 262.476 212.417 260.607 211.519 255.946C210.621 251.285 209.502 250.288 206.514 250.879C203.525 251.457 198.864 252.281 198.864 252.281Z" fill="white"/>
<path d="M187.906 136.859C187.906 136.859 181.978 143.623 176.259 141.016C170.552 138.408 161.993 131.988 161.993 131.988V132.062C162.017 132.382 162.042 132.714 162.054 133.046C165.781 137.4 175.41 148.112 180.896 149.477C181.191 149.452 181.474 149.415 181.744 149.317C185.028 148.173 187.229 144.951 188.545 142.258C188.053 139.724 187.906 136.859 187.906 136.859Z" fill="#F9AC8A"/>
<path opacity="0.22" d="M165.928 144.41C165.928 144.41 176.8 151.826 178.079 154.347C179.358 156.868 174.722 159.242 172.004 156.032C169.286 152.81 165.928 144.41 165.928 144.41Z" fill="white"/>
<path opacity="0.22" d="M187.475 148.333C187.475 148.333 183.835 152.146 186.073 152.269C188.312 152.392 190.415 150.608 189.996 149.465C189.578 148.333 187.475 148.333 187.475 148.333Z" fill="white"/>
<path d="M192.518 84.233C191.952 86.7665 187.205 91.9319 187.205 91.9319C187.205 91.9319 176.714 94.035 168.88 97.2449C163.763 99.348 160.431 100.184 158.733 100.541C157.909 100.701 157.061 100.381 156.544 99.7292C155.056 97.8721 152.227 93.8874 153.064 91.3785C153.42 90.2962 154.392 88.7835 156.028 87.2093C156.028 87.2093 156.028 87.2093 156.028 87.197C159.422 83.9132 165.694 80.3836 175.287 79.9039C183.712 79.4858 188.41 80.2114 190.71 81.392C192.284 82.2037 192.739 83.2245 192.518 84.233Z" fill="#EBF4F7"/>
<path d="M180.76 87.4921H178.239V84.9586H176.013V87.4921H173.492V89.7181H176.013V92.2394H178.239V89.7181H180.76V87.4921Z" fill="#E52553"/>
<path opacity="0.63" d="M190.71 81.392C189.714 82.9662 186.061 84.3929 183.478 85.2169C178.62 86.7788 159.471 91.4523 157.208 89.7674C156.212 89.0294 155.979 88.0701 156.028 87.2092C156.028 87.2092 156.028 87.2092 156.028 87.197C159.422 83.9132 165.694 80.3835 175.287 79.9039C183.7 79.498 188.398 80.2114 190.71 81.392Z" fill="white"/>
<path d="M149.054 350.534H124.236L122.92 346.427C122.92 346.427 122.92 346.426 120.94 339.146C120.817 338.703 120.645 338.273 120.423 337.83C116.869 330.856 101.065 323.01 97.7325 318.435C94.1905 313.589 94.9284 302.398 89.3325 296.051C83.7367 289.718 81.1294 278.526 82.2485 271.147C83.3677 263.78 90.6485 270.692 93.0713 274.824C95.4941 278.969 96.9945 281.502 104.829 285.007C112.663 288.537 115.836 290.825 118.074 300.909C119.292 306.419 121.358 310.92 124.42 315.016V315.028C126.942 318.435 130.152 321.571 134.112 324.756C142.893 331.803 149.054 350.534 149.054 350.534Z" fill="#5DC990"/>
<path opacity="0.27" d="M149.055 350.534H124.236L122.92 346.427C122.92 346.427 122.92 346.427 120.94 339.146C120.817 338.703 120.645 338.273 120.424 337.83C121.235 338.186 122.035 338.678 122.834 339.343C129.549 344.938 138.429 348.579 140.286 343.819C142.143 339.06 127.409 326.81 124.421 315.028C126.942 318.435 130.152 321.571 134.112 324.756C142.893 331.804 149.055 350.534 149.055 350.534Z" fill="#21544A"/>
<path opacity="0.27" d="M85.2864 274.984C84.8682 276.62 84.7575 278.403 85.0158 279.485C86.3563 284.97 91.2758 288.672 95.1375 292.792C100.069 298.056 103.525 304.488 107.522 310.49C109.121 312.888 110.867 315.274 113.253 316.898C114.213 317.549 115.565 318.041 116.476 317.316C116.968 316.91 117.164 316.258 117.263 315.619C117.509 314.02 117.287 312.396 117.078 310.798C116.168 304.07 115.074 296.937 110.609 291.821C107.657 288.439 103.55 286.336 99.9586 283.642C96.0722 280.74 92.727 277.099 90.1566 272.979C87.8814 269.339 86.0612 271.897 85.2864 274.984Z" fill="#E9F47D"/>
<path opacity="0.52" d="M137.666 350.534C137.666 350.534 130.951 335.985 119.194 321.423C107.436 306.874 95.3097 290.837 95.3097 290.837C95.3097 290.837 101.656 297.355 105.198 301.832C108.74 306.309 124.42 324.769 130.754 334.94C137.1 345.111 140.273 350.522 140.273 350.522H137.666V350.534Z" fill="#317C6D"/>
<path d="M83.0112 248.677H58.5862C56.5446 248.677 54.8966 247.029 54.8966 244.988V232.788C54.8966 230.746 56.5446 229.098 58.5862 229.098H83.0112C85.0527 229.098 86.7007 230.746 86.7007 232.788V244.988C86.7007 247.029 85.0527 248.677 83.0112 248.677Z" fill="#EA2D44"/>
<path d="M77.3045 236.477H73.2213V232.382H68.3757V236.477H64.2803V241.311H68.3757V245.406H73.2213V241.311H77.3045V236.477Z" fill="white"/>
<path d="M64.1084 229.135L62.9646 229.086C62.9646 229 63.4565 220.76 71.2907 220.76C73.566 220.76 75.3985 221.461 76.739 222.826C79.1372 225.273 79.088 228.963 79.0758 229.11L77.9197 229.086C77.9197 229.049 77.9566 225.716 75.9027 223.625C74.7835 222.481 73.2216 221.903 71.2784 221.903C64.5265 221.903 64.1207 228.84 64.1084 229.135Z" fill="#619093"/>
<path d="M159.668 27.2414L157.012 29.5535L154.675 31.5828L152.904 33.1324L151.76 34.1163L146.14 27.6472L141.921 22.8139H141.909L140.027 20.637L141.712 19.1735L145.844 15.5823L147.935 13.7621L149.559 15.6315L159.668 27.2414Z" fill="#C1EFF7"/>
<path d="M143.495 13.0119L145.845 15.5823L141.712 19.1735L139.511 16.5539L143.495 13.0119Z" fill="#8EB9C1"/>
<path d="M158.549 31.4352L156.286 33.3292L154.675 31.5828L157.012 29.5535L158.549 31.4352Z" fill="#8EB9C1"/>
<path d="M160.259 36.4407V41.5446H135.637V36.2316H138.625C138.625 36.2316 137.346 34.8296 137.051 32.2223C136.965 31.4352 136.977 30.5497 137.125 29.5535C137.309 28.4097 137.74 27.3889 138.269 26.5157C139.72 24.1175 141.909 22.8016 141.909 22.8016H141.921L146.14 27.6472C145.697 27.8071 145.242 28.0162 144.848 28.3113C144.209 28.7418 143.729 29.369 143.668 30.2422C143.533 31.9517 144.283 33.8826 144.873 35.1248C145.254 35.9242 145.574 36.4284 145.574 36.4284H160.259V36.4407Z" fill="#B5DCE5"/>
<path d="M138.269 26.5157C139.72 24.1175 141.909 22.8016 141.909 22.8016H141.921L146.14 27.6472C145.697 27.8071 145.242 28.0162 144.849 28.3113C144.111 27.844 143.188 27.4135 142.032 27.0323C140.556 26.5772 139.314 26.442 138.269 26.5157Z" fill="#8EB9C1"/>
<path d="M145.562 36.4407H138.625C138.625 36.4407 138.404 36.3792 138.035 36.2316H138.625C138.625 36.2316 137.346 34.8296 137.051 32.2223C138.503 33.4521 140.274 34.6082 142.02 34.8665C143.176 35.0386 144.111 35.1124 144.861 35.1247C145.242 35.9241 145.562 36.4407 145.562 36.4407Z" fill="#8EB9C1"/>
<path d="M160.259 39.2202H135.637V41.5446H160.259V39.2202Z" fill="#8EB9C1"/>
<path d="M152.904 33.1324L151.76 34.1285L146.127 27.6595L141.909 22.8138H141.897L140.015 20.6493L141.7 19.1858L145.82 15.5946L147.911 13.7744L149.546 15.6438C147.886 16.3571 146.091 17.7099 145.82 20.2434C145.463 24.1052 150.764 30.648 152.904 33.1324Z" fill="#B5DCE5"/>
<path d="M66.0884 137.646H50.6782C49.3254 137.646 48.2185 136.539 48.2185 135.186V119.776C48.2185 118.423 49.3254 117.316 50.6782 117.316H66.0884C67.4412 117.316 68.5481 118.423 68.5481 119.776V135.186C68.5481 136.551 67.4412 137.646 66.0884 137.646Z" fill="#51D6A6"/>
<path d="M63.8253 125.753H60.5416V122.469H56.6675V125.753H53.3838V129.627H56.6675V132.898H60.5416V129.627H63.8253V125.753Z" fill="white"/>
<path d="M63.8132 108.806H52.5723V117.316H63.8132V108.806Z" fill="#C5EF5E"/>
<path d="M63.8132 116V117.316H52.5723V114.328C53.8513 115.152 55.7207 115.705 58.3895 115.705C60.3573 115.705 62.1775 115.816 63.8132 116Z" fill="#72CE5B"/>
<path d="M64.9567 131.521L68.388 137.449V137.461L62.7921 140.696C61.1564 141.643 59.0534 141.089 58.1064 139.441C57.7005 138.728 57.5652 137.916 57.7005 137.154C57.7128 137.055 57.7374 136.945 57.762 136.834C57.9957 135.985 58.5491 135.223 59.3608 134.756L64.9567 131.521Z" fill="#EA3453"/>
<path d="M75.5091 130.193C75.4353 129.971 75.3492 129.75 75.2262 129.541C75.3492 129.75 75.4476 129.959 75.5091 130.193Z" fill="#EA3453"/>
<path d="M75.5706 132.148C75.3369 132.997 74.7835 133.759 73.9717 134.227L68.3759 137.461V137.449L64.9446 131.521L70.5404 128.299C72.1761 127.352 74.2792 127.905 75.2262 129.553C75.3492 129.762 75.4353 129.984 75.5091 130.205C75.7304 130.832 75.7304 131.521 75.5706 132.148Z" fill="white"/>
<path opacity="0.13" d="M75.5706 130.414C75.7304 130.992 75.7181 131.595 75.5706 132.161C75.3369 133.009 74.7834 133.772 73.9717 134.239L62.78 140.708C61.1443 141.655 59.0413 141.102 58.0943 139.454C57.6761 138.74 57.5531 137.929 57.6761 137.166C59.9882 137.916 63.4933 138.064 68.1176 135.543C71.6965 133.6 74.0332 131.841 75.5706 130.414Z" fill="black"/>
<path d="M486.883 105.006C486.883 105.56 486.833 106.101 486.747 106.63C486.649 107.195 486.514 107.761 486.317 108.315C485.85 109.643 485.075 110.959 483.968 112.312C482.271 114.402 479.885 116.506 477.105 118.928C476.97 119.039 476.835 119.162 476.687 119.285C475.679 120.171 474.535 121.154 473.342 122.224C473.034 122.507 472.629 122.667 472.21 122.667C471.792 122.667 471.386 122.507 471.079 122.224C469.898 121.167 468.742 120.171 467.734 119.297C465.323 117.194 463.183 115.325 461.498 113.517C461.129 113.111 460.773 112.705 460.453 112.312C460.318 112.152 460.195 111.992 460.072 111.832C458.35 109.557 457.538 107.38 457.538 105.006C457.538 102.547 458.362 100.271 459.863 98.6111C460.195 98.2421 460.551 97.9101 460.933 97.6272C462.298 96.5695 463.958 96.0038 465.729 96.0038C467.426 96.0038 468.976 96.5572 470.341 97.6272C471.03 98.1683 471.657 98.8325 472.198 99.6196C472.752 98.8448 473.379 98.1806 474.055 97.6272C475.42 96.5449 476.97 96.0038 478.667 96.0038C480.93 96.0038 483.009 96.9262 484.534 98.6111C486.059 100.271 486.883 102.547 486.883 105.006Z" fill="#EA3453"/>
<path d="M486.747 106.617C486.649 107.183 486.514 107.749 486.317 108.302H481.693L480.266 112.176C480.081 112.681 479.639 113.025 479.122 113.074C478.716 113.123 478.31 112.976 478.028 112.693L476.933 115.657C476.724 116.21 476.22 116.567 475.654 116.567C475.617 116.567 475.592 116.567 475.556 116.567C474.941 116.53 474.449 116.1 474.313 115.485L472.997 109.778C472.715 110.221 472.21 110.467 471.682 110.418C471.128 110.356 470.661 109.95 470.513 109.385L469.64 106.138L468.189 114.181C468.09 114.685 467.746 115.103 467.266 115.263C466.787 115.423 466.27 115.3 465.901 114.944L464.401 113.492H461.511C461.142 113.087 460.785 112.681 460.465 112.287C460.33 112.127 460.207 111.967 460.084 111.807H464.511C464.868 111.807 465.2 111.943 465.458 112.189L466.676 113.357L468.25 104.613C468.361 103.973 468.902 103.494 469.542 103.469C470.181 103.457 470.759 103.863 470.931 104.502L471.94 108.265C472.223 107.786 472.752 107.54 473.293 107.614C473.858 107.687 474.313 108.118 474.449 108.684L475.715 114.206L476.675 111.611C476.859 111.106 477.302 110.762 477.819 110.713C478.224 110.664 478.618 110.811 478.901 111.094L480.217 107.515C480.414 106.974 480.93 106.605 481.508 106.605H486.747V106.617Z" fill="white"/>
<path opacity="0.13" d="M477.105 118.928C476.97 119.039 476.835 119.162 476.687 119.285C475.679 120.171 474.535 121.154 473.342 122.224C473.035 122.507 472.629 122.667 472.211 122.667C471.792 122.667 471.387 122.507 471.079 122.224C469.898 121.167 468.742 120.171 467.734 119.297C465.323 117.194 463.183 115.325 461.498 113.517C461.13 113.111 460.773 112.705 460.453 112.312C460.318 112.152 460.195 111.992 460.072 111.832C458.35 109.557 457.538 107.38 457.538 105.006C457.538 102.547 458.362 100.271 459.863 98.6111C460.195 98.2421 460.551 97.9101 460.933 97.6272C459.85 101.477 459.838 107.626 466.725 113.984C470.661 117.588 474.178 118.842 477.105 118.928Z" fill="black"/>
<path opacity="0.15" d="M476.207 98.6726C475.912 98.7587 475.617 98.9062 475.334 99.1276C473.858 100.308 473.772 102.657 474.596 104.256C476.54 107.995 483.501 107.048 483.414 103.506C483.365 101.784 481.853 100.677 480.487 99.9885C479.245 99.3367 477.646 98.279 476.207 98.6726Z" fill="white"/>
<path d="M399.368 96.9989C399.368 99.2987 398.642 101.426 397.388 103.173C396.969 103.739 396.514 104.267 395.998 104.747C395.961 104.784 395.924 104.833 395.875 104.87C395.863 104.87 395.863 104.87 395.863 104.87C395.838 104.907 395.801 104.931 395.764 104.968V109.384H381.879V105.153C379.555 103.185 378.079 100.27 378.079 96.9989C378.079 96.1872 378.165 95.4001 378.349 94.6253C378.559 93.6906 378.891 92.7805 379.358 91.9565C380.612 89.5829 382.777 87.7504 385.384 86.8895V79.867H391.656V86.7665C391.718 86.7788 391.779 86.8034 391.829 86.828C391.841 86.8403 391.866 86.8403 391.89 86.8403C396.219 88.1931 399.368 92.2271 399.368 96.9989Z" fill="#AFEFEF"/>
<path opacity="0.58" d="M380.649 94.6376C380.649 94.6376 383.552 92.7805 386.565 94.0965C389.578 95.4124 390.808 93.9243 392.739 93.6291C394.669 93.3216 396.674 94.9451 396.674 94.9451C396.674 94.9451 398.211 104.132 388.422 104.132C378.62 104.132 380.649 94.6376 380.649 94.6376Z" fill="#58B7B2"/>
<path opacity="0.58" d="M395.998 104.747C395.924 104.833 395.838 104.895 395.764 104.968V105.03C393.981 105.706 391.349 106.469 388.717 106.432C384.179 106.358 385.556 107.502 387.758 107.809C389.442 108.043 393.808 107.92 395.764 107.846V109.371H381.879V105.202C382.863 105.583 384.068 105.829 385.556 105.878C390.402 106.051 393.981 105.337 395.998 104.747Z" fill="#58B7B2"/>
<path opacity="0.36" d="M388.016 86.8034C387.241 87.2584 387.155 88.8572 387.364 90.0871C387.684 92.018 388.692 93.8751 389.873 95.4124C390.771 96.6054 391.829 97.7122 393.12 98.4378C393.895 98.8806 394.903 99.1635 395.653 98.6715C396.367 98.2042 396.551 97.2326 396.502 96.3717C396.404 94.3916 395.494 92.5222 394.239 90.9972C392.985 89.4722 391.386 88.2546 389.75 87.1477C388.963 86.6189 388.397 86.5697 388.016 86.8034Z" fill="white"/>
<path opacity="0.36" d="M397.4 103.173C396.982 103.739 396.527 104.267 396.01 104.747C395.973 104.784 395.936 104.833 395.887 104.87C395.875 104.87 395.875 104.87 395.875 104.87C391.804 105.374 385.298 105.3 381.276 101.574C379.259 99.7046 378.497 97.1588 378.362 94.6253C378.571 93.6906 378.903 92.7805 379.37 91.9565C379.801 96.5439 381.744 102.078 388.434 102.496C392.8 102.779 395.641 102.988 397.4 103.173Z" fill="white"/>
<path opacity="0.58" d="M391.238 86.6681C389.295 86.5574 387.106 86.5574 385.384 86.9018V79.8793H391.656V81.5396C389.738 81.183 386.835 80.9001 386.245 82.4128C385.605 84.0977 388.692 85.8687 391.238 86.6681Z" fill="#58B7B2"/>
<path d="M391.828 86.8403C391.644 86.7911 391.447 86.7419 391.263 86.6804C391.398 86.6804 391.533 86.6804 391.656 86.705V86.7788C391.718 86.7911 391.779 86.8157 391.828 86.8403Z" fill="#7DD8D5"/>
<path d="M391.361 80.4942H385.482C384.523 80.4942 383.736 79.7194 383.736 78.7478V78.7355C383.736 77.7762 384.511 76.9891 385.482 76.9891H391.361C392.32 76.9891 393.108 77.7639 393.108 78.7355V78.7478C393.095 79.7071 392.32 80.4942 391.361 80.4942Z" fill="#7DD8D5"/>
<path d="M438.944 199.372L420.693 218.447C420.115 219.05 419.021 218.939 418.271 218.214L412.945 213.11C412.183 212.372 412.035 211.29 412.601 210.699L430.852 191.624C431.049 191.415 431.295 191.292 431.602 191.243L432.771 191.071L436.632 190.493C436.94 190.456 437.198 190.321 437.395 190.124L442.437 184.848C442.732 184.54 443.138 184.417 443.581 184.466C444.011 184.503 444.479 184.712 444.86 185.081C445.623 185.807 445.77 186.902 445.204 187.492L440.162 192.768C439.965 192.965 439.842 193.235 439.818 193.531L439.289 198.585C439.264 198.905 439.141 199.163 438.944 199.372Z" fill="#C6DFE5"/>
<path d="M436.399 198.167L435.858 198.733L434.246 197.195L427.679 204.046L426.953 203.357L436.743 193.125L437.469 193.813L434.788 196.617L436.399 198.167Z" fill="white"/>
<path d="M426.972 203.378L419.949 210.718L420.668 211.407L427.692 204.067L426.972 203.378Z" fill="#EA2D44"/>
<path d="M420.656 213.602C420.054 214.241 418.898 214.131 418.086 213.356C417.274 212.581 417.127 211.437 417.729 210.798C418.344 210.158 419.488 210.269 420.3 211.044C421.099 211.819 421.259 212.962 420.656 213.602Z" fill="#EA2D44"/>
<path d="M421.972 217.119L420.693 218.46C420.115 219.062 419.021 218.952 418.271 218.226L412.945 213.122C412.183 212.384 412.035 211.302 412.601 210.712L430.852 191.637C431.049 191.427 431.295 191.304 431.602 191.255L432.771 191.083C424.162 198.622 412.945 209.851 417.237 213.971C418.996 215.631 420.583 216.615 421.972 217.119Z" fill="#A7D1D8"/>
<path d="M445.192 187.504L444.147 188.599L441.38 185.955L442.425 184.86C442.72 184.553 443.126 184.43 443.569 184.479C443.999 184.516 444.466 184.725 444.848 185.094C445.623 185.819 445.77 186.902 445.192 187.504Z" fill="#8CBFC4"/>
<path d="M377.304 148.788C377.304 150.658 375.779 152.183 373.91 152.183C372.04 152.183 370.515 150.658 370.515 148.788C370.515 146.919 372.04 145.394 373.91 145.394C375.779 145.394 377.304 146.919 377.304 148.788Z" fill="white"/>
<path d="M374.647 172.857C374.647 174.726 373.122 176.251 371.253 176.251C369.384 176.251 367.859 174.726 367.859 172.857C367.859 170.987 369.384 169.462 371.253 169.462C373.122 169.462 374.647 170.987 374.647 172.857Z" fill="white"/>
<path d="M398.999 147.251C398.999 149.12 397.474 150.645 395.604 150.645C393.735 150.645 392.21 149.12 392.21 147.251C392.21 145.382 393.735 143.857 395.604 143.857C397.474 143.857 398.999 145.369 398.999 147.251Z" fill="white"/>
<path d="M222.674 342.921C222.674 344.791 221.149 346.316 219.279 346.316C217.41 346.316 215.885 344.791 215.885 342.921C215.885 341.052 217.41 339.527 219.279 339.527C221.161 339.527 222.674 341.052 222.674 342.921Z" fill="white"/>
<path d="M222.674 309.445C224.549 309.445 226.068 307.925 226.068 306.05C226.068 304.176 224.549 302.656 222.674 302.656C220.799 302.656 219.279 304.176 219.279 306.05C219.279 307.925 220.799 309.445 222.674 309.445Z" fill="white"/>
<path d="M241.355 327.007C241.355 328.2 240.384 329.172 239.191 329.172C237.998 329.172 237.026 328.2 237.026 327.007C237.026 325.814 237.998 324.843 239.191 324.843C240.384 324.843 241.355 325.814 241.355 327.007Z" fill="white"/>
<path d="M82.015 173.25C82.015 175.12 80.49 176.645 78.6206 176.645C76.7512 176.645 75.2262 175.12 75.2262 173.25C75.2262 171.381 76.7512 169.856 78.6206 169.856C80.5023 169.856 82.015 171.381 82.015 173.25Z" fill="white"/>
<path d="M128.75 124.978C128.75 126.368 127.63 127.487 126.241 127.487C124.851 127.487 123.732 126.368 123.732 124.978C123.732 123.588 124.851 122.469 126.241 122.469C127.63 122.469 128.75 123.588 128.75 124.978Z" fill="white"/>
<path d="M408.764 39.5891C402.799 33.7596 396.637 27.7825 389.123 23.9699C381.166 19.936 372.249 19.2473 363.48 19.1243C347.898 18.9152 332.082 21.3749 317.791 27.7333C309.809 31.2753 302.455 36.1455 296.182 42.2333C294.473 43.8937 297.08 46.501 298.79 44.8406C309.514 34.4237 323.411 28.1884 337.924 25.1506C345.217 23.6256 352.645 22.9 360.086 22.8139C368.338 22.7155 377.193 22.8508 384.917 26.073C393.231 29.5289 399.81 36.0103 406.156 42.1964C407.854 43.8568 410.461 41.2618 408.764 39.5891Z" fill="white"/>
<path d="M395.678 40.819C358.303 22.7893 316.635 34.2516 280.305 48.9607C260.308 57.0654 240.716 66.9289 219.378 70.9997C196.958 75.2796 173.799 73.7915 152.006 67.138C149.94 66.5107 149.055 69.7453 151.109 70.3725C170.737 76.3742 191.436 78.2313 211.802 75.5871C232.968 72.8445 252.092 64.3339 271.61 56.1676C309.699 40.2164 354.023 24.4373 393.981 43.7215C395.912 44.6562 397.621 41.7537 395.678 40.819Z" fill="#C4EBF2"/>
<path d="M94.498 59.4513C78.9772 58.3568 62.9891 57.2868 47.788 61.4068C40.3966 63.4115 33.743 66.8797 27.151 70.7168C20.9033 74.3449 14.7909 78.0345 9.79768 83.3352C8.32185 84.9094 10.6832 87.283 12.1713 85.7088C17.2014 80.3835 23.4491 76.7308 29.7337 73.0905C36.3626 69.2533 43.09 65.9573 50.5675 64.1617C64.9199 60.6935 79.9119 61.7758 94.498 62.8088C96.6503 62.9564 96.638 59.5989 94.498 59.4513Z" fill="#C4EBF2"/>
<path d="M275.558 36.084C259.606 45.8614 241.909 51.9615 223.313 53.9662C221.186 54.1998 221.161 57.5573 223.313 57.3237C242.524 55.2452 260.775 49.0836 277.255 38.9865C279.087 37.855 277.403 34.9525 275.558 36.084Z" fill="#C4EBF2"/>
<path d="M70.7002 343.057C92.235 363.435 123.732 362.808 151.44 362.968C183.429 363.165 215.381 356.241 247.345 359.217C249.497 359.414 249.485 356.056 247.345 355.86C217.398 353.068 187.598 359.402 157.664 359.611C129.328 359.82 95.199 361.615 73.0738 340.671C71.4996 339.195 69.126 341.556 70.7002 343.057Z" fill="#C4EBF2"/>
<path d="M264.723 359.488C281.707 359.488 298.679 359.488 315.664 359.488C317.828 359.488 317.828 356.13 315.664 356.13C298.679 356.13 281.707 356.13 264.723 356.13C262.558 356.13 262.558 359.488 264.723 359.488Z" fill="#C4EBF2"/>
<path d="M345.328 358.885C357.614 358.91 369.9 358.934 382.174 358.959C393.735 358.983 405.566 359.758 417.078 358.639C425.305 357.84 433.447 355.183 438.735 348.48C443.593 342.319 445.192 334.509 443.593 326.896C443.151 324.781 439.904 325.679 440.359 327.794C442.314 337.055 438.391 346.82 430.065 351.617C422.243 356.118 412.564 355.675 403.857 355.663C384.351 355.638 364.833 355.589 345.328 355.552C343.163 355.527 343.163 358.885 345.328 358.885Z" fill="#C4EBF2"/>
</svg>
