<svg width="39" height="32" viewBox="0 0 39 32" fill="none" xmlns="http://www.w3.org/2000/svg">
<path d="M0 27.9857C0.054937 27.8193 0.110891 27.654 0.165828 27.4877C0.62262 26.1014 1.90957 25.1556 3.36642 25.1454C4.26169 25.1392 5.15696 25.1444 6.11734 25.1444C5.66665 24.5426 5.38281 23.9439 5.31261 23.2518C5.2119 22.2537 5.44792 21.3419 6.13463 20.6292C7.8855 18.8096 9.67502 17.029 11.4534 15.2372C11.724 14.964 12.0627 14.9691 12.2978 15.2146C12.5368 15.4641 12.5307 15.7773 12.252 16.0648C11.9773 16.3482 11.6812 16.609 11.4249 16.8524C12.5114 17.9471 13.5572 18.9996 14.6234 20.0727C14.6519 20.046 14.7353 19.9731 14.8127 19.895C15.8717 18.826 16.941 17.7673 17.9868 16.685C19.2066 15.422 18.7498 13.4196 17.1312 12.8969C16.2827 12.6228 15.5309 12.825 14.8798 13.4258C14.6275 13.6589 14.3986 13.9187 14.1422 14.1476C13.897 14.3664 13.6213 14.3561 13.3863 14.1343C13.1523 13.9145 13.0984 13.6229 13.3151 13.3775C14.0201 12.5786 14.7618 11.83 15.89 11.6626C16.7578 11.5332 17.5514 11.7027 18.29 12.1668C18.3958 12.2336 18.4965 12.3075 18.645 12.4092C18.6735 12.0354 18.6806 11.6986 18.7264 11.3669C18.9177 9.98987 19.6736 9.05028 20.9503 8.5502C21.1823 8.45881 21.2525 8.35201 21.2474 8.1107C21.2321 7.4227 21.2423 6.73367 21.2423 5.99946C20.9575 5.99946 20.7082 6.00152 20.4579 5.99946C19.4436 5.99125 18.7142 5.3053 18.6847 4.28871C18.6603 3.43127 18.6623 2.57179 18.6837 1.71435C18.7101 0.703917 19.4111 0.00564776 20.4101 0.0046209C26.033 -0.0015403 31.6549 -0.0015403 37.2778 0.0046209C38.3003 0.00564776 38.986 0.725481 38.99 1.7544C38.9931 2.59951 38.9951 3.44565 38.989 4.29076C38.9829 5.25396 38.2616 5.98098 37.3012 5.99844C37.0377 6.00357 36.7732 5.99946 36.4863 5.99946C36.4863 6.82096 36.4863 7.60959 36.4863 8.43211C36.6155 8.48756 36.7661 8.54507 36.9116 8.61387C38.2301 9.23409 38.9443 10.2764 38.9839 11.7448C39.0155 12.9349 38.991 14.1271 38.99 15.3193C38.989 15.768 38.7794 16.033 38.4285 16.0381C38.0754 16.0432 37.8557 15.7773 37.8516 15.3347C37.8486 14.963 37.8475 14.5923 37.8445 14.2206C37.8445 14.198 37.8272 14.1743 37.7997 14.1066C37.6817 14.1066 37.5444 14.1066 37.408 14.1066C34.476 14.1066 31.544 14.1045 28.612 14.1076C26.8815 14.1097 25.8163 15.1909 25.8153 16.9376C25.8143 19.1156 25.8133 21.2936 25.8153 23.4716C25.8174 25.1064 26.9181 26.2226 28.5378 26.2246C31.5206 26.2287 34.5025 26.2256 37.4854 26.2256C37.5871 26.2256 37.6878 26.2256 37.8506 26.2256C37.8506 26.0778 37.8506 25.9443 37.8506 25.8098C37.8506 23.2857 37.8486 20.7627 37.8516 18.2387C37.8526 17.7016 38.3104 17.373 38.695 17.6585C38.8547 17.7776 38.9738 18.059 38.9768 18.2685C39.0002 19.78 38.989 21.2916 38.989 22.8031C38.989 24.712 38.9931 26.621 38.988 28.5299C38.9819 30.442 37.5342 31.9689 35.6328 31.9802C31.1269 32.0059 26.6211 32.0059 22.1162 31.9843C20.1029 31.974 18.6837 30.4502 18.6796 28.3677C18.6735 24.9852 18.6776 21.6037 18.6776 18.2212C18.6776 18.0682 18.6776 17.9162 18.6776 17.8403C16.2746 20.2657 13.8451 22.7179 11.4391 25.1464C11.4757 25.1464 11.6202 25.1433 11.7647 25.1464C12.8665 25.1711 13.9845 25.0858 15.067 25.246C16.7782 25.4986 17.8861 27.1396 17.7386 28.9715C17.6094 30.5826 16.1617 31.9607 14.5085 31.9792C12.021 32.0069 9.53361 31.9925 7.04618 31.9915C6.61788 31.9915 6.39101 31.781 6.39101 31.4165C6.39101 31.0581 6.62907 30.8435 7.0472 30.8373C7.45109 30.8322 7.85498 30.8363 8.28125 30.8363C8.28125 29.3165 8.28125 27.8265 8.28125 26.3396C8.24768 26.3232 8.22631 26.3037 8.20393 26.3037C6.59244 26.3006 4.97994 26.2842 3.36845 26.3047C2.40502 26.317 1.61352 26.9095 1.29305 27.7824C0.971572 28.6552 1.19844 29.6051 1.88414 30.2386C2.29311 30.6165 2.77941 30.8116 3.33183 30.8322C3.63602 30.8435 3.94122 30.8291 4.24541 30.8373C4.61878 30.8476 4.86905 31.0889 4.86701 31.4206C4.86498 31.7368 4.62488 31.9936 4.2739 31.9843C3.68078 31.9689 3.06427 32.0079 2.49963 31.859C1.23507 31.5274 0.444583 30.6535 0.089527 29.3833C0.0661279 29.3001 0.0305206 29.221 0.00101735 29.1399C0 28.7538 0 28.3697 0 27.9857ZM22.3848 6.01897C22.3848 6.81788 22.3879 7.58392 22.3838 8.35099C22.3807 8.9517 22.1081 9.34294 21.5618 9.55447C20.3165 10.035 19.8506 10.7118 19.8506 12.0498C19.8496 17.4552 19.8506 22.8606 19.8506 28.2671C19.8506 28.3954 19.8516 28.5238 19.8577 28.6511C19.9126 29.8423 20.8649 30.8229 22.047 30.826C26.5773 30.8394 31.1086 30.8373 35.6389 30.826C36.643 30.824 37.5688 30.0764 37.757 29.1009C37.8618 28.5577 37.8435 27.9898 37.8832 27.385C37.6634 27.385 37.5149 27.385 37.3674 27.385C34.4862 27.385 31.6061 27.386 28.7249 27.3829C28.4085 27.3829 28.086 27.3881 27.7768 27.3306C25.9384 26.9896 24.6861 25.4935 24.6749 23.6082C24.6616 21.3028 24.6708 18.9965 24.6738 16.6912C24.6738 16.5002 24.6779 16.3051 24.7115 16.1182C25.0615 14.1969 26.5692 12.9339 28.5184 12.9318C31.4759 12.9288 34.4323 12.9308 37.3897 12.9308C37.5362 12.9308 37.6817 12.9308 37.8425 12.9308C37.8425 12.4646 37.875 12.0539 37.8364 11.6493C37.7448 10.6881 37.2534 9.99911 36.3561 9.6397C35.47 9.28544 35.2899 9.03693 35.2889 8.06757C35.2889 7.39189 35.2889 6.71622 35.2889 6.02C30.9784 6.01897 26.7075 6.01897 22.3848 6.01897ZM10.556 17.8197C9.37694 18.9996 8.18664 20.1671 7.02482 21.3645C6.46934 21.9364 6.3259 22.6645 6.52021 23.4305C6.95055 25.1197 8.96491 25.7122 10.2285 24.5026C11.3862 23.3925 12.4951 22.2301 13.6244 21.0893C13.659 21.0543 13.6824 21.0092 13.6946 20.9917C12.6457 19.931 11.608 18.8825 10.556 17.8197ZM9.45731 30.7808C9.51021 30.8044 9.53259 30.8229 9.55396 30.824C11.2153 30.827 12.8776 30.863 14.538 30.8178C15.6957 30.786 16.6052 29.7416 16.6052 28.571C16.6062 27.308 15.6225 26.314 14.3172 26.2986C12.7698 26.2811 11.2224 26.2934 9.67502 26.2955C9.60482 26.2955 9.53361 26.3191 9.45731 26.3335C9.45731 27.8245 9.45731 29.2949 9.45731 30.7808ZM23.0268 1.16909C23.0268 2.41262 23.0268 3.61714 23.0268 4.81857C23.7124 4.81857 24.3656 4.81857 25.032 4.81857C25.032 3.59249 25.032 2.38695 25.032 1.16909C24.3544 1.16909 23.7002 1.16909 23.0268 1.16909ZM28.2336 4.82062C28.2336 3.59454 28.2336 2.38798 28.2336 1.18654C27.5438 1.18654 26.8805 1.18654 26.2263 1.18654C26.2263 2.41468 26.2263 3.612 26.2263 4.82062C26.9069 4.82062 27.5611 4.82062 28.2336 4.82062ZM31.4403 4.81857C31.4403 3.59249 31.4403 2.38798 31.4403 1.17627C30.7617 1.17627 30.1096 1.17627 29.4422 1.17627C29.4422 2.4003 29.4422 3.60481 29.4422 4.81857C30.1218 4.81857 30.7739 4.81857 31.4403 4.81857ZM34.6612 1.18449C33.9623 1.18449 33.3112 1.18449 32.6641 1.18449C32.6641 2.40954 32.6641 3.60481 32.6641 4.81446C33.3417 4.81446 33.9918 4.81446 34.6612 4.81446C34.6612 3.59352 34.6612 2.39722 34.6612 1.18449ZM21.8273 1.15779C21.3176 1.15779 20.8384 1.14342 20.3593 1.16293C20.0561 1.17525 19.8608 1.35598 19.8587 1.67739C19.8506 2.54611 19.8536 3.41587 19.8557 4.2846C19.8557 4.60703 20.0408 4.80419 20.3369 4.82268C20.8252 4.85246 21.3166 4.83089 21.8283 4.83089C21.8273 3.60276 21.8273 2.40749 21.8273 1.15779ZM35.8729 4.83808C36.3663 4.83808 36.82 4.85143 37.2738 4.83397C37.6298 4.82062 37.8414 4.61422 37.8455 4.24866C37.8547 3.40457 37.8557 2.56049 37.8435 1.71641C37.8394 1.41348 37.6685 1.18654 37.3633 1.16909C36.8739 1.14033 36.3826 1.16087 35.8729 1.16087C35.8729 2.39208 35.8729 3.58941 35.8729 4.83808Z" fill="#029967"/>
</svg>
