<svg width="35" height="42" viewBox="0 0 35 42" fill="none" xmlns="http://www.w3.org/2000/svg">
<g filter="url(#filter0_d_87_2)">
<path d="M4.01204 18.4704C4.01204 14.0137 4.01204 9.55691 4.01204 5.10106C4.01204 3.76034 4.7632 3.01016 6.10279 3.01016C13.0416 3.01016 19.9814 3.02123 26.9202 3.00001C28.1844 2.99632 29.0091 3.8969 28.9999 5.07891C28.9631 9.51262 28.9861 13.9463 28.9852 18.3791C28.9852 18.9078 28.7057 19.2335 28.258 19.2372C27.8902 19.24 27.5932 18.9964 27.5371 18.631C27.5132 18.4732 27.5132 18.3099 27.5132 18.1493C27.5123 13.831 27.5123 9.51262 27.5123 5.19426C27.5123 4.55296 27.47 4.51144 26.8301 4.51144C19.9372 4.51144 13.0435 4.51144 6.1506 4.51144C5.54103 4.51144 5.50701 4.54558 5.50701 5.1555C5.50701 14.057 5.50701 22.9586 5.50701 31.8601C5.50701 32.4488 5.56769 32.5088 6.15888 32.5088C11.0336 32.5088 15.9084 32.5088 20.7831 32.5097C21.332 32.5097 21.6547 32.7976 21.6409 33.2682C21.6308 33.6253 21.3964 33.9049 21.0442 33.9621C20.898 33.9861 20.7472 33.987 20.5983 33.987C15.7815 33.9879 10.9637 33.9686 6.14692 33.9999C4.69976 34.0092 3.99089 33.0172 4.00009 31.8417C4.03135 27.384 4.01204 22.9272 4.01204 18.4704Z" fill="#029967"/>
</g>
<path d="M0.000306437 16.0049C0.000306437 11.3828 -0.0016088 6.7607 0.00413691 2.13859C0.00413691 1.85415 0.0156283 1.55402 0.105644 1.28713C0.35654 0.539092 0.909085 0.110589 1.72497 0.0200861C1.90213 0.000692624 2.08312 0.000692624 2.26124 0.000692624C9.80056 -0.000230875 17.3389 -0.000230875 24.8782 0.000692624C25.0449 0.000692624 25.2144 0.000692623 25.3781 0.0256271C25.7717 0.0856545 26.0207 0.400567 25.9987 0.788437C25.9785 1.1523 25.697 1.44135 25.3216 1.47552C25.1914 1.48752 25.0592 1.48014 24.928 1.48014C17.3657 1.48014 9.80343 1.48014 2.24017 1.48014C1.61581 1.48014 1.53441 1.55771 1.53441 2.14967C1.53441 11.4281 1.53441 20.7064 1.53441 29.9858C1.53441 30.6378 1.27489 30.9896 0.784595 30.9998C0.288549 31.0108 0.00126405 30.6377 0.00126405 29.9747C0.000306437 25.3184 0.000306437 20.6612 0.000306437 16.0049Z" fill="#029967"/>
<path d="M35 27.5085C34.9922 31.1068 31.8369 34.0251 27.981 33.9998C24.1174 33.9746 20.9971 31.0688 21 27.4986C21.0029 23.9211 24.1699 20.9928 28.0277 21C31.868 21.0081 35.0078 23.9391 35 27.5085ZM22.582 27.5184C22.5859 30.2905 25.0096 32.5479 27.9927 32.5551C30.9768 32.5623 33.4423 30.2797 33.4442 27.5076C33.4462 24.7247 31.006 22.4664 27.9995 22.4691C24.9862 22.4718 22.5782 24.7157 22.582 27.5184Z" fill="#029967"/>
<path d="M18.6905 29.8369C17.8861 29.9283 17.2254 29.6771 16.6848 29.043C16.4445 28.7607 16.2615 28.8079 15.993 29.1496C15.3389 29.9826 14.4782 30.2197 13.6485 29.7896C13.121 29.5173 12.7972 29.0621 12.6348 28.4673C12.5109 28.0111 12.3927 27.5539 12.2697 27.0977C12.2069 26.8625 12.1355 26.6194 11.8483 26.6334C11.5874 26.6455 11.5161 26.8625 11.4673 27.0957C11.3884 27.4735 11.3011 27.8493 11.2148 28.2261C11.0055 29.1425 10.4029 29.7263 9.52817 29.8349C9.26255 29.868 8.98849 29.866 8.72193 29.8399C8.29676 29.7987 7.99172 29.4329 8.00017 29.0189C8.00956 28.5788 8.33618 28.211 8.78106 28.2271C9.82006 28.2653 9.65487 28.1578 9.8867 27.2112C9.95428 26.9339 10.005 26.6495 10.0885 26.3772C10.341 25.5603 11.0336 25.0217 11.8371 25.0006C12.5982 24.9805 13.3378 25.503 13.6044 26.2948C13.7855 26.8344 13.9038 27.3991 14.0774 27.9417C14.1281 28.0995 14.2651 28.3196 14.3815 28.3336C14.5242 28.3517 14.7316 28.2221 14.8349 28.0894C15.6523 27.0344 16.8678 26.9439 17.7698 27.9126C17.9772 28.1347 18.1846 28.2492 18.4784 28.2231C18.7337 28.2 18.9937 28.208 19.2499 28.2221C19.6657 28.2442 19.9707 28.5567 19.9979 28.9677C20.0261 29.4078 19.7642 29.7685 19.3344 29.8318C19.1185 29.863 18.8932 29.8369 18.6905 29.8369Z" fill="#029967"/>
<path d="M15.9915 10.0028C18.3881 10.0028 20.7846 10.0015 23.1812 10.004C23.702 10.004 24.0289 10.4368 23.998 11.071C23.977 11.5026 23.7512 11.8732 23.4407 11.954C23.2969 11.9913 23.1475 11.995 23 11.995C18.3316 11.9975 13.6632 11.995 8.99478 12C8.5996 12 8.23811 11.9428 8.05965 11.3695C7.85659 10.7166 8.19441 10.0227 8.73346 10.0078C9.26704 9.99284 9.80153 10.004 10.3351 10.004C12.2209 10.0028 14.1066 10.0028 15.9915 10.0028Z" fill="#029967"/>
<path d="M17.502 16.0016C19.3849 16.0016 21.2677 15.9991 23.1506 16.0028C23.6199 16.0041 23.9364 16.3286 23.9916 16.8436C24.0504 17.3918 23.7954 17.8725 23.3794 17.9782C23.2808 18.004 23.1777 17.9991 23.0764 17.9991C19.3559 18.0003 15.6354 18.0003 11.9149 17.9991C11.3714 17.9991 11.0449 17.677 11.0042 17.1104C10.9581 16.4712 11.2918 16.0065 11.82 16.0041C13.0716 15.9967 14.3232 16.0016 15.5739 16.0016C16.2169 16.0016 16.8599 16.0016 17.502 16.0016Z" fill="#029967"/>
<path d="M12.9739 14.9997C11.5936 14.9997 10.2133 15.0009 8.83301 14.9984C8.33392 14.9972 8.00089 14.597 8 14.0048C7.99911 13.4401 8.32499 13.0075 8.80086 13.0062C11.5945 12.9975 14.389 12.9988 17.1827 13.005C17.6782 13.0062 18.013 13.4488 17.9996 14.0285C17.9862 14.6207 17.6577 14.9972 17.1488 14.9972C15.7568 15.0009 14.3658 14.9997 12.9739 14.9997Z" fill="#029967"/>
<path d="M20.0023 7.00186C21.0532 7.00186 22.1033 6.99817 23.1542 7.00678C23.307 7.00801 23.4723 7.02644 23.61 7.11246C23.8704 7.27466 24.0057 7.59293 23.9998 8.02179C23.994 8.43099 23.8579 8.72837 23.6108 8.88935C23.4923 8.96676 23.3496 8.99503 23.2168 8.99503C21.0741 9.00117 18.9313 9.00117 16.7877 8.99748C16.3528 8.99748 16.0615 8.67553 16.0089 8.16065C15.9421 7.5106 16.2585 7.00678 16.7551 7.00309C17.8378 6.99695 18.9196 7.00186 20.0023 7.00186Z" fill="#029967"/>
<path d="M22.0038 14.9978C21.5669 14.9978 21.1307 15.0041 20.6937 14.9954C20.2918 14.9879 20.0094 14.5884 20.0002 14.0332C19.9911 13.4644 20.2451 13.03 20.6553 13.0188C21.5485 12.9939 22.4433 12.9939 23.3365 13.0176C23.7484 13.0288 24.0058 13.457 23.9999 14.022C23.9941 14.5946 23.7066 14.9904 23.2822 14.9966C22.8569 15.0028 22.4308 14.9978 22.0038 14.9978Z" fill="#029967"/>
<path d="M9.99985 17.0146C9.98872 17.5448 9.49551 18.0168 8.97263 17.9995C8.44233 17.981 7.97507 17.4805 8.00103 16.9602C8.02699 16.4474 8.49672 15.9963 9.00477 16C9.53259 16.0025 10.0097 16.4882 9.99985 17.0146Z" fill="#029967"/>
<path d="M27.2872 28.186C27.3902 27.9899 27.4341 27.8488 27.5183 27.7528C28.2484 26.9263 28.9821 26.1038 29.7212 25.2883C30.058 24.9171 30.5006 24.9071 30.7908 25.2423C31.0811 25.5785 31.073 26.0388 30.7433 26.41C29.7606 27.5186 28.7734 28.6233 27.7799 29.7199C27.4341 30.1011 27.0372 30.0901 26.6852 29.7059C26.2059 29.1826 25.7311 28.6523 25.2635 28.117C24.923 27.7277 24.915 27.2615 25.2249 26.9223C25.5206 26.5991 25.93 26.6141 26.2731 26.9693C26.437 27.1394 26.5947 27.3165 26.747 27.4986C26.9002 27.6797 27.0417 27.8718 27.2872 28.186Z" fill="#029967"/>
<defs>
<filter id="filter0_d_87_2" x="0" y="3" width="33" height="39" filterUnits="userSpaceOnUse" color-interpolation-filters="sRGB">
<feFlood flood-opacity="0" result="BackgroundImageFix"/>
<feColorMatrix in="SourceAlpha" type="matrix" values="0 0 0 0 0 0 0 0 0 0 0 0 0 0 0 0 0 0 127 0" result="hardAlpha"/>
<feOffset dy="4"/>
<feGaussianBlur stdDeviation="2"/>
<feComposite in2="hardAlpha" operator="out"/>
<feColorMatrix type="matrix" values="0 0 0 0 0 0 0 0 0 0 0 0 0 0 0 0 0 0 0.25 0"/>
<feBlend mode="normal" in2="BackgroundImageFix" result="effect1_dropShadow_87_2"/>
<feBlend mode="normal" in="SourceGraphic" in2="effect1_dropShadow_87_2" result="shape"/>
</filter>
</defs>
</svg>
